<svg width="124" height="40" viewBox="0 0 124 40" fill="none" xmlns="http://www.w3.org/2000/svg">
<g clip-path="url(#clip0_25788_5522)">
<path d="M72.4262 12.5145H67.8015V3.04752H72.1822C74.0878 3.04752 75.0407 4.03245 75.0407 5.60835C75.0407 6.3963 74.7037 7.0452 74.1111 7.46235C74.9245 7.8795 75.4125 8.64427 75.4125 9.72191C75.4125 11.4137 74.2621 12.5029 72.4262 12.5029M69.6026 4.66976V6.75551H72.1706C72.7864 6.75551 73.2744 6.33836 73.2744 5.70105C73.2744 5.06374 72.8445 4.65818 72.1706 4.65818H69.6026V4.66976ZM72.1357 8.41252H69.6026V10.8575H72.1706C72.8678 10.8575 73.5533 10.5794 73.5533 9.65238C73.5533 8.86443 73.0421 8.41252 72.1357 8.41252" fill="white"/>
<path d="M82.4774 12.5145H80.7576V11.8772C80.3161 12.3754 79.7002 12.6767 78.9682 12.6767C77.2949 12.6767 76.191 11.4368 76.191 9.59443V5.49246H77.9921V9.59443C77.9921 9.98841 78.1315 10.9733 79.3051 10.9733C80.1069 10.9733 80.6763 10.3708 80.6763 9.59443V5.49246H82.4774V12.5145V12.5145Z" fill="white"/>
<path d="M85.2661 9.69873C85.4985 10.5562 86.1841 11.0892 87.0323 11.0892C87.6365 11.0892 88.2292 10.8343 88.5196 10.2665H90.4485C90.0418 11.7034 88.7985 12.6651 87.0439 12.6651C85.0569 12.6651 83.4302 11.0313 83.4302 8.99189C83.4302 6.9525 85.0569 5.29549 87.0439 5.29549C89.0309 5.29549 90.8436 6.90615 90.588 9.68714H85.2661V9.69873ZM88.7985 8.22712C88.5777 7.40441 87.8922 6.89456 87.0323 6.89456C86.1724 6.89456 85.5566 7.416 85.301 8.22712H88.7985V8.22712Z" fill="white"/>
<path d="M97.8736 12.5145H96.0725V8.41251C96.0725 8.00695 95.9447 7.02202 94.7595 7.02202C93.9461 7.02202 93.3884 7.62457 93.3884 8.41251V12.5145H91.5873V5.48088H93.307V6.16454C93.7602 5.63152 94.376 5.30707 95.1313 5.30707C96.7813 5.30707 97.8852 6.54693 97.8852 8.40093V12.5029L97.8736 12.5145Z" fill="white"/>
<path d="M105.891 9.00348C105.891 11.1008 104.288 12.6767 102.336 12.6767C100.383 12.6767 98.7915 11.1124 98.7915 9.00348C98.7915 6.89455 100.383 5.30707 102.336 5.30707C104.288 5.30707 105.891 6.90614 105.891 9.00348ZM104.067 9.01506C104.067 7.79838 103.288 6.95249 102.324 6.95249C101.359 6.95249 100.593 7.79838 100.593 9.01506C100.593 10.2317 101.371 11.0197 102.324 11.0197C103.277 11.0197 104.067 10.197 104.067 9.01506Z" fill="white"/>
<path d="M109.703 12.6767C107.913 12.6767 106.577 11.7381 106.368 10.2202H108.204C108.448 10.8227 109.18 11.0429 109.714 11.0429C110.435 11.0429 110.981 10.8227 110.981 10.4171C110.981 10.0116 110.737 9.86094 109.505 9.66396C108.25 9.46697 106.565 9.13093 106.565 7.56662C106.565 6.46581 107.541 5.31865 109.575 5.31865C111.19 5.31865 112.398 6.18771 112.631 7.52027H110.76C110.644 7.19582 110.249 6.92931 109.586 6.92931C108.75 6.92931 108.413 7.23058 108.413 7.48551C108.413 7.85631 108.936 7.97218 109.807 8.11123C111.562 8.40092 112.817 8.78331 112.817 10.3129C112.817 11.7034 111.527 12.6883 109.726 12.6883" fill="white"/>
<path d="M77.446 22.0046L76.8069 23.905H74.8896L78.2013 14.438H80.4904L83.802 23.905H81.8848L81.2457 22.0046H77.4576H77.446ZM79.3284 16.4426L78.0038 20.336H80.6531L79.3284 16.4426Z" fill="white"/>
<path d="M86.3235 16.1182H84.5225V14.438H86.3235V16.1182ZM86.3235 23.905H84.5225V16.883H86.3235V23.905Z" fill="white"/>
<path d="M94.039 20.1506H92.2379V19.7914C92.2379 19.3859 92.1101 18.4009 90.9249 18.4009C90.1115 18.4009 89.5538 19.0035 89.5538 19.7914V23.8934H87.7527V16.8714H89.4724V17.555C89.9256 17.022 90.5414 16.6976 91.2967 16.6976C92.9467 16.6976 94.0506 17.9374 94.0506 19.7914V20.1506H94.039Z" fill="white"/>
<path d="M96.4095 21.1008C96.6419 21.9583 97.3275 22.4913 98.1757 22.4913C98.78 22.4913 99.3726 22.2364 99.6631 21.6686H101.592C101.185 23.1055 99.942 24.0672 98.1874 24.0672C96.2004 24.0672 94.5736 22.4334 94.5736 20.394C94.5736 18.3546 96.2004 16.6976 98.1874 16.6976C100.174 16.6976 101.987 18.3082 101.731 21.0892H96.4095V21.1008ZM99.942 19.6292C99.7212 18.8065 99.0356 18.2966 98.1757 18.2966C97.3159 18.2966 96.7 18.8181 96.4444 19.6292H99.942V19.6292Z" fill="white"/>
<path d="M105.578 24.0672C103.788 24.0672 102.463 23.1286 102.243 21.6107H104.079C104.323 22.2132 105.055 22.4334 105.589 22.4334C106.31 22.4334 106.856 22.2132 106.856 21.8076C106.856 21.4021 106.612 21.2514 105.38 21.0545C104.125 20.8575 102.44 20.5214 102.44 18.9571C102.44 17.8563 103.416 16.7092 105.45 16.7092C107.065 16.7092 108.273 17.5782 108.506 18.9108H106.635C106.53 18.5863 106.124 18.3198 105.461 18.3198C104.625 18.3198 104.288 18.6211 104.288 18.876C104.288 19.2468 104.811 19.3627 105.682 19.5017C107.437 19.7914 108.692 20.1738 108.692 21.7034C108.692 23.0939 107.402 24.0788 105.601 24.0788" fill="white"/>
<path d="M83.7904 35.4693C81.1992 35.4693 79.189 33.3024 79.189 30.533C79.189 27.7636 81.1992 25.5968 83.7904 25.5968C85.9401 25.5968 87.5204 26.8134 88.113 28.7486H86.1608C85.7425 27.8911 84.8827 27.2422 83.7904 27.2422C82.2334 27.2422 81.0017 28.7486 81.0017 30.533C81.0017 32.3175 82.2334 33.8355 83.7904 33.8355C84.871 33.8355 85.7309 33.1634 86.1608 32.3059H88.1014C87.4971 34.2294 85.8936 35.4693 83.7904 35.4693" fill="white"/>
<path d="M90.8204 27.5087H89.0193V25.8285H90.8204V27.5087ZM90.8204 35.2955H89.0193V28.2735H90.8204V35.2955Z" fill="white"/>
<path d="M98.4197 35.3071H96.7V34.6698C96.2585 35.168 95.6426 35.4693 94.9106 35.4693C93.2373 35.4693 92.1334 34.2294 92.1334 32.387V28.285H93.9345V32.387C93.9345 32.781 94.0739 33.7659 95.2475 33.7659C96.0493 33.7659 96.6187 33.1634 96.6187 32.387V28.285H98.4197V35.3071V35.3071Z" fill="white"/>
<path d="M106.612 35.3071H104.892V34.5539C104.334 35.1217 103.591 35.4577 102.731 35.4577C100.895 35.4577 99.3842 33.8702 99.3842 31.8076C99.3842 29.7451 100.906 28.1344 102.731 28.1344C103.556 28.1344 104.264 28.4357 104.811 28.9571V25.168H106.612V35.3186V35.3071ZM102.998 29.7914C101.999 29.7914 101.197 30.6605 101.197 31.8076C101.197 32.9548 101.999 33.7891 102.998 33.7891C103.997 33.7891 104.799 32.9085 104.799 31.8076C104.799 30.7068 103.997 29.7914 102.998 29.7914Z" fill="white"/>
<path d="M114.85 35.3071H113.13V34.5539C112.584 35.1217 111.829 35.4577 110.969 35.4577C109.133 35.4577 107.623 33.8702 107.623 31.8076C107.623 29.7451 109.145 28.1344 110.969 28.1344C111.829 28.1344 112.584 28.4589 113.13 29.0382V28.2851H114.85V35.3071V35.3071ZM111.236 29.7914C110.237 29.7914 109.435 30.6605 109.435 31.8076C109.435 32.9548 110.237 33.7891 111.236 33.7891C112.236 33.7891 113.037 32.9085 113.037 31.8076C113.037 30.7068 112.236 29.7914 111.236 29.7914Z" fill="white"/>
<path d="M123.077 35.3071H121.357V34.5539C120.799 35.1217 120.056 35.4577 119.196 35.4577C117.36 35.4577 115.838 33.8702 115.838 31.8076C115.838 29.7451 117.36 28.1344 119.196 28.1344C120.021 28.1344 120.73 28.4357 121.276 28.9571V25.168H123.077V35.3186V35.3071ZM119.463 29.7914C118.464 29.7914 117.662 30.6605 117.662 31.8076C117.662 32.9548 118.464 33.7891 119.463 33.7891C120.462 33.7891 121.264 32.9085 121.264 31.8076C121.264 30.7068 120.462 29.7914 119.463 29.7914Z" fill="white"/>
<path d="M73.8554 31.6802L59.5515 4.12514C58.3198 1.68019 55.7867 0 52.8585 0C49.9303 0 47.3972 1.68019 46.1655 4.12514L36.0911 23.5226C34.964 21.5295 33.1745 19.9652 31.0132 19.1194C33.4302 17.3812 34.9988 14.5423 34.9988 11.3326C34.9988 7.62456 32.884 4.40324 29.7932 2.81576C27.0741 1.3905 23.96 0.579374 20.6716 0.579374H5.60074C2.49826 0.579374 0 3.08227 0 6.16454V34.102C0 37.1842 2.49826 39.6871 5.60074 39.6871H21.8917C25.029 39.6871 28.0153 39.0382 30.7344 37.8795L31.7685 37.3812C31.8266 37.358 31.8847 37.3233 31.9428 37.3001C32.9189 38.9224 34.6967 40 36.7302 40C38.996 40 40.9482 38.6559 41.8313 36.7207C42.2728 35.701 43.2605 34.971 44.4225 34.9247H61.2944C62.468 34.9826 63.4557 35.701 63.8973 36.7207C64.7804 38.6559 66.7325 40 68.9984 40C72.0892 40 74.5875 37.4971 74.5875 34.4264C74.5875 33.4299 74.3319 32.4913 73.8671 31.6802" fill="white"/>
</g>
<defs>
<clipPath id="clip0_25788_5522">
<rect width="123.077" height="40" fill="white"/>
</clipPath>
</defs>
</svg>
