<svg width="85" height="40" viewBox="0 0 85 40" fill="none" xmlns="http://www.w3.org/2000/svg">
<path d="M26.1523 9.27883H26.1223C25.1302 9.18775 24.1588 8.94011 23.2442 8.54508C22.8692 8.40884 22.4854 8.26571 22.1004 8.14634C21.4325 7.92778 20.7394 7.79526 20.0379 7.75197C19.8736 7.74697 19.7198 7.73821 19.5567 7.73821C19.0584 7.69388 18.5612 7.83546 18.1611 8.13571C18.0547 7.63584 17.911 7.14467 17.7311 6.66635C17.6624 6.41335 17.5397 6.17821 17.3715 5.97711C17.2033 5.77601 16.9936 5.61371 16.7567 5.50136C16.6757 5.47675 16.5914 5.46453 16.5067 5.46511C16.2872 5.49394 16.077 5.57219 15.8921 5.69398C15.7072 5.81577 15.5524 5.97792 15.4392 6.16823L15.353 6.28823C15.133 6.59698 15.0255 6.75072 15.0561 6.89634C15.0867 7.04197 15.2736 7.15259 15.6811 7.38259C15.8579 7.48009 15.8886 7.73322 15.9148 7.91947V7.94072C15.9518 8.20869 15.97 8.47893 15.9692 8.74946C15.3234 8.21215 14.5328 7.87831 13.6973 7.79009C13.4759 7.74961 13.2512 7.72869 13.0261 7.72759C12.1884 7.76674 11.3663 7.96751 10.6049 8.31884C10.2674 8.46259 9.92611 8.62071 9.60174 8.77821C8.96813 9.09168 8.31293 9.35944 7.64113 9.57945C7.41339 9.64683 7.1817 9.70006 6.94738 9.73883H6.92363C6.91944 9.74124 6.91471 9.74253 6.90988 9.74258L6.88988 9.74695C6.78488 9.76445 6.61301 9.8207 6.57738 9.9732C6.54176 10.1257 6.56676 10.2307 6.77988 10.3938C7.34764 10.6853 7.98089 10.8256 8.61862 10.8013C8.77112 10.8013 8.92674 10.7976 9.09674 10.7851C9.31862 10.7744 9.54299 10.7457 9.78049 10.7132C10.1193 10.6639 10.4607 10.6355 10.803 10.6282C11.0115 10.6274 11.2195 10.6484 11.4236 10.6907C11.973 10.8201 12.2986 11.3476 12.5842 11.8219C12.6592 11.9401 12.7236 12.0513 12.7936 12.1519L12.8005 12.1619C12.9826 12.3825 13.1006 12.6489 13.1417 12.9319C13.1298 13.1732 12.7905 13.3694 12.5467 13.5157C12.4842 13.5557 12.4173 13.5932 12.3698 13.6226C12.2936 13.6769 12.1999 13.7351 12.1067 13.7963C11.5555 14.1388 10.798 14.6088 10.8874 15.24C10.9117 15.3957 10.9869 15.539 11.1012 15.6474C11.2155 15.7558 11.3625 15.8234 11.5192 15.8394C11.5481 15.8443 11.5774 15.8462 11.6067 15.845C11.8304 15.8271 12.0469 15.7583 12.2398 15.6438C12.3221 15.598 12.407 15.5573 12.4942 15.5219C12.7447 15.4175 13.0129 15.362 13.2842 15.3582C13.7446 15.3613 14.1912 15.515 14.5561 15.7957C14.6829 15.8939 14.8026 16.001 14.9142 16.1163C15.0353 16.2433 15.1677 16.359 15.3098 16.4619C15.461 16.5643 15.638 16.6221 15.8205 16.6288C15.8965 16.6374 15.9731 16.6173 16.0352 16.5725C16.0973 16.5276 16.1404 16.4612 16.1561 16.3863C16.2091 16.0692 16.23 15.7476 16.2186 15.4263C16.2093 15.1705 16.2187 14.9144 16.2467 14.66C16.2673 14.5057 16.3092 14.1938 16.5136 14.0976C16.5881 14.064 16.6694 14.0481 16.7511 14.0513C16.8575 14.0552 16.9636 14.0661 17.0686 14.0838C17.207 14.1156 17.3497 14.1249 17.4911 14.1113C17.8041 14.049 18.0926 13.898 18.3223 13.6764C18.552 13.4548 18.7132 13.1719 18.7867 12.8613C18.8267 12.7587 18.8922 12.6681 18.9771 12.5979C19.062 12.5278 19.1634 12.4806 19.2717 12.4607C19.5446 12.3656 19.7756 12.1782 19.9248 11.9307C19.9698 11.8738 20.0161 11.8182 20.0598 11.7651C20.2358 11.5574 20.458 11.3938 20.7086 11.2874C20.9592 11.1811 21.2313 11.1349 21.5029 11.1526C21.6148 11.1526 21.7429 11.1576 21.8835 11.1694C22.0085 11.1826 22.1398 11.1969 22.2654 11.2132C22.5923 11.2559 22.9214 11.2803 23.251 11.2863C23.5758 11.2914 23.8992 11.2446 24.2092 11.1476C24.9525 10.8685 25.6401 10.4592 26.2398 9.93882L26.3285 9.87007C26.5016 9.72882 26.5441 9.63945 26.4948 9.4807C26.4454 9.32195 26.2379 9.28258 26.1554 9.27383L26.1523 9.27883ZM13.1198 11.4726C12.9763 11.2209 12.8113 10.9821 12.6267 10.7588C12.3927 10.492 12.0988 10.2843 11.7691 10.1528C11.4394 10.0212 11.0833 9.96954 10.7299 10.0019C10.368 10.0019 9.97986 10.0438 9.60486 10.0813C9.23833 10.1262 8.8697 10.1518 8.50049 10.1582C8.32748 10.1592 8.15459 10.1485 7.983 10.1263C8.60468 9.91015 9.21231 9.65549 9.80236 9.36383C10.4336 9.04632 11.088 8.77701 11.7599 8.55821C12.1816 8.42855 12.6205 8.36345 13.0617 8.36509C13.8296 8.35296 14.5845 8.56399 15.2348 8.97259C15.4527 9.06348 15.626 9.23669 15.7169 9.4546C15.8079 9.6725 15.8091 9.91749 15.7205 10.1363C15.5089 10.6987 15.1894 11.2142 14.7798 11.6538C14.748 11.6838 14.7173 11.7232 14.6798 11.7632C14.4886 11.9894 14.1673 12.3619 13.8948 12.3619C13.8527 12.3619 13.811 12.3524 13.773 12.3343C13.7349 12.3161 13.7014 12.2897 13.6748 12.2569C13.4632 12.0147 13.2762 11.7519 13.1167 11.4726H13.1198ZM18.2323 12.2007C18.1896 12.5968 18.0099 12.9655 17.7242 13.2432C17.6066 13.3396 17.4712 13.412 17.3257 13.456C17.1802 13.5001 17.0274 13.5151 16.8761 13.5H16.6992C16.6367 13.5 16.5742 13.5 16.5017 13.5C16.4008 13.4972 16.3004 13.5144 16.2063 13.5508C16.1122 13.5872 16.0263 13.642 15.9536 13.7119C15.533 14.1288 15.5423 15.04 15.5473 15.6438V15.8382L15.5055 15.7988C15.0374 15.2728 14.4162 14.9069 13.7292 14.7526C13.6107 14.7328 13.4906 14.7238 13.3705 14.7257C13.1312 14.726 12.8929 14.7548 12.6605 14.8113C12.4584 14.8618 12.2624 14.9343 12.0761 15.0275C11.9986 15.0575 11.9324 15.09 11.8549 15.1244C11.7643 15.1629 11.6684 15.1875 11.5705 15.1975C11.554 15.1988 11.5375 15.1947 11.5236 15.1857C11.5198 15.172 11.5198 15.1575 11.5236 15.1438C11.5917 14.8975 11.8698 14.7194 12.0861 14.5813L12.1424 14.5438C12.698 14.1763 13.2205 13.8082 13.7348 13.4188C14.7949 12.7083 15.654 11.7367 16.2292 10.5976C16.5279 9.88068 16.6519 9.10308 16.5911 8.32884V8.28321C16.59 7.95071 16.5293 7.62111 16.4117 7.31009C16.2986 7.09266 16.1141 6.92075 15.8892 6.82322C15.8479 6.79822 15.8105 6.77572 15.7723 6.75447C15.8736 6.57197 16.1473 6.09447 16.4661 6.09447C16.5379 6.10124 16.6072 6.12479 16.6683 6.16322C16.7295 6.20165 16.7807 6.25388 16.8179 6.31572C17.1483 6.81394 17.3845 7.36853 17.5148 7.95196C17.5417 8.04071 17.5698 8.13946 17.5961 8.24759C17.8961 9.27508 18.3917 10.9901 18.2323 12.2076V12.2007ZM24.6698 10.2613C24.2438 10.5214 23.7579 10.6671 23.2592 10.6844H23.2198C22.9367 10.6757 22.6485 10.6382 22.3692 10.6013C22.1304 10.5713 21.8854 10.5388 21.6435 10.5282C21.1431 10.4806 20.6397 10.5812 20.1961 10.8176C19.9572 10.972 19.7484 11.1685 19.5798 11.3976C19.4548 11.5566 19.3145 11.7032 19.1611 11.8351C19.1159 11.8794 19.058 11.9082 18.9954 11.9176H18.9923C18.9211 11.9138 18.9148 11.8707 18.9211 11.7732V11.7107C18.9104 11.4882 18.8779 11.2688 18.8467 11.0557L18.8279 10.9363C18.7798 10.549 18.712 10.1643 18.6248 9.78382C18.609 9.70434 18.5857 9.62651 18.5554 9.55133C18.4486 9.21133 18.3111 8.78821 18.5811 8.57259C18.7718 8.45646 18.9915 8.39685 19.2148 8.40071C19.2148 8.40071 19.4192 8.38008 19.6523 8.37758H19.7361C19.9935 8.37826 20.2507 8.39496 20.506 8.42758C21.0458 8.50517 21.5772 8.63238 22.0935 8.80758C22.4204 8.91321 22.7442 9.03383 23.0648 9.14945C23.8043 9.44314 24.5686 9.67009 25.3485 9.82758C25.13 9.98577 24.903 10.1318 24.6685 10.2651" fill="white"/>
<path d="M32.6966 16.202C32.4802 14.818 32.1382 13.4565 31.6747 12.1345C31.2265 10.8658 30.6616 9.64145 29.9872 8.47706C29.4634 7.57619 28.8693 6.71811 28.2104 5.91083C27.3691 4.87496 26.4113 3.93943 25.356 3.12272C24.3302 2.32454 23.2075 1.65926 22.0148 1.14273C20.8243 0.633962 19.5704 0.288952 18.2873 0.117119C16.9812 -0.0546579 15.6572 -0.0373969 14.3561 0.168369C13.0777 0.368593 11.8331 0.744212 10.6573 1.28461C9.47686 1.83308 8.36799 2.52405 7.35549 3.34209C6.32269 4.18042 5.38745 5.13223 4.56738 6.17958C3.76082 7.2071 3.05507 8.30989 2.45989 9.47268C1.84333 10.6839 1.34116 11.95 0.959902 13.2545C0.560204 14.6156 0.284292 16.01 0.135532 17.4208C-0.0183251 18.8877 -0.0402876 20.3655 0.0699074 21.8364C0.17686 23.2619 0.410277 24.6752 0.767404 26.0595C1.11618 27.3832 1.58305 28.6729 2.16239 29.9132C2.72259 31.1034 3.39567 32.2371 4.17238 33.2988C5.1338 34.4634 6.1715 35.5629 7.27861 36.59C9.86122 38.765 13.1216 39.9709 16.4979 40H16.5036C17.8101 40.0009 19.11 39.8155 20.3642 39.4494C21.6041 39.0851 22.7909 38.5598 23.8941 37.8869C25.0172 37.1994 26.0549 36.3811 26.9854 35.4494C27.9127 34.5165 28.741 33.4902 29.4572 32.3869C30.1831 31.2729 30.7997 30.0914 31.2985 28.8588C31.819 27.5748 32.2211 26.246 32.4997 24.8888C32.7949 23.4693 32.9603 22.0259 32.9941 20.5764C33.0279 19.1121 32.929 17.6478 32.6985 16.2014L32.6966 16.202ZM3.48989 25.7607H3.06801L3.44301 24.3313C3.47926 24.2245 3.49801 24.2301 3.50989 24.2745C3.50364 24.7888 3.49489 25.2888 3.48739 25.7613L3.48989 25.7607ZM3.69239 21.8651L2.84614 21.4751C2.79864 21.4557 2.80427 21.4382 2.85614 21.4382H4.66863C4.72176 21.4382 4.72363 21.4551 4.67613 21.4751L3.86363 21.8651C3.8364 21.8764 3.80719 21.8823 3.7777 21.8823C3.7482 21.8823 3.719 21.8764 3.69176 21.8651H3.69239ZM2.63302 21.0689L3.57864 20.3964C3.57426 20.6157 3.56864 20.8401 3.56426 21.0689H2.63302ZM2.94552 18.8008H4.563C4.60613 18.8008 4.6105 18.8176 4.57175 18.8358L3.84864 19.1751C3.79821 19.1956 3.74213 19.1974 3.69051 19.1801L2.94051 18.8345C2.89739 18.8145 2.90177 18.8008 2.94552 18.8008V18.8008ZM2.74427 18.4695L3.61614 17.897C3.61176 18.0733 3.60989 18.272 3.60301 18.4695H2.74427ZM3.92301 17.907L4.77925 18.4695H3.92926C3.92926 18.2776 3.92301 18.0914 3.92301 17.907ZM3.96051 20.3989L4.91113 21.0689H3.97364C3.96739 20.8426 3.96301 20.6151 3.96301 20.3989H3.96051ZM4.04926 25.7613C4.04426 25.2888 4.03113 24.7888 4.02301 24.2788C4.03051 24.2407 4.05488 24.2163 4.08551 24.3163L4.46863 25.7613H4.04926ZM16.4954 38.5525C14.0133 38.5438 11.5878 37.8097 9.51735 36.4406C11.1365 36.4653 12.7514 36.6134 14.3479 36.8838C15.9523 37.1238 17.5604 37.3925 19.176 37.5544C19.7967 37.6169 20.426 37.6631 21.046 37.69C19.5968 38.2607 18.053 38.5531 16.4954 38.5519V38.5525ZM23.8704 36.1769C22.2745 36.3205 20.6678 36.2922 19.0779 36.0925C17.4873 35.9244 15.9061 35.6513 14.3279 35.4231C12.7009 35.1583 11.0563 35.0157 9.40798 34.9963C8.84548 35.0044 8.28861 35.0288 7.73424 35.0856C7.20374 34.614 6.7028 34.1101 6.23424 33.5769C7.89161 33.3554 9.56823 33.3158 11.2342 33.4588C12.9061 33.5807 14.5642 33.825 16.2211 34.0669C17.0554 34.1919 17.8842 34.3169 18.7148 34.4263C19.1348 34.48 20.781 34.61 21.1854 34.6069C22.8534 34.609 24.5189 34.4777 26.166 34.2144C25.4652 34.9412 24.6958 35.5986 23.8685 36.1775L23.8704 36.1769ZM27.6566 32.4444C26.0573 32.8187 24.4269 33.0444 22.786 33.1188C21.9666 33.1703 21.145 33.1778 20.3248 33.1413C19.4966 33.0862 18.6718 32.989 17.8536 32.85C16.2011 32.6132 14.5511 32.35 12.8942 32.1625C11.241 31.9628 9.57442 31.8957 7.91049 31.9619C7.00444 32.0047 6.10259 32.1118 5.21175 32.2825C4.90425 31.8588 4.61676 31.4169 4.34488 30.9557C5.81151 30.6471 7.3016 30.4631 8.79923 30.4057C10.3139 30.3642 11.8295 30.4453 13.3311 30.6482C14.7848 30.8394 16.2248 31.1094 17.6767 31.3057C19.0038 31.4912 20.3417 31.5895 21.6817 31.6H21.6917C23.0841 31.5983 24.4742 31.4829 25.8479 31.255C26.8533 31.0909 27.8474 30.8825 28.8304 30.63C28.4728 31.2556 28.0805 31.8608 27.6554 32.4426L27.6566 32.4444ZM5.50362 27.3401C5.27374 27.1976 5.0844 26.9983 4.95382 26.7614C4.82324 26.5245 4.7558 26.258 4.758 25.9876L6.90737 20.9195C6.95424 20.8282 6.97487 20.857 6.96424 20.9195L5.50362 27.3401ZM6.93237 22.5557C6.89987 24.8295 6.86987 26.942 6.85612 27.9551C6.46105 27.8619 6.08466 27.7024 5.743 27.4832L6.88237 22.457C6.91174 22.4089 6.92612 22.4814 6.93174 22.5557H6.93237ZM6.36299 18.1108H7.98611C8.02736 18.1108 8.03361 18.1295 7.98986 18.1489L7.26486 18.4933C7.2416 18.5039 7.21639 18.5097 7.19081 18.5102C7.16523 18.5107 7.13981 18.506 7.11612 18.4964L6.36049 18.1489C6.31799 18.1301 6.318 18.1108 6.3705 18.1108H6.36299ZM6.16862 17.7851L7.02112 17.2226C7.01362 17.4039 7.01362 17.5926 7.01237 17.7851H6.16862ZM7.35611 17.232L8.19798 17.7851H7.36111C7.36111 17.5945 7.35361 17.4101 7.35361 17.232H7.35611ZM9.08235 24.6695C9.05173 25.7588 9.02548 26.8426 9.00673 27.6857C8.99964 27.6936 8.98981 27.6985 8.97923 27.6994L8.26236 24.5663L8.64298 23.6526L9.08235 24.6695ZM8.79298 23.3064L9.0786 22.627C9.1086 22.5832 9.1261 22.6001 9.13173 22.632C9.12423 23.0695 9.11173 23.5407 9.0986 24.0207L8.79298 23.3064ZM8.07736 24.9976L8.77298 27.8463C8.5112 27.9441 8.23828 28.009 7.96048 28.0394C7.86674 28.0501 7.77299 28.0582 7.67861 28.0657C7.62077 28.0728 7.56239 28.0745 7.50424 28.0707C7.50424 27.6895 7.49174 27.1107 7.48674 26.3976L8.07736 24.9976ZM7.47549 25.727C7.46549 24.7845 7.45049 23.6801 7.42924 22.5395C7.43986 22.4464 7.46174 22.3789 7.50486 22.5145L7.97423 24.542L7.47549 25.727ZM8.15611 24.1195L7.41924 20.9214C7.41111 20.8589 7.42674 20.827 7.47486 20.9182L8.50111 23.307L8.15611 24.1195ZM9.56797 25.1195V24.652C9.5436 23.8207 9.52423 23.4351 9.50985 22.6639C9.51485 22.6095 9.5286 22.5732 9.57235 22.6351L10.853 25.8382C10.7228 26.1745 10.5286 26.4823 10.2811 26.7445L9.56797 25.1195ZM10.0723 26.9526C9.93566 27.0997 9.78657 27.2348 9.62672 27.3563C9.61423 26.9188 9.5961 26.3563 9.58672 25.8457L10.0723 26.9526ZM11.3773 25.7257L12.8455 22.5732C12.8211 23.4788 12.7892 24.7751 12.7617 25.7257H12.1605C11.943 25.7257 11.593 25.7407 11.3767 25.7257H11.3773ZM21.8842 21.6882H24.0054C24.0604 21.6882 24.0679 21.7045 24.0335 21.727C24.026 21.732 23.0648 22.1845 23.0648 22.1845C23.0339 22.1989 23.0004 22.2068 22.9663 22.2078C22.9322 22.2087 22.8983 22.2027 22.8666 22.1901L21.8742 21.732C21.8167 21.7064 21.8217 21.6882 21.8842 21.6882V21.6882ZM21.641 21.2657L22.7491 20.4714C22.7491 20.7064 22.7398 21.237 22.7398 21.2657H21.641ZM22.0435 18.1408C22.0551 18.137 22.067 18.1345 22.0792 18.1333H23.8504C23.8704 18.1333 23.8773 18.1333 23.8823 18.1408C23.8948 18.1458 23.8898 18.1583 23.8579 18.1714L23.0641 18.5464C23.0103 18.5635 22.9524 18.5635 22.8985 18.5464L22.0717 18.1714C22.0429 18.1589 22.0348 18.1458 22.0429 18.1408H22.0435ZM21.8523 17.7608L22.7991 17.0826C22.7935 17.3014 22.7935 17.5258 22.7904 17.7608H21.8523ZM23.1266 17.0926L24.0798 17.7608H23.1423C23.1366 17.5339 23.1323 17.3108 23.1254 17.0926H23.1266ZM23.1748 20.4732L24.2816 21.2676H23.1973C23.1898 21.0064 23.1829 20.7326 23.1798 20.4732H23.1748ZM26.3904 19.6214H28.2029C28.2535 19.6214 28.2604 19.6339 28.2104 19.6589L27.3979 20.0501C27.3435 20.0704 27.2835 20.0704 27.2291 20.0501L26.3835 19.6589C26.336 19.6339 26.3379 19.6214 26.3897 19.6214H26.3904ZM26.1623 19.252L27.1141 18.5764C27.1091 18.8026 27.1079 19.0226 27.1035 19.252H26.1623ZM27.4829 18.5776L28.4479 19.252H27.4966C27.4966 19.0264 27.491 18.802 27.4835 18.5776H27.4829ZM27.0722 22.4782C27.0385 24.6751 27.001 27.0351 26.9779 28.6938C26.5296 28.8571 26.0521 28.925 25.576 28.8932L26.4766 24.8638L27.0066 22.4889C27.0341 22.4326 27.0597 22.4026 27.0691 22.4764L27.0722 22.4782ZM26.9441 21.5351L25.3691 28.5157L24.6848 26.6407L24.6898 26.6295L26.8435 21.4632C26.9022 21.3614 26.9685 21.2914 26.9435 21.5376L26.9441 21.5351ZM25.2029 28.8326C24.7636 28.7326 24.3567 28.5235 24.0198 28.2244L24.5329 26.9988L25.2029 28.8326ZM23.8216 28.0288C23.6034 27.7968 23.4189 27.5353 23.2735 27.252C23.2629 26.1938 23.2366 24.6157 23.211 22.9264L24.4079 26.6138L23.8216 28.0288ZM21.2279 27.1788H18.6279L22.4991 22.8113L21.2279 27.1788ZM22.7123 22.9239C22.6954 23.907 22.661 27.0595 22.661 27.1788H21.506L22.7123 22.9239ZM27.5354 22.4764C27.5304 22.4045 27.5691 22.427 27.5935 22.4907L28.6772 27.1782C28.4419 27.6661 28.0736 28.0777 27.6147 28.3657C27.6041 27.5163 27.5391 22.4907 27.536 22.4739L27.5354 22.4764ZM28.9541 27.1463L27.6304 21.5889C27.5897 21.2489 27.6747 21.3701 27.7435 21.4964L30.1735 27.1469L28.9541 27.1463ZM31.1203 24.4357C30.9407 25.3217 30.7075 26.196 30.4222 27.0538L27.5191 20.1626L28.796 19.5939C28.8256 19.5786 28.8505 19.5554 28.8678 19.5269C28.8852 19.4984 28.8943 19.4657 28.8943 19.4323C28.8943 19.399 28.8852 19.3662 28.8678 19.3377C28.8505 19.3092 28.8256 19.2861 28.796 19.2707C28.796 19.2707 27.546 18.3808 27.4741 18.3333L27.4435 16.2195C27.5985 16.1976 27.7485 16.1295 27.8985 16.1045C28.0641 16.0888 28.2311 16.1004 28.3929 16.1389C28.5374 16.176 28.689 16.1759 28.8336 16.1388C28.9781 16.1016 29.1109 16.0286 29.2197 15.9264C28.9024 15.8735 28.5995 15.7552 28.3304 15.5789C28.1827 15.5106 28.0243 15.4683 27.8622 15.4539C27.696 15.4272 27.5262 15.4331 27.3622 15.4714C27.346 15.3464 27.3297 15.2214 27.3091 15.0833H27.2416C27.1621 15.6786 27.1281 16.279 27.1397 16.8795C27.1397 17.2889 27.1341 17.7033 27.1291 18.1151C27.1291 18.187 27.1291 18.2595 27.1222 18.3351L25.8098 19.2726C25.7806 19.288 25.7562 19.3111 25.7391 19.3393C25.7221 19.3676 25.7131 19.3999 25.7131 19.4329C25.7131 19.4659 25.7221 19.4983 25.7391 19.5265C25.7562 19.5548 25.7806 19.5778 25.8098 19.5932V19.597L27.0472 20.1657L24.5473 26.2476L23.2579 22.3339L24.6829 21.6651C24.7171 21.6475 24.7459 21.621 24.7662 21.5884C24.7866 21.5558 24.7977 21.5183 24.7985 21.4798C24.7993 21.4414 24.7896 21.4035 24.7706 21.3701C24.7516 21.3367 24.7238 21.3091 24.6904 21.2901C24.6904 21.2901 23.3441 20.3489 23.1704 20.222C23.1641 19.7276 23.1529 19.1933 23.1498 18.727L24.4523 18.1133C24.482 18.0982 24.5071 18.0754 24.5249 18.0472C24.5427 18.019 24.5524 17.9865 24.5531 17.9531C24.5538 17.9198 24.5455 17.8869 24.5289 17.858C24.5123 17.829 24.4882 17.8052 24.4591 17.7889L23.1173 16.8389C23.1073 15.877 23.1023 14.9189 23.0854 13.9639C23.1607 13.9555 23.235 13.9398 23.3073 13.917C23.3878 13.8898 23.4698 13.8671 23.5529 13.8489C23.718 13.8294 23.8852 13.8383 24.0473 13.8752C24.1954 13.9151 24.3512 13.9169 24.5002 13.8806C24.6493 13.8442 24.7867 13.7707 24.8998 13.667C24.5825 13.6131 24.2797 13.4944 24.0104 13.3183C23.862 13.2521 23.7039 13.2099 23.5423 13.1933C23.376 13.168 23.2064 13.1739 23.0423 13.2108C23.0298 13.0889 23.0104 12.9608 22.986 12.8202H22.9235V12.8239C22.8453 13.3539 22.8112 13.8895 22.8216 14.4252C22.8173 14.9139 22.8173 15.3989 22.8066 15.8876C22.8016 16.2051 22.796 16.5233 22.7916 16.8395L21.4667 17.7851C21.4372 17.8013 21.4126 17.8251 21.3955 17.854C21.3784 17.8829 21.3694 17.9159 21.3694 17.9495C21.3694 17.9831 21.3784 18.0161 21.3955 18.045C21.4126 18.0739 21.4372 18.0977 21.4667 18.1139L22.7654 18.7257C22.7654 19.1889 22.756 19.7357 22.7485 20.2257L21.2335 21.2882C21.1984 21.3054 21.1689 21.3321 21.1482 21.3652C21.1275 21.3984 21.1165 21.4367 21.1165 21.4757C21.1165 21.5148 21.1275 21.5531 21.1482 21.5862C21.1689 21.6194 21.1984 21.6461 21.2335 21.6632L22.6279 22.3326L18.2623 27.1807C18.1785 27.1807 17.6373 27.1851 17.5586 27.2863C17.5093 27.3273 17.4757 27.384 17.4634 27.4468C17.4511 27.5097 17.4609 27.5748 17.4911 27.6313C17.5603 27.7845 17.681 27.9086 17.8323 27.9819C17.9061 28.0278 17.9844 28.0659 18.066 28.0957C18.0766 28.1001 18.0852 28.1081 18.0904 28.1182C18.2734 28.5713 18.5547 28.9782 18.9141 29.3094C19.2735 29.6406 19.702 29.8878 20.1685 30.0332H20.1735C20.1735 30.0332 20.2192 30.0488 20.2092 30.0819L20.2029 30.0969C20.1877 30.1029 20.172 30.1075 20.156 30.1107C18.546 30.0126 16.9611 29.7488 15.3773 29.5001C14.7686 29.4019 14.1629 29.3126 13.5567 29.2307C13.143 29.1788 12.7361 29.1288 12.3261 29.0563C12.2873 29.0394 12.268 29.0288 12.2586 29.0126V29.0088L12.2555 29.0032V28.9938C12.2555 28.9894 12.2586 28.9894 12.2586 28.9894C12.263 28.9775 12.2706 28.9669 12.2805 28.9588L12.2948 28.9488C12.897 28.8136 13.4574 28.5344 13.928 28.1352C14.3985 27.7359 14.7653 27.2284 14.9967 26.6563C15.0254 26.6413 15.0523 26.6245 15.0792 26.6107C15.1396 26.5846 15.1987 26.5554 15.2561 26.5232C15.4046 26.4461 15.5247 26.3237 15.5992 26.1738C15.6281 26.1165 15.637 26.0512 15.6245 25.9883C15.6121 25.9253 15.579 25.8683 15.5304 25.8263C15.4486 25.7157 14.8148 25.7207 14.8148 25.7207L14.8098 25.7245H14.7029C14.6986 25.3776 14.6929 24.4745 14.6692 23.8882C14.7381 23.9057 14.8107 23.9018 14.8773 23.877C14.9636 23.8513 15.0442 23.8245 15.1273 23.8082C15.296 23.7699 15.4711 23.7699 15.6398 23.8082C15.804 23.8455 15.974 23.8495 16.1398 23.8201C16.2872 23.7808 16.4235 23.7079 16.5379 23.607C16.2146 23.546 15.9061 23.4234 15.6292 23.2457C15.4737 23.1783 15.3081 23.1371 15.1392 23.1238C14.9685 23.0957 14.7935 23.1112 14.6304 23.1689C14.6179 23.0257 14.6073 22.9082 14.5929 22.8176H14.5304C14.4442 23.3176 14.4442 25.0532 14.4386 25.7245H13.3167C13.283 24.502 13.2273 22.8695 13.2005 21.8239L14.1736 19.7401C14.3079 19.797 14.4586 19.8076 14.5948 19.8595C14.7427 19.9148 14.8788 19.9975 14.9961 20.1032C15.1065 20.207 15.2357 20.2889 15.3767 20.3445C15.5351 20.3853 15.7006 20.3902 15.8611 20.3589C15.6169 20.1627 15.4184 19.9157 15.2792 19.6351C15.1844 19.5054 15.0704 19.391 14.9411 19.2957C14.8052 19.1866 14.6497 19.1045 14.4829 19.0539C14.5241 18.9427 14.555 18.8281 14.5754 18.7114C14.5704 18.7001 14.5754 18.6801 14.5467 18.6639C14.5402 18.663 14.5337 18.6617 14.5273 18.6601C14.4829 18.6676 14.4729 18.6914 14.4454 18.7276C14.363 18.8385 14.2878 18.9545 14.2204 19.0751L13.188 21.2995C13.1755 20.9501 13.1686 20.5995 13.1623 20.2495C13.1681 19.8091 13.137 19.369 13.0692 18.9339H13.0067C12.9313 19.4639 12.8983 19.9992 12.908 20.5345C12.9023 21.0126 12.8848 21.4995 12.8705 21.9807L11.0867 25.6757L9.48923 21.757C9.47548 21.2707 9.46423 20.7889 9.45798 20.2989C9.46651 19.7485 9.43182 19.1982 9.35423 18.6532H9.29173C9.21695 19.1899 9.18185 19.7314 9.18673 20.2732C9.18673 20.7676 9.17173 21.2626 9.16048 21.7514L8.64673 22.9626L7.39674 20.0501C7.38861 19.5651 7.38236 19.0876 7.37611 18.6264L8.51548 18.0901C8.54163 18.0769 8.56359 18.0566 8.57893 18.0316C8.59427 18.0066 8.60238 17.9779 8.60238 17.9486C8.60238 17.9192 8.59427 17.8905 8.57893 17.8655C8.56359 17.8405 8.54163 17.8203 8.51548 17.807C8.51548 17.807 7.55611 17.1126 7.35236 16.9683C7.33986 15.9683 7.33174 14.9645 7.31486 13.9627C7.38764 13.9551 7.45934 13.9393 7.52861 13.9158C7.61058 13.8883 7.69405 13.8656 7.77861 13.8477C7.94348 13.828 8.1105 13.8369 8.27236 13.8739C8.42871 13.9094 8.59101 13.9094 8.74736 13.8739C8.88465 13.8294 9.012 13.7588 9.12235 13.6658C8.81069 13.6148 8.51359 13.4976 8.25111 13.322C8.10462 13.2533 7.94766 13.2096 7.78674 13.1927C7.61435 13.1628 7.43774 13.1679 7.26736 13.2077C7.25611 13.077 7.23862 12.9433 7.22049 12.8133H7.15799C7.06809 13.4537 7.03151 14.1005 7.04862 14.747C7.04299 15.372 7.03362 15.997 7.02612 16.622C7.02299 16.7389 7.02299 16.8545 7.01862 16.9689L5.8555 17.8033C5.82896 17.8167 5.80668 17.8373 5.79111 17.8627C5.77554 17.8881 5.76731 17.9172 5.76731 17.947C5.76731 17.9768 5.77554 18.006 5.79111 18.0313C5.80668 18.0567 5.82896 18.0773 5.8555 18.0908L6.99487 18.627C6.98487 19.147 6.97424 19.9932 6.97424 20.0507L4.65738 25.497L4.31738 24.247H4.7655C4.83227 24.2428 4.89772 24.2265 4.95863 24.1988C5.003 24.1876 5.10738 24.1501 5.10738 24.0876C5.10738 24.0251 5.01425 23.9988 4.97488 23.9826C4.90802 23.9562 4.83729 23.941 4.7655 23.9376H4.23613L4.00613 23.0726C4.00176 22.7226 3.99613 22.3601 3.98863 22.0132L5.26863 21.4132C5.29808 21.3982 5.3229 21.3755 5.34044 21.3475C5.35799 21.3195 5.36759 21.2872 5.36823 21.2542C5.36888 21.2211 5.36053 21.1885 5.34409 21.1598C5.32765 21.1312 5.30372 21.1075 5.27488 21.0914C5.27488 21.0914 4.04613 20.2214 3.95738 20.1639C3.95738 19.9089 3.95238 19.5582 3.94426 19.3208L5.098 18.777C5.12445 18.7637 5.14677 18.7435 5.16256 18.7184C5.17834 18.6934 5.18699 18.6645 5.18757 18.6349C5.18815 18.6054 5.18064 18.5762 5.16584 18.5505C5.15105 18.5249 5.12954 18.5038 5.10363 18.4895C5.10363 18.4895 4.07863 17.7558 3.91613 17.6426C3.90613 16.8039 3.89989 16.2445 3.89551 16.182C4.03394 16.1708 4.1702 16.1407 4.30051 16.0926C4.44429 16.0692 4.59117 16.0728 4.73363 16.1033C4.87048 16.1371 5.0129 16.1421 5.15175 16.1176C5.28247 16.0786 5.40374 16.0131 5.508 15.9251C5.2268 15.877 4.95878 15.7705 4.72113 15.6126C4.58758 15.5547 4.44553 15.5189 4.30051 15.5064C4.15238 15.4808 4.00034 15.4895 3.85613 15.532C3.84301 15.4189 3.82551 15.3058 3.80051 15.1833H3.73801C3.66528 15.6418 3.63349 16.106 3.64301 16.5701C3.63676 16.9708 3.63114 17.2445 3.62176 17.6439L2.44114 18.4839C2.41456 18.4978 2.39229 18.5187 2.37676 18.5444C2.36122 18.5701 2.35301 18.5995 2.35301 18.6295C2.35301 18.6595 2.36122 18.6889 2.37676 18.7146C2.39229 18.7403 2.41456 18.7612 2.44114 18.7751L3.59489 19.3189C3.59114 19.5576 3.58926 19.9082 3.58301 20.162L2.28552 21.0851C2.25568 21.1002 2.2306 21.1232 2.21308 21.1517C2.19556 21.1802 2.18628 21.2129 2.18628 21.2464C2.18628 21.2798 2.19556 21.3126 2.21308 21.341C2.2306 21.3695 2.25568 21.3925 2.28552 21.4076L3.55176 22.0114C3.54864 22.3576 3.53801 22.7151 3.53239 23.0607L3.30614 23.9357H2.77677C2.70895 23.9381 2.6419 23.9509 2.57802 23.9738C2.53614 23.9913 2.43052 24.0282 2.43052 24.0857C2.43052 24.1432 2.52489 24.177 2.56489 24.1926C2.63179 24.2233 2.70388 24.2411 2.77739 24.2451H3.22239L2.82552 25.7595H2.18489C1.79483 24.2993 1.55793 22.8025 1.47803 21.2932C1.39009 19.783 1.4529 18.2679 1.66552 16.7701C1.8619 15.3805 2.19347 14.0134 2.65552 12.6883C3.09053 11.4279 3.65258 10.215 4.33301 9.06831C4.68992 8.46253 5.08205 7.87819 5.50737 7.31832C6.8119 7.64897 8.17618 7.66611 9.4886 7.36832C10.8065 7.08459 12.162 7.01914 13.5011 7.17457L13.8936 7.24395C13.9249 7.0209 13.9744 6.80079 14.0417 6.58582C12.5802 6.1828 11.0547 6.06503 9.5486 6.23896C8.60337 6.38323 7.63661 6.23949 6.77424 5.82646C7.28543 5.28377 7.8386 4.78222 8.42861 4.32647C9.10549 4.76882 9.87199 5.05569 10.673 5.16646C11.183 5.25521 11.7011 5.29146 12.2048 5.41021C12.7194 5.52894 13.2271 5.67604 13.7255 5.85083C13.8998 5.91333 14.1329 6.02583 14.2398 6.07645C14.3368 5.87106 14.4552 5.67645 14.5929 5.49583L14.2661 5.28896C13.646 4.95169 12.9872 4.69102 12.3042 4.51271C11.8452 4.37985 11.3992 4.2056 10.9717 3.99209C10.6092 3.80199 10.2776 3.55819 9.98797 3.26897C10.611 2.89215 11.2643 2.5679 11.9411 2.2996C12.3786 2.92085 13.1948 3.26897 13.748 3.74585C14.2233 4.13912 14.6402 4.5981 14.9861 5.10896C15.1669 4.97103 15.3672 4.86067 15.5804 4.78146C15.2735 4.04868 14.8338 3.37889 14.2836 2.80584C13.9633 2.53343 13.718 2.18359 13.5711 1.78961C14.3015 1.60892 15.0473 1.49718 15.7986 1.45586L16.1611 4.64333C16.2724 4.62707 16.3848 4.61976 16.4973 4.62147C16.611 4.6214 16.7246 4.6287 16.8373 4.64333L17.2011 1.45961C17.7216 1.48683 18.2401 1.54568 18.7535 1.63586C19.141 1.71648 19.4329 1.78961 19.4329 1.78961C19.2825 2.17996 19.0405 2.52848 18.7273 2.80584C18.1768 3.37874 17.7399 4.05081 17.4398 4.78646C17.6513 4.86488 17.8497 4.97465 18.0286 5.11208C18.3768 4.60333 18.792 4.1438 19.2629 3.74585C19.806 3.27272 20.6179 2.9046 21.056 2.2996C21.529 2.48384 21.9912 2.6946 22.4404 2.93085L23.0229 3.2671C22.708 3.52626 22.3791 3.76807 22.0379 3.99146C21.6141 4.21555 21.1659 4.39024 20.7023 4.51209C20.0198 4.69119 19.3613 4.9518 18.741 5.28833L18.4117 5.49208C18.5544 5.67069 18.6755 5.86559 18.7723 6.0727C18.8917 6.01583 19.1154 5.9102 19.2835 5.8502C19.7821 5.67457 20.2902 5.52746 20.8054 5.40958C21.3054 5.29395 21.8248 5.25458 22.336 5.16583C23.1339 5.05059 23.8974 4.76404 24.5741 4.32584C25.1568 4.79003 25.7092 5.29105 26.2279 5.82583C25.3659 6.23357 24.4022 6.37605 23.4591 6.2352C21.9529 6.05948 20.4269 6.1747 18.9642 6.57458C19.0326 6.78398 19.0791 6.99992 19.1029 7.21895L19.5229 7.15269C20.8568 7.01014 22.205 7.08231 23.516 7.36645C24.824 7.66422 26.1839 7.64858 27.4847 7.32083C27.6622 7.54582 27.8266 7.77394 27.9847 8.00832C28.7272 9.08873 29.3555 10.2432 29.8597 11.4533C30.3975 12.7259 30.8086 14.0483 31.0872 15.4014C31.3816 16.8252 31.5365 18.2744 31.5497 19.7282C31.5688 21.3067 31.425 22.883 31.1203 24.432" fill="white"/>
<path d="M48.7722 9.1063C48.7972 8.64973 48.6898 8.19568 48.4629 7.79867C48.2361 7.40166 47.8995 7.07856 47.4935 6.86819C47.7849 6.66045 48.0207 6.38428 48.1803 6.06397C48.3398 5.74366 48.4182 5.38904 48.4085 5.03132C48.4085 3.46883 47.4654 2.49634 45.5923 2.49634H41.2798V11.8569H45.8341C47.6404 11.8569 48.7722 10.7813 48.7722 9.1063ZM45.5916 4.11758C45.7328 4.10301 45.8754 4.119 46.0098 4.16445C46.1443 4.20991 46.2673 4.28376 46.3707 4.381C46.474 4.47824 46.5552 4.59658 46.6088 4.72799C46.6623 4.8594 46.687 5.0008 46.681 5.14257C46.6816 5.28362 46.6534 5.4233 46.5981 5.55306C46.5428 5.68281 46.4616 5.79989 46.3594 5.8971C46.2572 5.99432 46.1362 6.06962 46.0039 6.11839C45.8715 6.16716 45.7306 6.18836 45.5898 6.18069H43.056V4.1182L45.5916 4.11758ZM46.9529 9.0388C46.9529 9.95567 46.2791 10.2263 45.5916 10.2263H43.056V7.81193H45.551C46.4541 7.81193 46.9529 8.25693 46.9529 9.0388V9.0388ZM55.6047 4.91382H53.8253V8.9688C53.8322 9.14825 53.8021 9.3272 53.737 9.49456C53.6719 9.66192 53.5731 9.81414 53.4468 9.9418C53.3205 10.0695 53.1693 10.1698 53.0026 10.2367C52.836 10.3036 52.6574 10.3356 52.4778 10.3307C52.2997 10.3396 52.1217 10.3099 51.9561 10.2437C51.7904 10.1774 51.6411 10.0762 51.5182 9.94684C51.3954 9.81751 51.3019 9.66316 51.2442 9.49435C51.1866 9.32554 51.166 9.14627 51.1841 8.9688V4.9132H49.4054V8.9688C49.4054 10.7888 50.4966 12.0163 52.141 12.0163C52.4757 12.0218 52.8075 11.9533 53.1127 11.8158C53.4179 11.6783 53.689 11.475 53.9066 11.2207V11.8544H55.6047V4.91382ZM63.4609 9.08005C63.7171 6.33006 62.019 4.7382 59.9709 4.7382C59.0198 4.75979 58.1148 5.1528 57.4498 5.83313C56.7847 6.51347 56.4123 7.42708 56.4123 8.37849C56.4123 9.3299 56.7847 10.2435 57.4498 10.9238C58.1148 11.6042 59.0198 11.9972 59.9709 12.0188C60.7168 12.0629 61.4555 11.8517 62.0654 11.4201C62.6754 10.9884 63.1201 10.3619 63.3265 9.64379H61.4265C61.2795 9.90036 61.0647 10.1115 60.8056 10.2542C60.5465 10.3968 60.2532 10.4654 59.9578 10.4525C59.5547 10.4561 59.1624 10.3217 58.8462 10.0716C58.5301 9.82145 58.309 9.47069 58.2197 9.07755L63.4609 9.08005ZM58.2434 7.62318C58.3436 7.24536 58.5655 6.9111 58.8749 6.67223C59.1843 6.43336 59.5638 6.3032 59.9547 6.30194C60.3517 6.29062 60.7406 6.41552 61.0568 6.65589C61.3731 6.89625 61.5975 7.2376 61.6928 7.62318H58.2434ZM70.4934 7.79818C70.4934 5.96444 69.4152 4.7357 67.7846 4.7357C67.4413 4.73426 67.1021 4.81001 66.7921 4.95735C66.482 5.1047 66.2091 5.31987 65.9934 5.58694V4.9132H64.2965V11.8569H66.0753V7.79818C66.0673 7.61783 66.0965 7.43778 66.1611 7.2692C66.2257 7.10061 66.3242 6.94709 66.4505 6.81816C66.5769 6.68923 66.7284 6.58764 66.8956 6.5197C67.0629 6.45175 67.2423 6.4189 67.4227 6.42319C67.6023 6.41334 67.7818 6.44284 67.9488 6.50962C68.1158 6.57641 68.2661 6.67887 68.3894 6.80984C68.5126 6.94081 68.6057 7.09712 68.6622 7.26783C68.7187 7.43855 68.7372 7.61956 68.7165 7.79818V11.8563H70.4934V7.79818ZM74.7515 4.7357C74.281 4.74193 73.8166 4.84191 73.3852 5.02978C72.9539 5.21765 72.5643 5.48965 72.2394 5.82986C71.9144 6.17007 71.6606 6.57166 71.4926 7.01115C71.3247 7.45064 71.2461 7.9192 71.2615 8.38943C71.2426 8.86048 71.319 9.3305 71.4863 9.77127C71.6535 10.212 71.9081 10.6145 72.2347 10.9545C72.5613 11.2944 72.9532 11.5649 73.3869 11.7497C73.8206 11.9344 74.2872 12.0297 74.7586 12.0297C75.2301 12.0297 75.6967 11.9344 76.1304 11.7497C76.5641 11.5649 76.956 11.2944 77.2826 10.9545C77.6092 10.6145 77.8638 10.212 78.031 9.77127C78.1982 9.3305 78.2747 8.86048 78.2558 8.38943C78.2694 7.91874 78.1893 7.45004 78.02 7.01063C77.8507 6.57123 77.5957 6.1699 77.2698 5.83002C76.9439 5.49015 76.5536 5.21852 76.1217 5.03097C75.6897 4.84341 75.2248 4.74368 74.754 4.73757L74.7515 4.7357ZM74.7515 10.385C74.5076 10.3722 74.2688 10.3102 74.0495 10.2028C73.8301 10.0954 73.6348 9.94473 73.4751 9.75991C73.3155 9.5751 73.1948 9.35993 73.1204 9.12732C73.046 8.89471 73.0194 8.64946 73.0421 8.4063C73.0421 7.20631 73.8102 6.37006 74.7533 6.37006C75.6964 6.37006 76.4646 7.20631 76.4646 8.4063C76.4876 8.64971 76.4611 8.89526 76.3867 9.12817C76.3124 9.36108 76.1916 9.57653 76.0318 9.76157C75.872 9.9466 75.6764 10.0974 75.4568 10.2049C75.2372 10.3123 74.9981 10.3743 74.754 10.3869L74.7515 10.385ZM84.9308 9.67254C84.9308 8.16255 83.6908 7.78506 81.9658 7.50193C81.1033 7.36693 80.5908 7.24568 80.5908 6.88194C80.5908 6.62569 80.9277 6.32944 81.7495 6.32944C82.4102 6.32944 82.8008 6.58569 82.9083 6.90944H84.7545C84.5251 5.60132 83.3395 4.73882 81.7495 4.73882C79.7414 4.73882 78.7846 5.87132 78.7846 6.96381C78.7846 8.51443 80.442 8.8513 81.682 9.04005C82.8952 9.22755 83.1377 9.39067 83.1377 9.78192C83.1377 10.1863 82.5989 10.4019 81.8845 10.4019C81.5858 10.4226 81.2874 10.3576 81.0244 10.2144C80.7615 10.0713 80.5449 9.85593 80.4002 9.5938H78.5946C78.8102 11.0907 80.1171 12.0207 81.8827 12.0207C83.6614 12.0188 84.9308 11.0482 84.9308 9.67254Z" fill="white"/>
<path d="M46.7536 22.7236L47.3874 24.5985H49.2749L46.0124 15.2405H43.7624L40.498 24.5979H42.3855L43.0193 22.7229L46.7536 22.7236ZM46.1874 21.0654H43.5718L44.8799 17.2223L46.1874 21.0654ZM52.0392 15.2405H50.2592V16.8973H52.0392V15.2405ZM52.0392 17.6542H50.2592V24.5979H52.0392V17.6542ZM59.9142 20.5398C59.9142 18.7061 58.8354 17.4773 57.2042 17.4773C56.8608 17.4755 56.5213 17.5509 56.211 17.6979C55.9006 17.8449 55.6272 18.0598 55.4111 18.3267V17.6542H53.7111V24.5979H55.4923V20.5392C55.4844 20.3588 55.5136 20.1787 55.5782 20.0101C55.6428 19.8414 55.7414 19.6879 55.8678 19.5589C55.9942 19.43 56.1458 19.3284 56.3131 19.2605C56.4804 19.1926 56.6599 19.1598 56.8404 19.1642C57.02 19.1544 57.1996 19.1839 57.3666 19.2507C57.5336 19.3174 57.684 19.4199 57.8072 19.5508C57.9305 19.6818 58.0237 19.8381 58.0803 20.0088C58.1369 20.1795 58.1555 20.3605 58.1348 20.5392V20.8898H59.9148L59.9142 20.5398ZM67.7616 21.8204C68.0179 19.0705 66.3191 17.4786 64.2698 17.4786C63.3186 17.5002 62.4137 17.8932 61.7486 18.5735C61.0835 19.2539 60.7112 20.1675 60.7112 21.1189C60.7112 22.0703 61.0835 22.9839 61.7486 23.6642C62.4137 24.3446 63.3186 24.7376 64.2698 24.7592C65.016 24.8035 65.755 24.5925 66.3652 24.1608C66.9755 23.7291 67.4206 23.1025 67.6273 22.3842H65.7248C65.5775 22.6408 65.3626 22.8519 65.1035 22.9945C64.8443 23.1372 64.5509 23.2058 64.2554 23.1929C63.8521 23.1967 63.4596 23.0624 63.1432 22.8122C62.8268 22.5621 62.6055 22.2112 62.516 21.8179L67.7616 21.8204ZM62.5435 20.3642C62.6438 19.9862 62.866 19.6519 63.1756 19.413C63.4852 19.1741 63.865 19.044 64.256 19.043C64.6527 19.0323 65.0411 19.1575 65.3568 19.3978C65.6726 19.6381 65.8968 19.979 65.9923 20.3642H62.5435ZM74.8672 22.4136C74.8672 20.9036 73.6266 20.5261 71.901 20.2429C71.0379 20.1079 70.526 19.9867 70.526 19.623C70.526 19.3667 70.8629 19.0705 71.6854 19.0705C72.346 19.0705 72.7372 19.3267 72.8447 19.6505H74.6922C74.4628 18.3423 73.2766 17.4798 71.6854 17.4798C69.6766 17.4798 68.7191 18.6123 68.7191 19.7048C68.7191 21.2554 70.3772 21.5923 71.6179 21.7811C72.8316 21.9686 73.0741 22.1317 73.0741 22.5229C73.0741 22.9273 72.5347 23.1429 71.8204 23.1429C71.5217 23.1636 71.2233 23.0985 70.9603 22.9553C70.6974 22.8122 70.4808 22.5969 70.336 22.3348H68.5291C68.7448 23.8317 70.0529 24.7617 71.8191 24.7617C73.5985 24.7598 74.8672 23.7892 74.8672 22.4136Z" fill="white"/>
<path d="M49.6353 34.3718H47.7222C47.5147 34.8171 47.186 35.195 46.7737 35.462C46.3614 35.7291 45.8822 35.8746 45.391 35.8818C43.8547 35.8818 42.641 34.3987 42.641 32.6187C42.641 30.8525 43.8541 29.3687 45.391 29.3687C45.8803 29.3689 46.3595 29.5085 46.7724 29.7711C47.1852 30.0338 47.5147 30.4087 47.7222 30.8519H49.6491C49.395 29.9283 48.8358 29.1179 48.0625 28.5525C47.2893 27.9872 46.3475 27.7001 45.3903 27.7381C42.8435 27.7381 40.8647 29.8819 40.8647 32.6194C40.8647 35.3568 42.846 37.4999 45.3928 37.4999C46.347 37.5237 47.2818 37.2291 48.05 36.6627C48.8181 36.0963 49.3759 35.2903 49.6353 34.3718V34.3718ZM52.1822 27.9813H50.4034V29.6394H52.1822V27.9813ZM52.1822 30.395H50.4034V37.3412H52.1822V30.395ZM59.5265 30.395H57.7478V34.4531C57.7546 34.6325 57.7245 34.8115 57.6594 34.9789C57.5943 35.1462 57.4955 35.2984 57.3692 35.4261C57.2429 35.5537 57.0917 35.6541 56.9251 35.721C56.7584 35.7879 56.5798 35.8199 56.4003 35.815C56.2221 35.8239 56.0441 35.7942 55.8785 35.728C55.7129 35.6617 55.5635 35.5605 55.4406 35.4311C55.3178 35.3018 55.2243 35.1475 55.1667 34.9786C55.109 34.8098 55.0885 34.6306 55.1065 34.4531V30.3944H53.3278V34.4525C53.3278 36.2725 54.419 37.4999 56.0634 37.4999C56.3981 37.5054 56.7299 37.437 57.0351 37.2995C57.3403 37.1619 57.6114 36.9587 57.829 36.7043V37.3412H59.5271L59.5265 30.395ZM67.464 27.3075H65.6852V31.0575C65.1345 30.5306 64.3993 30.2402 63.6371 30.2487C63.1815 30.2677 62.7343 30.3768 62.3211 30.5697C61.908 30.7626 61.5371 31.0355 61.2301 31.3726C60.9231 31.7096 60.6859 32.1042 60.5323 32.5336C60.3787 32.9629 60.3117 33.4184 60.3353 33.8737C60.3127 34.3283 60.3804 34.7828 60.5344 35.2111C60.6885 35.6394 60.9259 36.0328 61.2329 36.3688C61.5399 36.7048 61.9104 36.9767 62.3231 37.1687C62.7357 37.3607 63.1823 37.469 63.6371 37.4874C64.034 37.4924 64.4277 37.4159 64.7939 37.2629C65.1601 37.1098 65.4911 36.8833 65.7665 36.5975V37.3412H67.4646L67.464 27.3075ZM65.6852 33.8868C65.7089 34.1347 65.6806 34.3848 65.602 34.6211C65.5234 34.8574 65.3963 35.0746 65.2288 35.2589C65.0613 35.4431 64.8572 35.5904 64.6295 35.6911C64.4017 35.7919 64.1555 35.8439 63.9065 35.8439C63.6575 35.8439 63.4112 35.7919 63.1835 35.6911C62.9558 35.5904 62.7516 35.4431 62.5842 35.2589C62.4167 35.0746 62.2896 34.8574 62.211 34.6211C62.1324 34.3848 62.104 34.1347 62.1277 33.8868C62.0987 33.636 62.1231 33.3818 62.1992 33.1411C62.2753 32.9003 62.4015 32.6784 62.5695 32.4898C62.7375 32.3013 62.9435 32.1504 63.1739 32.0471C63.4043 31.9438 63.654 31.8904 63.9065 31.8904C64.159 31.8904 64.4087 31.9438 64.6391 32.0471C64.8695 32.1504 65.0755 32.3013 65.2434 32.4898C65.4114 32.6784 65.5376 32.9003 65.6138 33.1411C65.6899 33.3818 65.7143 33.636 65.6852 33.8868V33.8868ZM75.4414 30.395H73.7439V31.1362C73.4694 30.8493 73.1386 30.6221 72.7722 30.4689C72.4057 30.3158 72.0116 30.24 71.6146 30.2462C71.159 30.2652 70.7117 30.3743 70.2986 30.5672C69.8854 30.7601 69.5146 31.033 69.2076 31.3701C68.9005 31.7071 68.6633 32.1017 68.5098 32.5311C68.3562 32.9604 68.2892 33.4159 68.3127 33.8712C68.2899 34.3259 68.3574 34.7807 68.5113 35.2092C68.6653 35.6376 68.9026 36.0314 69.2097 36.3676C69.5167 36.7038 69.8873 36.9758 70.3001 37.1679C70.7129 37.36 71.1596 37.4684 71.6146 37.4868C72.0116 37.4931 72.4057 37.4173 72.7722 37.2641C73.1386 37.111 73.4694 36.8838 73.7439 36.5968V37.3412H75.442L75.4414 30.395ZM73.6627 33.8868C73.6864 34.1347 73.658 34.3848 73.5794 34.6211C73.5008 34.8574 73.3737 35.0746 73.2062 35.2589C73.0388 35.4431 72.8346 35.5904 72.6069 35.6911C72.3792 35.7919 72.1329 35.8439 71.8839 35.8439C71.6349 35.8439 71.3887 35.7919 71.161 35.6911C70.9332 35.5904 70.7291 35.4431 70.5616 35.2589C70.3941 35.0746 70.267 34.8574 70.1884 34.6211C70.1098 34.3848 70.0815 34.1347 70.1052 33.8868C70.0762 33.636 70.1005 33.3818 70.1766 33.1411C70.2528 32.9003 70.379 32.6784 70.547 32.4898C70.7149 32.3013 70.9209 32.1504 71.1513 32.0471C71.3817 31.9438 71.6314 31.8904 71.8839 31.8904C72.1365 31.8904 72.3861 31.9438 72.6165 32.0471C72.847 32.1504 73.0529 32.3013 73.2209 32.4898C73.3889 32.6784 73.5151 32.9003 73.5912 33.1411C73.6674 33.3818 73.6917 33.636 73.6627 33.8868V33.8868ZM83.4057 27.3069H81.627V31.0569C81.0763 30.5299 80.3411 30.2396 79.5789 30.2481C79.1233 30.2671 78.676 30.3762 78.2629 30.5691C77.8497 30.762 77.4789 31.0348 77.1719 31.3719C76.8648 31.709 76.6277 32.1036 76.4741 32.5329C76.3205 32.9622 76.2535 33.4177 76.277 33.8731C76.2544 34.3277 76.3222 34.7822 76.4762 35.2105C76.6303 35.6387 76.8677 36.0322 77.1747 36.3682C77.4817 36.7042 77.8522 36.9761 78.2649 37.1681C78.6775 37.3601 79.1241 37.4684 79.5789 37.4868C79.9758 37.4917 80.3695 37.4153 80.7357 37.2623C81.1019 37.1092 81.4329 36.8827 81.7082 36.5968V37.3412H83.4064L83.4057 27.3069ZM81.627 33.8868C81.6507 34.1347 81.6224 34.3848 81.5438 34.6211C81.4652 34.8574 81.3381 35.0746 81.1706 35.2589C81.0031 35.4431 80.7989 35.5904 80.5712 35.6911C80.3435 35.7919 80.0973 35.8439 79.8483 35.8439C79.5993 35.8439 79.353 35.7919 79.1253 35.6911C78.8976 35.5904 78.6934 35.4431 78.5259 35.2589C78.3585 35.0746 78.2314 34.8574 78.1528 34.6211C78.0742 34.3848 78.0458 34.1347 78.0695 33.8868C78.0405 33.636 78.0648 33.3818 78.141 33.1411C78.2171 32.9003 78.3433 32.6784 78.5113 32.4898C78.6793 32.3013 78.8852 32.1504 79.1157 32.0471C79.3461 31.9438 79.5957 31.8904 79.8483 31.8904C80.1008 31.8904 80.3504 31.9438 80.5809 32.0471C80.8113 32.1504 81.0172 32.3013 81.1852 32.4898C81.3532 32.6784 81.4794 32.9003 81.5555 33.1411C81.6317 33.3818 81.656 33.636 81.627 33.8868V33.8868Z" fill="white"/>
</svg>
