<svg width="228" height="40" viewBox="0 0 228 40" fill="none" xmlns="http://www.w3.org/2000/svg">
<g clip-path="url(#clip0_25788_5497)">
<path d="M47.9451 26.972H41.3972V13.5306H47.5958C50.2869 13.5306 51.6449 14.9243 51.6449 17.1734C51.6449 18.2962 51.1602 19.2087 50.3261 19.8075C51.4703 20.4063 52.1654 21.4935 52.1654 23.0226C52.1654 25.4251 50.54 26.972 47.9451 26.972ZM43.9565 15.8546V18.8166H47.5958C48.469 18.8166 49.1641 18.2178 49.1641 17.3267C49.1641 16.4356 48.5653 15.8546 47.5958 15.8546H43.9565ZM47.5387 21.162H43.9565V24.6302H47.5958C48.5831 24.6302 49.5526 24.2417 49.5526 22.9264C49.5526 21.8036 48.8362 21.1656 47.5387 21.1656V21.162Z" fill="white"/>
<path d="M62.1993 26.972H59.7576V26.0631C59.1374 26.7795 58.2677 27.2073 57.2198 27.2073C54.8566 27.2073 53.2882 25.4429 53.2882 22.8302V17.0023H55.8439V22.8302C55.8439 23.3933 56.0364 24.787 57.7045 24.787C58.8487 24.787 59.64 23.9351 59.64 22.8302V17.0023H62.1957V26.9756L62.1993 26.972Z" fill="white"/>
<path d="M66.1879 22.9834C66.5158 24.2025 67.4854 24.9581 68.6866 24.9581C69.5385 24.9581 70.3726 24.591 70.7967 23.7961H73.5271C72.9461 25.8314 71.1817 27.2037 68.7044 27.2037C65.8956 27.2037 63.593 24.8797 63.593 21.9925C63.593 19.1053 65.8992 16.7457 68.7044 16.7457C71.5096 16.7457 74.0903 19.0305 73.7196 22.9834H66.1844H66.1879ZM71.1852 20.8911C70.8751 19.7291 69.9056 18.9948 68.6866 18.9948C67.4675 18.9948 66.5943 19.7291 66.2271 20.8911H71.1852Z" fill="white"/>
<path d="M84.0242 26.972H81.4685V21.1406C81.4685 20.5596 81.2939 19.1659 79.6079 19.1659C78.4637 19.1659 77.6724 20.0178 77.6724 21.1406V26.972H75.1167V16.9988H77.5583V17.9683C78.1964 17.2126 79.0697 16.7492 80.1354 16.7492C82.4808 16.7492 84.0278 18.5101 84.0278 21.1442V26.9756L84.0242 26.972Z" fill="white"/>
<path d="M95.3733 21.9961C95.3733 24.9795 93.1064 27.2073 90.3368 27.2073C87.5672 27.2073 85.3217 24.9795 85.3217 21.9961C85.3217 19.0127 87.5672 16.7492 90.3368 16.7492C93.1064 16.7492 95.3733 19.0162 95.3733 21.9961ZM92.7963 22.0139C92.7963 20.2887 91.6913 19.0911 90.3368 19.0911C88.9823 19.0911 87.8773 20.2923 87.8773 22.0139C87.8773 23.7355 88.9823 24.8619 90.3368 24.8619C91.6913 24.8619 92.7963 23.6999 92.7963 22.0139Z" fill="white"/>
<path d="M100.777 27.2037C98.2392 27.2037 96.3608 25.867 96.0507 23.7177H98.6456C98.9949 24.5696 100.021 24.8797 100.777 24.8797C101.804 24.8797 102.577 24.5696 102.577 23.9886C102.577 23.4076 102.228 23.1937 100.485 22.9228C98.7026 22.6519 96.3216 22.1672 96.3216 19.9394C96.3216 18.3711 97.6974 16.7457 100.581 16.7457C102.866 16.7457 104.57 17.9861 104.901 19.8645H102.249C102.096 19.4012 101.533 19.0305 100.585 19.0305C99.4048 19.0305 98.92 19.4582 98.92 19.8253C98.92 20.3493 99.6543 20.524 100.895 20.7164C103.376 21.1228 105.154 21.6646 105.154 23.8353C105.154 25.81 103.333 27.2073 100.777 27.2073V27.2037Z" fill="white"/>
<path d="M114.7 24.2809L113.791 26.972H111.078L115.765 13.5306H118.998L123.686 26.972H120.973L120.064 24.2809H114.7V24.2809ZM117.373 16.3785L115.495 21.8963H119.251L117.373 16.3785V16.3785Z" fill="white"/>
<path d="M127.307 15.9152H124.751V13.5341H127.307V15.9152ZM127.307 26.9756H124.751V17.0023H127.307V26.9756Z" fill="white"/>
<path d="M138.268 21.6468H135.712V21.1442C135.712 20.5632 135.537 19.1695 133.851 19.1695C132.707 19.1695 131.916 20.0214 131.916 21.1442V26.9756H129.36V17.0023H131.802V17.9718C132.44 17.2162 133.313 16.7528 134.379 16.7528C136.724 16.7528 138.271 18.5136 138.271 21.1477V21.6503L138.268 21.6468Z" fill="white"/>
<path d="M141.657 22.9834C141.985 24.2025 142.955 24.9581 144.156 24.9581C145.008 24.9581 145.842 24.591 146.266 23.7961H148.997C148.416 25.8314 146.651 27.2037 144.174 27.2037C141.365 27.2037 139.062 24.8797 139.062 21.9925C139.062 19.1053 141.369 16.7457 144.174 16.7457C146.979 16.7457 149.56 19.0305 149.189 22.9834H141.654H141.657ZM146.655 20.8911C146.345 19.7291 145.375 18.9948 144.156 18.9948C142.937 18.9948 142.064 19.7291 141.697 20.8911H146.655V20.8911Z" fill="white"/>
<path d="M154.671 27.2037C152.133 27.2037 150.255 25.867 149.945 23.7177H152.54C152.889 24.5696 153.916 24.8797 154.671 24.8797C155.698 24.8797 156.471 24.5696 156.471 23.9886C156.471 23.4076 156.122 23.1937 154.379 22.9228C152.597 22.6519 150.216 22.1672 150.216 19.9394C150.216 18.3711 151.592 16.7457 154.475 16.7457C156.76 16.7457 158.464 17.9861 158.795 19.8645H156.143C155.99 19.4012 155.427 19.0305 154.479 19.0305C153.299 19.0305 152.814 19.4582 152.814 19.8253C152.814 20.3493 153.548 20.524 154.789 20.7164C157.27 21.1228 159.048 21.6646 159.048 23.8353C159.048 25.81 157.227 27.2073 154.671 27.2073V27.2037Z" fill="white"/>
<path d="M171.948 27.2037C168.287 27.2037 165.439 24.124 165.439 20.1925C165.439 16.2609 168.287 13.1813 171.948 13.1813C174.988 13.1813 177.234 14.9064 178.068 17.6546H175.299C174.7 16.4356 173.498 15.5231 171.948 15.5231C169.742 15.5231 167.999 17.6546 167.999 20.1925C167.999 22.7304 169.742 24.8797 171.948 24.8797C173.477 24.8797 174.7 23.9316 175.299 22.709H178.05C177.198 25.4393 174.931 27.2037 171.948 27.2037V27.2037Z" fill="white"/>
<path d="M181.9 15.9152H179.344V13.5341H181.9V15.9152ZM181.9 26.9756H179.344V17.0023H181.9V26.9756Z" fill="white"/>
<path d="M192.668 26.972H190.226V26.0631C189.606 26.7795 188.736 27.2073 187.688 27.2073C185.325 27.2073 183.757 25.4429 183.757 22.8302V17.0023H186.313V22.8302C186.313 23.3933 186.505 24.787 188.173 24.787C189.317 24.787 190.109 23.9351 190.109 22.8302V17.0023H192.664V26.9756L192.668 26.972Z" fill="white"/>
<path d="M204.309 26.972H201.868V25.9063C201.073 26.7189 200.028 27.1859 198.809 27.1859C196.215 27.1859 194.065 24.9403 194.065 21.9961C194.065 19.0519 196.215 16.7849 198.809 16.7849C199.971 16.7849 200.98 17.2126 201.754 17.9469V12.561H204.309V26.972V26.972ZM199.198 19.1481C197.783 19.1481 196.642 20.3885 196.642 22.0139C196.642 23.6393 197.786 24.8227 199.198 24.8227C200.609 24.8227 201.754 23.5644 201.754 22.0139C201.754 20.4634 200.609 19.1481 199.198 19.1481Z" fill="white"/>
<path d="M216.004 26.972H213.563V25.9063C212.789 26.7189 211.723 27.1859 210.504 27.1859C207.909 27.1859 205.76 24.9403 205.76 21.9961C205.76 19.0519 207.909 16.7849 210.504 16.7849C211.723 16.7849 212.789 17.2483 213.563 18.0645V16.9988H216.004V26.972ZM210.893 19.1481C209.478 19.1481 208.337 20.3885 208.337 22.0139C208.337 23.6393 209.481 24.8227 210.893 24.8227C212.304 24.8227 213.448 23.5644 213.448 22.0139C213.448 20.4634 212.304 19.1481 210.893 19.1481Z" fill="white"/>
<path d="M227.624 26.972H225.183V25.9063C224.388 26.7189 223.343 27.1859 222.124 27.1859C219.529 27.1859 217.38 24.9403 217.38 21.9961C217.38 19.0519 219.529 16.7849 222.124 16.7849C223.286 16.7849 224.295 17.2126 225.069 17.9469V12.561H227.624V26.972V26.972ZM222.513 19.1481C221.098 19.1481 219.957 20.3885 219.957 22.0139C219.957 23.6393 221.101 24.8227 222.513 24.8227C223.924 24.8227 225.069 23.5644 225.069 22.0139C225.069 20.4634 223.924 19.1481 222.513 19.1481Z" fill="white"/>
<path d="M26.0666 9.40295H26.0381C25.0472 9.36375 24.0991 9.00374 23.1866 8.65799C22.8123 8.51898 22.4345 8.37283 22.0531 8.25521C21.301 8.01639 20.6345 7.88807 20.0071 7.85599C19.8432 7.84886 19.6899 7.84174 19.5295 7.84174C19.1089 7.84174 18.5136 7.88094 18.1465 8.24452C18.0396 7.77401 17.9148 7.25361 17.7223 6.75459C17.537 6.28408 17.2554 5.72447 16.7564 5.57476C16.6708 5.54624 16.5924 5.53912 16.5069 5.53912C16.0114 5.53912 15.6336 5.98823 15.4482 6.252L15.3627 6.37319C15.1452 6.68686 15.0383 6.84013 15.0704 6.98984C15.1096 7.13954 15.2843 7.25004 15.6906 7.48529C15.8653 7.5851 15.8973 7.83817 15.9223 8.02709V8.04847C15.9579 8.33363 15.9793 8.60809 15.9758 8.86829C15.3983 8.2766 14.5215 8.04491 13.723 7.8952C13.5092 7.85599 13.2882 7.83104 13.0601 7.83104C12.1476 7.83104 11.2529 8.17679 10.6576 8.42987C10.3226 8.57601 9.98396 8.73641 9.66316 8.89324C9.03582 9.18909 8.39066 9.50276 7.72054 9.70593C7.51381 9.77009 7.29994 9.81999 7.03261 9.86633H7.01835C7.01835 9.86633 7.01479 9.86989 7.00409 9.86989H6.98627C6.8829 9.89128 6.71181 9.94831 6.6726 10.1051C6.64052 10.262 6.66191 10.3653 6.87578 10.5329C7.3641 10.8109 7.96649 10.9464 8.6972 10.9464C8.8469 10.9464 9.00374 10.9428 9.17127 10.9285C9.39226 10.9178 9.61326 10.8893 9.84851 10.8572C10.1907 10.8145 10.5329 10.7717 10.8644 10.7717C11.0925 10.7717 11.2957 10.7931 11.4775 10.8359C12.0228 10.9642 12.3436 11.5024 12.6288 11.9836C12.7036 12.1048 12.7678 12.2153 12.8355 12.3187L12.8426 12.3293C12.9709 12.5254 13.1919 12.8604 13.1777 13.11C13.167 13.3523 12.8319 13.5519 12.5896 13.7017C12.5254 13.7444 12.4612 13.7801 12.4149 13.8086C12.34 13.8621 12.2438 13.9226 12.1547 13.9868C11.6093 14.3326 10.8572 14.8066 10.9464 15.4482C10.982 15.7619 11.2493 16.0185 11.5701 16.0542C11.5951 16.0613 11.6272 16.0613 11.6592 16.0613C11.8838 16.0613 12.0905 15.9544 12.2866 15.8581C12.3721 15.8118 12.4577 15.7655 12.5396 15.7334C12.7999 15.6264 13.0636 15.573 13.3203 15.573C13.7622 15.573 14.19 15.7191 14.5821 16.015C14.7104 16.1112 14.8244 16.2288 14.9385 16.3393C15.0597 16.4641 15.188 16.5924 15.3306 16.6886C15.4411 16.7742 15.655 16.8597 15.8367 16.8597C16.0185 16.8597 16.1362 16.7742 16.1682 16.6138C16.2324 16.2966 16.2288 15.9615 16.2288 15.6407C16.2253 15.3841 16.2253 15.1167 16.2573 14.8637C16.2787 14.7068 16.3215 14.3931 16.5211 14.2933C16.5853 14.2613 16.6673 14.247 16.7564 14.247C16.8562 14.247 16.9667 14.2648 17.07 14.2791C17.2126 14.304 17.3659 14.3254 17.4906 14.3076C18.0681 14.2292 18.5493 13.7587 18.7738 13.0422C18.8843 12.8034 19.0126 12.7 19.255 12.6359C19.5437 12.5682 19.7255 12.3293 19.9038 12.1012C19.9465 12.0442 19.9929 11.9872 20.0356 11.9337C20.4028 11.5024 20.8412 11.3135 21.465 11.3135C21.5755 11.3135 21.7038 11.3206 21.8428 11.3313C21.9676 11.3456 22.0994 11.3598 22.2242 11.3741C22.5557 11.4097 22.8765 11.4489 23.2008 11.4489C23.5537 11.4489 23.8638 11.4026 24.1526 11.3064C24.9011 11.0568 25.5641 10.5721 26.1665 10.0802L26.2556 10.0089C26.4267 9.86633 26.4694 9.77365 26.4195 9.61325C26.3768 9.44929 26.1629 9.41008 26.0809 9.40295M13.1634 11.6307C13.0173 11.3848 12.864 11.1281 12.6751 10.9071C12.2367 10.376 11.6628 10.1408 10.7931 10.1408C10.4366 10.1408 10.0517 10.1836 9.68098 10.2228C9.32097 10.262 8.94314 10.3012 8.5867 10.3012C8.40135 10.3012 8.23026 10.2905 8.07342 10.2691C8.6972 10.0624 9.29602 9.77365 9.87702 9.49563C10.4972 9.19622 11.146 8.88611 11.8161 8.67938C12.2295 8.54749 12.6644 8.48333 13.1064 8.48333C13.912 8.48333 14.6534 8.6972 15.2593 9.09641C15.7619 9.42791 15.908 9.78078 15.7405 10.2762C15.5587 10.8002 15.245 11.3171 14.8066 11.8161C14.7745 11.8446 14.746 11.8874 14.7068 11.9266C14.5179 12.1547 14.2007 12.5325 13.9298 12.5325C13.8478 12.5325 13.7765 12.5004 13.7123 12.4256C13.4949 12.1868 13.3238 11.9052 13.1599 11.6307M18.2285 12.3686C18.1643 12.807 17.9932 13.1812 17.7259 13.4272C17.4906 13.6411 17.2304 13.6874 16.8847 13.6874H16.71C16.6459 13.6874 16.5853 13.6838 16.514 13.6838C16.2966 13.6838 16.1148 13.7551 15.9722 13.9013C15.5552 14.3219 15.5623 15.2486 15.5694 15.8581V16.0577L15.5266 16.0185C14.9991 15.5338 14.5108 15.0668 13.7658 14.9563C13.6518 14.9349 13.5306 14.9278 13.4094 14.9278C13.1848 14.9278 12.946 14.9563 12.7072 15.0134C12.4933 15.0633 12.3151 15.1452 12.1262 15.2344C12.0513 15.2629 11.9836 15.2985 11.9052 15.3306C11.8125 15.3662 11.6949 15.4054 11.6236 15.4054C11.6022 15.4054 11.5879 15.4019 11.5773 15.3948C11.5773 15.3841 11.5773 15.3698 11.5773 15.352C11.645 15.1025 11.9194 14.9207 12.1333 14.7781L12.1903 14.7389C12.7393 14.3682 13.2597 13.9939 13.7694 13.5983C14.7033 12.8747 15.7262 11.9658 16.2431 10.736C16.5318 10.0446 16.6566 9.25325 16.5995 8.43699V8.39066C16.5781 8.05917 16.5568 7.70985 16.4177 7.40688C16.3072 7.15024 16.1112 7.03261 15.9009 6.91142C15.8581 6.88647 15.8225 6.86152 15.7833 6.84013C15.8831 6.65478 16.1575 6.17002 16.4712 6.17002C16.5924 6.17002 16.7136 6.24487 16.8205 6.39458C17.1912 6.90429 17.3623 7.51381 17.512 8.05204C17.537 8.14471 17.5655 8.24452 17.594 8.35145C17.8899 9.39226 18.3817 11.1317 18.2249 12.365M24.6052 10.3939C24.0955 10.6826 23.6428 10.8216 23.208 10.8216H23.1688C22.8872 10.8145 22.602 10.7753 22.324 10.7396C22.0887 10.7075 21.8428 10.679 21.604 10.6648C21.0087 10.6362 20.5418 10.736 20.1711 10.957C19.9144 11.1103 19.7327 11.3277 19.5616 11.5452C19.4404 11.6984 19.3049 11.8588 19.1445 11.9872C19.1018 12.0228 19.0412 12.0691 18.9806 12.0691H18.977C18.9057 12.0656 18.9022 12.0228 18.9057 11.923V11.8588C18.895 11.6343 18.8629 11.4097 18.8309 11.1959L18.813 11.0747C18.7596 10.7004 18.7061 10.2976 18.6099 9.90554C18.5992 9.83781 18.5742 9.7594 18.5421 9.67029C18.4352 9.3281 18.2998 8.89681 18.5671 8.67938C18.7275 8.54393 19.0055 8.51898 19.1944 8.50472C19.1944 8.50472 19.3976 8.48333 19.6293 8.48333H19.7148C19.9644 8.48333 20.2246 8.50115 20.4776 8.53323C20.9553 8.59383 21.4507 8.71858 22.0495 8.91819C22.3739 9.02513 22.6947 9.14632 23.0119 9.26394C23.7391 9.53484 24.4947 9.81643 25.2753 9.95188C25.0258 10.1337 24.8084 10.2762 24.6017 10.3939" fill="white"/>
<path d="M32.6965 16.2003C32.4826 14.8138 32.1369 13.4521 31.6771 12.1333C31.228 10.8679 30.6683 9.64177 29.9911 8.4762C29.4671 7.57797 28.879 6.71894 28.216 5.90982C27.3748 4.8797 26.4195 3.93513 25.3609 3.12244C24.3344 2.324 23.2151 1.65389 22.021 1.14061C20.8376 0.634466 19.5758 0.285152 18.2926 0.11406C16.9916 -0.0570328 15.6621 -0.0392107 14.3611 0.163962C13.085 0.360005 11.841 0.744963 10.6648 1.27963C9.48495 1.82498 8.37285 2.52361 7.36411 3.3363C6.33399 4.17038 5.39299 5.12921 4.57673 6.17358C3.76761 7.20014 3.06542 8.30511 2.47016 9.46711C1.84995 10.679 1.35093 11.948 0.965968 13.249C0.566753 14.607 0.292292 16.0078 0.142586 17.4158C-0.014249 18.8808 -0.0320712 20.3636 0.0748617 21.8321C0.185359 23.2579 0.417047 24.6765 0.773489 26.056C1.12637 27.3784 1.58974 28.6758 2.17074 29.9091C2.73392 31.0996 3.40404 32.2367 4.17752 33.2953C5.0508 34.4823 7.27144 36.5888 7.2857 36.5888C9.90911 38.7311 13.0815 39.9964 16.5069 39.9964H16.5104C17.815 39.9964 19.116 39.8146 20.3707 39.4475C21.6147 39.0875 22.7981 38.5493 23.8995 37.8863C25.0258 37.2019 26.056 36.3785 26.9898 35.4482C27.9166 34.5215 28.7435 33.4878 29.46 32.3864C30.1871 31.2743 30.8038 30.0909 31.3028 28.8612C31.8232 27.5815 32.2224 26.2484 32.504 24.8904C32.7999 23.4717 32.9603 22.0282 32.9959 20.581C33.028 19.116 32.9353 17.651 32.7001 16.2039M3.48958 25.7601H3.06898L3.44681 24.3308C3.48245 24.2238 3.50384 24.2274 3.51453 24.2737C3.5074 24.787 3.50028 25.2896 3.48958 25.7601ZM3.69632 21.8642L2.84799 21.4757C2.80165 21.4543 2.80521 21.44 2.85868 21.44H4.66941C4.72287 21.44 4.72644 21.4578 4.67654 21.4757L3.86385 21.8642C3.81751 21.8856 3.73909 21.8856 3.69275 21.8642M2.63412 21.0658L3.57869 20.3956C3.57513 20.6166 3.568 20.8376 3.56444 21.0658H2.63412V21.0658ZM2.94779 18.7988H4.56604C4.60881 18.7988 4.61238 18.8166 4.57317 18.8344L3.84959 19.173C3.80325 19.1944 3.73196 19.1944 3.69275 19.1802L2.94066 18.8344C2.89789 18.813 2.90145 18.8023 2.94422 18.8023M2.74462 18.4709L3.61434 17.9005C3.61077 18.0788 3.60721 18.2748 3.60008 18.4709H2.74105H2.74462ZM3.92444 17.9077L4.7799 18.4709H3.92801C3.92801 18.2784 3.92088 18.093 3.92088 17.9077M3.96009 20.3992L4.91179 21.0693H3.97078C3.96365 20.8448 3.96009 20.6166 3.96009 20.3992ZM4.04563 25.7601C4.0385 25.2896 4.02781 24.787 4.02068 24.2773C4.02781 24.2417 4.05276 24.2167 4.08484 24.3165L4.46623 25.7601H4.04563ZM16.489 38.5528C13.9726 38.5528 11.6022 37.7972 9.5099 36.4391C11.1317 36.4284 12.7428 36.6459 14.3397 36.8811C15.9437 37.1199 17.5548 37.3908 19.1695 37.5512C19.7897 37.6154 20.417 37.6617 21.0373 37.6867C19.6008 38.2499 18.0752 38.5493 16.489 38.5493M23.8638 36.1718C22.2741 36.3393 20.663 36.2609 19.0733 36.0863C17.4835 35.9187 15.9009 35.6443 14.3219 35.4161C12.6894 35.1809 11.0497 34.9777 9.40297 34.9884C8.84335 34.9955 8.28374 35.0205 7.72769 35.0775C7.20371 34.6141 6.70826 34.108 6.23063 33.5698C7.88452 33.3274 9.57049 33.331 11.2315 33.4521C12.9032 33.5733 14.5607 33.8193 16.2182 34.0617C17.0522 34.1864 17.8827 34.3112 18.7132 34.4217C19.1339 34.4751 20.7806 34.6035 21.1834 34.6035C22.8444 34.6035 24.5161 34.4751 26.1629 34.2114C25.45 34.9492 24.6801 35.6051 23.8638 36.1754M27.6528 32.4434C26.056 32.8284 24.4199 33.0351 22.7838 33.1171C21.964 33.1599 21.1406 33.1812 20.3208 33.1385C19.4939 33.1028 18.6669 32.9674 17.8507 32.8462C16.2003 32.6109 14.55 32.3472 12.8925 32.1583C11.2386 31.9765 9.57406 31.8731 7.90947 31.9551C7.00411 32.0014 6.09874 32.1048 5.2112 32.2759C4.90466 31.8517 4.61594 31.4097 4.34504 30.9464C5.81359 30.6434 7.29995 30.4509 8.80058 30.3974C10.3155 30.344 11.8303 30.4473 13.331 30.6398C14.7853 30.8287 16.2253 31.0996 17.676 31.2957C19.0091 31.4739 20.3422 31.5915 21.6789 31.5915H21.6895C23.0797 31.5915 24.4734 31.4703 25.8457 31.2458C26.8508 31.0818 27.8453 30.8751 28.8291 30.622C28.4691 31.2565 28.0734 31.8624 27.6528 32.4363M5.49992 27.3356C4.80486 26.8758 4.71218 26.1272 4.75495 25.9847L6.9043 20.9161C6.95064 20.8269 6.97203 20.8555 6.96133 20.9161L5.49992 27.3356V27.3356ZM6.92925 22.5521C6.89717 24.8262 6.86509 26.9399 6.8544 27.9522C6.46588 27.8382 6.07379 27.7205 5.7423 27.4817L6.88292 22.4559C6.91143 22.4095 6.92569 22.4808 6.93282 22.5521M6.36251 18.1073H7.97719C8.01997 18.1073 8.02353 18.1251 7.98076 18.1429L7.25362 18.4887C7.21797 18.5101 7.14668 18.5101 7.10391 18.4922L6.34825 18.1429C6.30548 18.1251 6.30548 18.1073 6.35895 18.1073M6.15577 17.7794L7.00767 17.2162C7.00054 17.398 7.00054 17.5869 6.99698 17.7794H6.15221H6.15577ZM7.34629 17.2269L8.1875 17.7794H7.35342C7.35342 17.5904 7.34629 17.4051 7.34629 17.2269ZM9.07504 24.6658C9.04296 25.7565 9.01801 26.8401 9.00019 27.6813C8.99662 27.6885 8.98593 27.6956 8.97523 27.6956L8.25879 24.5625L8.64018 23.6464L9.0786 24.6623L9.07504 24.6658ZM8.78276 23.3042L9.06791 22.627C9.09643 22.5842 9.11425 22.5985 9.12138 22.6305C9.11425 23.069 9.09999 23.5395 9.0893 24.0171L8.78276 23.3042ZM8.06631 24.9938L8.76137 27.8417C8.51899 27.9451 8.21601 27.9986 7.94868 28.0378C7.856 28.0485 7.76333 28.0556 7.66709 28.0627C7.61362 28.0699 7.54946 28.0734 7.49243 28.0699C7.49243 27.6885 7.48174 27.1075 7.47461 26.3981L8.06631 24.9973V24.9938ZM7.46392 25.7245C7.45322 24.7835 7.43897 23.6785 7.41758 22.5379C7.42827 22.4452 7.44966 22.3775 7.49243 22.5165L7.96294 24.5411L7.46392 25.7245V25.7245ZM8.14472 24.1169L7.40689 20.9196C7.39976 20.8555 7.41402 20.8269 7.46035 20.9161L8.48691 23.3042L8.14472 24.1169V24.1169ZM9.55624 25.1114V24.6444C9.53485 23.8139 9.51346 23.4254 9.49921 22.6555C9.50277 22.602 9.52059 22.5664 9.56337 22.627L10.8466 25.8314C10.6363 26.2484 10.597 26.3981 10.2727 26.7368L9.5598 25.1114H9.55624ZM10.0624 26.9435C9.93763 27.0896 9.75941 27.2322 9.61683 27.3463C9.60257 26.9114 9.58832 26.3447 9.57762 25.835L10.0624 26.9435ZM11.367 25.7173L12.8355 22.5628C12.8106 23.4682 12.7785 24.7621 12.7535 25.7173H12.1511C11.9337 25.7173 11.5844 25.7316 11.367 25.7173M21.8749 21.6788H23.9957C24.0528 21.6788 24.0599 21.6931 24.0242 21.718C24.0171 21.7252 23.0547 22.1779 23.0547 22.1779C22.9906 22.2099 22.9086 22.2064 22.8587 22.1814L21.8642 21.7252C21.8072 21.7002 21.8107 21.6824 21.8749 21.6824M21.6325 21.2582L22.7411 20.4634C22.7411 20.6986 22.7304 21.2297 22.7304 21.2582H21.6325ZM22.0353 18.1322C22.0353 18.1322 22.0602 18.1251 22.0709 18.1251H23.8425C23.8603 18.1251 23.871 18.1251 23.8745 18.1322C23.8745 18.1322 23.8817 18.1501 23.8496 18.1643L23.0547 18.5386C23.0119 18.56 22.9335 18.56 22.8908 18.5421L22.0638 18.1643C22.0353 18.1501 22.0282 18.1394 22.0353 18.1322M21.8464 17.7508L22.7945 17.0736C22.791 17.2946 22.791 17.5192 22.7874 17.7508H21.8499H21.8464ZM23.1224 17.0843L24.0777 17.7508H23.1403C23.1367 17.5227 23.1331 17.3017 23.1224 17.0843M23.1723 20.4669L24.2773 21.2618H23.1902C23.183 21.0016 23.1759 20.7271 23.1723 20.4669ZM26.3839 19.615H28.1982C28.2481 19.615 28.2552 19.6293 28.2053 19.6507L27.3891 20.0428C27.3427 20.0642 27.2679 20.0642 27.2215 20.0428L26.3768 19.6507C26.3304 19.6257 26.3304 19.615 26.3839 19.615M26.1558 19.2443L27.1075 18.5707C27.1003 18.7988 27.1003 19.0162 27.0968 19.2443H26.1558ZM27.4782 18.5707L28.4406 19.2443H27.4889C27.4889 19.0198 27.4817 18.7952 27.4782 18.5707ZM27.0647 22.4701C27.0326 24.6658 26.9934 27.029 26.972 28.6865C26.4374 28.8719 25.974 28.9182 25.5712 28.8861L26.473 24.8583L27.0041 22.4844C27.0291 22.4274 27.054 22.3989 27.0683 22.4701M26.9435 21.5291L25.3716 28.5083L24.6872 26.6334L24.6944 26.6227L26.8473 21.4578C26.9079 21.358 26.972 21.2868 26.9471 21.5327M25.2076 28.8291C24.7122 28.7186 24.3237 28.4798 24.0242 28.2196L24.5375 26.9934L25.2076 28.8255V28.8291ZM23.8282 28.0235C23.5217 27.6992 23.3506 27.3819 23.2793 27.2465C23.2686 26.1878 23.2436 24.6088 23.2151 22.9228L24.4128 26.6084L23.8246 28.0235H23.8282ZM21.2333 27.1716H18.6348L22.5058 22.8052L21.2369 27.1716H21.2333ZM22.7161 22.9193C22.7018 23.903 22.6662 27.054 22.6662 27.1716H21.5078L22.7161 22.9193ZM27.5388 22.4701C27.5352 22.3989 27.5708 22.4202 27.5958 22.4844L28.6794 27.1716C28.4441 27.7241 27.9665 28.1305 27.6172 28.3621C27.6065 27.5102 27.5423 22.488 27.5388 22.4701M28.9574 27.1431L27.635 21.5826C27.5958 21.244 27.6778 21.3652 27.7491 21.4899L30.1729 27.1395H28.9574V27.1431ZM31.1246 24.4306C30.9464 25.3217 30.7111 26.1914 30.426 27.0504L27.5209 20.1604L28.797 19.5901C28.9289 19.5259 28.9289 19.337 28.797 19.2657C28.797 19.2657 27.5459 18.3782 27.4746 18.3283L27.4461 16.2146C27.5994 16.1932 27.7491 16.1255 27.8988 16.0969C28.0699 16.0756 28.2303 16.1041 28.3942 16.1326C28.5439 16.1575 28.7008 16.1718 28.8469 16.129C28.9895 16.0898 29.1142 16.0114 29.2212 15.9223C28.8933 15.9152 28.6259 15.7049 28.3336 15.573C28.1875 15.5017 28.0271 15.4625 27.8631 15.4447C27.7063 15.4268 27.5174 15.4161 27.3641 15.4625C27.3463 15.3413 27.332 15.213 27.3106 15.074H27.2429C27.1431 15.655 27.1467 16.2859 27.1431 16.8704C27.1431 17.2803 27.136 17.6938 27.1324 18.1073C27.1324 18.1786 27.1324 18.2499 27.1253 18.3283L25.8136 19.2657C25.6853 19.3299 25.6817 19.5188 25.8136 19.5865L27.0504 20.1604L24.5518 26.2413L23.2615 22.3276L24.6872 21.6575C24.8334 21.5826 24.8405 21.3652 24.6944 21.2832C24.6944 21.2832 23.347 20.3422 23.1723 20.2139C23.1652 19.7184 23.1545 19.1837 23.151 18.7204L24.452 18.1073C24.5803 18.0396 24.591 17.8506 24.4591 17.7794C24.4591 17.7794 23.29 16.9524 23.1189 16.8312C23.1082 15.8688 23.1046 14.91 23.0868 13.9583C23.1581 13.9583 23.2329 13.9298 23.3078 13.912C23.3898 13.887 23.4682 13.8621 23.5537 13.8442C23.7213 13.8157 23.8852 13.8442 24.0492 13.8692C24.2096 13.8977 24.3664 13.912 24.5233 13.8692C24.6658 13.83 24.787 13.7516 24.9011 13.6624C24.5732 13.6553 24.3023 13.445 24.01 13.3131C23.8638 13.2454 23.6999 13.2026 23.543 13.1848C23.3826 13.167 23.1973 13.1563 23.044 13.2026C23.0298 13.0814 23.0119 12.9531 22.987 12.8105H22.9264C22.8337 13.3452 22.8302 13.8799 22.823 14.4145C22.8195 14.9029 22.8195 15.3876 22.8088 15.876C22.8052 16.1932 22.7981 16.514 22.7945 16.8277L21.4686 17.7722C21.3367 17.84 21.3367 18.0324 21.4686 18.1002L22.766 18.7132C22.766 19.1766 22.7553 19.722 22.7482 20.2103L21.2333 21.2761C21.08 21.3545 21.08 21.5755 21.2333 21.6468L22.627 22.3169L18.2606 27.1645C18.1786 27.1645 17.6332 27.1716 17.5584 27.2714C17.4443 27.3605 17.4407 27.4996 17.4907 27.6172C17.5512 27.7776 17.6867 27.8845 17.8328 27.9701C17.9041 28.0128 17.9861 28.052 18.0681 28.0841C18.0788 28.0877 18.0859 28.0984 18.093 28.1055C18.093 28.1055 18.4887 29.4101 20.1711 30.0196H20.164C20.164 30.0196 20.2103 30.0374 20.1996 30.0695C20.196 30.0802 20.1925 30.0838 20.1889 30.0873C20.1782 30.0945 20.1568 30.0945 20.1461 30.1016C18.535 30.0018 16.9524 29.738 15.3663 29.4921C14.7567 29.3923 14.1543 29.3032 13.5484 29.2212C13.1349 29.1677 12.725 29.1178 12.3187 29.0465C12.2795 29.0323 12.2581 29.018 12.2509 29.0037V28.993V28.9824V28.9788C12.2509 28.9645 12.2652 28.9574 12.2723 28.9467C12.2795 28.9396 12.2866 28.936 12.2866 28.936C14.5215 28.2695 14.9884 26.6441 14.9884 26.6441C15.0169 26.6298 15.0455 26.612 15.0704 26.5978C15.1346 26.5692 15.1952 26.5443 15.2486 26.5122C15.3912 26.4267 15.5302 26.3162 15.5908 26.1629C15.6407 26.0417 15.6336 25.9063 15.5231 25.8171C15.4411 25.7066 14.8066 25.7102 14.8066 25.7102H14.8031L14.6961 25.7138C14.689 25.368 14.6854 24.4627 14.6605 23.8781C14.7247 23.9066 14.8066 23.8817 14.8672 23.8674C14.9528 23.8424 15.0348 23.8139 15.1203 23.7961C15.295 23.7533 15.4589 23.764 15.6336 23.7961C15.8011 23.8246 15.9651 23.8496 16.1362 23.8104C16.2859 23.7783 16.4178 23.6927 16.5354 23.5965C16.2003 23.5858 15.9223 23.3648 15.6265 23.2365C15.4696 23.1688 15.3021 23.1296 15.1346 23.1153C14.9706 23.101 14.771 23.0868 14.6249 23.1581C14.6106 23.0155 14.5999 22.8979 14.5892 22.8088H14.525C14.4395 23.3078 14.4395 25.0437 14.4324 25.7138H13.3096C13.2775 24.4947 13.2205 22.8622 13.192 21.8179L14.165 19.7362C14.3005 19.7933 14.4502 19.804 14.5856 19.8574C14.7425 19.9073 14.8601 20 14.9849 20.0998C15.1025 20.196 15.2237 20.2923 15.3663 20.3422C15.5267 20.3885 15.6942 20.385 15.851 20.3564C15.5766 20.1925 15.4447 19.8859 15.27 19.6329C15.1773 19.501 15.0561 19.3905 14.9314 19.2942C14.7959 19.1909 14.6355 19.0911 14.4716 19.0519C14.5108 18.9378 14.5571 18.781 14.5643 18.7097C14.5607 18.699 14.5643 18.6776 14.5357 18.6633C14.5286 18.6633 14.5215 18.6598 14.5144 18.6598C14.4716 18.6669 14.4609 18.6919 14.4324 18.7275C14.3433 18.8344 14.2256 19.0412 14.2078 19.0768L13.1741 21.301C13.1599 20.9517 13.1563 20.5988 13.1492 20.2495C13.1492 19.8075 13.1278 19.3691 13.0565 18.9342H12.9923C12.9032 19.4653 12.8997 19.9964 12.8925 20.5347C12.8854 21.0123 12.8712 21.5006 12.8569 21.9818L11.0711 25.6781L9.47425 21.7573C9.46 21.2689 9.4493 20.7913 9.44217 20.2994C9.43505 19.7469 9.43505 19.198 9.33881 18.6526H9.27821C9.18554 19.1909 9.18554 19.7327 9.17484 20.2745C9.17484 20.7663 9.15702 21.2618 9.14989 21.7501L8.63661 22.962L7.3855 20.0499C7.37837 19.5651 7.37124 19.0875 7.36411 18.6277L8.50473 18.0895C8.61879 18.036 8.62236 17.8649 8.50473 17.8043C8.50473 17.8043 7.5459 17.1092 7.34273 16.9667C7.32847 15.9686 7.32134 14.9599 7.30708 13.9583C7.38194 13.9583 7.44966 13.9298 7.52095 13.912C7.59937 13.887 7.68491 13.8621 7.77046 13.8442C7.94155 13.8157 8.09839 13.8442 8.26591 13.8692C8.42275 13.8977 8.58671 13.912 8.73998 13.8692C8.879 13.83 9.00375 13.7516 9.11781 13.6624C8.79701 13.6553 8.52968 13.4557 8.24809 13.3203C8.10195 13.2525 7.94512 13.2062 7.78472 13.1919C7.62432 13.1706 7.43184 13.1563 7.26787 13.2062C7.25718 13.0743 7.23936 12.9424 7.21797 12.8105H7.15381C7.03975 13.4521 7.05401 14.0973 7.05044 14.7425C7.04332 15.3698 7.03262 15.9936 7.02549 16.6174C7.02549 16.735 7.02549 16.849 7.01836 16.9631L5.85636 17.7972C5.7423 17.8542 5.73874 18.0253 5.85636 18.0859L6.99341 18.6241C6.98628 19.1445 6.97203 19.9893 6.97203 20.0463L4.65515 25.4928L4.31296 24.2417H4.76208C4.82981 24.2417 4.89753 24.2167 4.95456 24.1918C4.99733 24.1811 5.10427 24.1454 5.10427 24.0813C5.10427 24.0278 5.01159 23.9922 4.97238 23.9743C4.90466 23.9529 4.83337 23.9316 4.76208 23.9316H4.23098L4.00286 23.0654C3.9993 22.7161 3.99217 22.3525 3.98504 22.0068L5.26467 21.4079C5.39299 21.3402 5.39655 21.1549 5.2718 21.0871C5.2718 21.0871 4.04207 20.2174 3.95296 20.1604C3.95296 19.9038 3.94939 19.5544 3.9387 19.3156L5.09357 18.7703C5.2112 18.7168 5.2112 18.5421 5.09714 18.4815C5.09714 18.4815 4.07415 17.7473 3.91375 17.6332C3.90306 16.7956 3.89593 16.236 3.89236 16.1718C4.02425 16.1825 4.17395 16.1076 4.29871 16.0827C4.44485 16.0542 4.58743 16.0684 4.73 16.0934C4.86545 16.1183 5.01159 16.1397 5.1506 16.1076C5.28249 16.072 5.40011 16.0007 5.50705 15.9152C5.21476 15.908 4.97595 15.7191 4.71931 15.6015C4.58743 15.5409 4.44128 15.5053 4.29871 15.4946C4.15613 15.4767 3.98504 15.466 3.85315 15.5195C3.8389 15.4055 3.82107 15.295 3.79612 15.1702H3.73196C3.64642 15.63 3.63929 16.0898 3.63572 16.5568C3.62859 16.956 3.62503 17.2304 3.61434 17.6297L2.43451 18.4744C2.31689 18.5386 2.31689 18.7061 2.43451 18.7667L3.58939 19.3121C3.58939 19.5509 3.58226 19.9002 3.57869 20.1568L2.28124 21.08C2.14936 21.1477 2.14936 21.3367 2.28124 21.4008L3.54661 22.0032C3.54661 22.349 3.53236 22.7054 3.52879 23.0547L3.30423 23.928H2.77313C2.70184 23.928 2.63412 23.9458 2.57352 23.9672C2.53075 23.985 2.42738 24.0207 2.42738 24.0777C2.42738 24.1347 2.52006 24.1704 2.56283 24.1846C2.63056 24.2096 2.70184 24.2381 2.77313 24.2381H3.21869L2.82303 25.753H2.18144C1.78935 24.2916 1.5541 22.7945 1.47568 21.2868C1.39014 19.779 1.45073 18.2641 1.6646 16.7635C1.8642 15.3805 2.18857 14.0082 2.65551 12.6822C3.09393 11.4276 3.64998 10.2085 4.33435 9.06077C4.69079 8.45838 5.08645 7.87025 5.51061 7.31064C7.24649 7.89164 9.49208 7.36054 9.49208 7.36054C11.5131 6.99697 12.7749 7.054 13.5056 7.1645L13.8977 7.23222C13.9405 6.98627 13.969 6.80449 14.0439 6.5728C11.9301 5.90269 9.54911 6.22705 9.54911 6.22705C8.10195 6.3625 7.2251 6.07022 6.77242 5.81358C6.77242 5.81358 7.68135 4.84762 8.42631 4.31295C9.0786 4.78702 9.89842 5.01515 10.6719 5.15416C11.1816 5.24327 11.6985 5.28248 12.2046 5.4001C12.7143 5.51773 13.2312 5.671 13.7231 5.84209C13.8977 5.90625 14.1294 6.01675 14.2363 6.06665C14.3254 5.85992 14.4538 5.671 14.5892 5.48921L14.2613 5.27891C13.609 4.90108 12.9923 4.71217 12.3008 4.50187C11.841 4.36286 11.4026 4.20246 10.9677 3.98146C10.3796 3.67849 10.016 3.28284 9.98397 3.25788C9.98397 3.25788 10.9891 2.64124 11.9373 2.29192C12.3757 2.91213 13.1884 3.25788 13.7444 3.73908C14.5286 4.40563 14.9421 5.03297 14.9813 5.10069C15.1702 4.96524 15.3377 4.86544 15.573 4.77277C15.2593 4.08483 14.8173 3.29709 14.2791 2.79807C14.0332 2.56995 13.666 2.1743 13.5627 1.78221C13.5627 1.78221 14.8209 1.46498 15.7904 1.44716L16.154 4.63375C16.2894 4.6088 16.4926 4.61237 16.4926 4.61237C16.4926 4.61237 16.6209 4.6088 16.8312 4.63375L17.1948 1.45072C17.1948 1.45072 18.0503 1.48993 18.7489 1.62894C19.1374 1.70736 19.4297 1.78221 19.4297 1.78221C19.3192 2.17073 18.9628 2.57351 18.7239 2.79807C18.175 3.30422 17.7509 4.08483 17.4336 4.77989C17.619 4.86188 17.8293 4.94386 18.0218 5.10426C18.3853 4.5589 18.8416 4.09552 19.255 3.73908C19.7968 3.26501 20.6095 2.89788 21.0479 2.29192C21.162 2.3347 21.6503 2.52005 22.4309 2.92283L23.0119 3.25788C22.9941 3.27214 22.349 3.79968 22.0282 3.98146C21.604 4.22384 21.1549 4.36286 20.6915 4.50187C20 4.70861 19.3869 4.90108 18.7311 5.27891L18.3996 5.48209C18.5279 5.64605 18.6527 5.83853 18.7596 6.06665C18.8772 6.00962 19.1018 5.90269 19.2693 5.84209C19.7648 5.671 20.2745 5.51773 20.7913 5.4001C21.2903 5.28248 21.8107 5.24683 22.3204 5.15416C23.0832 5.02228 23.9137 4.77633 24.5589 4.31295C25.3823 4.95099 26.2128 5.81714 26.2128 5.81714C25.7566 6.06665 24.8797 6.35893 23.4432 6.22705C23.4432 6.22705 21.0622 5.90269 18.9485 6.56567C19.0162 6.76528 19.0412 6.90429 19.0875 7.21083L19.5081 7.14311C20.2602 7.03618 21.4864 6.9934 23.5003 7.35697C23.5003 7.35697 25.7352 7.88807 27.471 7.31064C27.6457 7.5352 27.8097 7.76332 27.9701 7.99857C28.715 9.07859 29.3424 10.2406 29.8485 11.4454C30.3903 12.7179 30.7967 14.0438 31.0747 15.3912C31.3705 16.8134 31.5202 18.2641 31.5381 19.7184C31.5559 21.2939 31.4133 22.8765 31.1068 24.4199" fill="white"/>
</g>
<defs>
<clipPath id="clip0_25788_5497">
<rect width="227.624" height="40" fill="white"/>
</clipPath>
</defs>
</svg>
