<svg width="159" height="33" viewBox="0 0 159 33" fill="none" xmlns="http://www.w3.org/2000/svg">
<mask id="mask0_2462_5073" style="mask-type:luminance" maskUnits="userSpaceOnUse" x="0" y="0" width="33" height="33">
<path d="M32.4844 26.0841V6.91587C32.4844 3.37248 29.6119 0.5 26.0685 0.5L6.90025 0.5C3.35686 0.5 0.484377 3.37248 0.484377 6.91587V26.0841C0.484377 29.6275 3.35686 32.5 6.90025 32.5H26.0685C29.6119 32.5 32.4844 29.6275 32.4844 26.0841Z" fill="white"/>
</mask>
<g mask="url(#mask0_2462_5073)">
<path d="M16.4829 16.5973L0.484375 0.598755V0.673619L16.4829 16.6721L16.5817 16.7709L32.3114 32.4999H32.4844V0.598755L16.4829 16.5973Z" fill="#B8C1CC"/>
<path d="M0.85498 32.5H32.3115L16.5817 16.7703L0.85498 32.5Z" fill="#8A97A8"/>
<path d="M16.4829 16.6715L0.484375 0.672974V32.5H0.858697L16.5802 16.7703L16.4829 16.6715Z" fill="#5C6A7A"/>
<path d="M32.4844 0.598821V0.5H0.484375V0.598821L16.5802 16.7695L32.4844 0.598821Z" fill="#E6EBF0"/>
</g>
<path d="M48.889 26.4555C47.2756 25.513 45.9797 24.111 45.1668 22.4285C44.257 20.5125 43.8086 18.4101 43.8574 16.2896C43.8069 14.1764 44.2496 12.0804 45.1503 10.168C45.9603 8.48603 47.2585 7.08734 48.8755 6.15452C50.6391 5.22956 52.6008 4.74634 54.5922 4.74634C56.5836 4.74634 58.5453 5.22956 60.3088 6.15452C61.9185 7.09156 63.2103 8.48954 64.0176 10.168C64.9181 12.0806 65.3617 14.1763 65.3135 16.2896C65.3637 18.4106 64.9141 20.5135 64.0011 22.4285C63.1854 24.111 61.8876 25.5127 60.2729 26.4555C58.5422 27.4255 56.5823 27.9119 54.5989 27.8637C52.6044 27.9088 50.6338 27.4228 48.889 26.4555ZM59.4449 22.4285C60.6053 20.9991 61.1862 18.9528 61.1877 16.2896C61.1892 13.6265 60.607 11.5847 59.4411 10.1643C58.855 9.45755 58.1122 8.89727 57.2716 8.52793C56.431 8.15859 55.5159 7.99036 54.5989 8.03661C53.6772 7.99438 52.7581 8.16423 51.9124 8.5331C51.0667 8.90197 50.3169 9.46001 49.7208 10.1643C48.5569 11.5817 47.9749 13.6227 47.9749 16.2874C47.9749 18.9521 48.5559 20.9984 49.7178 22.4263C50.3077 23.1387 51.0561 23.7033 51.9031 24.0751C52.75 24.4468 53.6722 24.6154 54.5959 24.5674C55.5151 24.6177 56.4332 24.45 57.2753 24.0779C58.1173 23.7058 58.8595 23.1398 59.4411 22.4263L59.4449 22.4285Z" fill="#38485C"/>
<path d="M80.4329 12.5456C81.4996 13.2312 82.3481 14.2073 82.8787 15.359C83.4904 16.6924 83.7907 18.1476 83.7569 19.6142C83.7869 21.0946 83.4869 22.563 82.8787 23.913C82.3493 25.0941 81.4918 26.0984 80.4082 26.8065C79.3357 27.495 78.0838 27.8513 76.8095 27.8306C75.7564 27.8496 74.7164 27.5961 73.7902 27.0947C72.9274 26.6266 72.2212 25.9154 71.7591 25.0494V25.8482C71.7702 26.1028 71.727 26.3568 71.6324 26.5934C71.5378 26.83 71.3939 27.0437 71.2104 27.2205C70.8161 27.572 70.2999 27.7553 69.7722 27.731C69.5131 27.7444 69.2539 27.7062 69.0098 27.6185C68.7656 27.5309 68.5412 27.3956 68.3498 27.2205C68.1712 27.0409 68.0319 26.8262 67.9407 26.59C67.8494 26.3538 67.8083 26.1012 67.8198 25.8482V6.72261C67.8086 6.47248 67.8519 6.22292 67.9466 5.99116C68.0414 5.7594 68.1853 5.55098 68.3685 5.3803C68.7795 5.05486 69.2871 4.8753 69.8113 4.86988C70.3355 4.86446 70.8466 5.03348 71.2643 5.35035C71.4476 5.51386 71.592 5.71631 71.687 5.94287C71.7819 6.16943 71.825 6.41437 71.813 6.65973V14.209C72.273 13.3673 72.9747 12.6828 73.8276 12.2439C74.7474 11.7747 75.7681 11.5382 76.8005 11.5551C78.0813 11.528 79.3427 11.8722 80.4321 12.5463L80.4329 12.5456ZM78.72 23.3859C79.4851 22.2827 79.8574 20.9544 79.7771 19.6142C79.8727 18.3014 79.4979 16.9973 78.72 15.9354C78.3409 15.5301 77.8824 15.2072 77.373 14.987C76.8636 14.7667 76.3142 14.6539 75.7593 14.6554C75.2043 14.657 74.6556 14.7729 74.1474 14.9959C73.6393 15.219 73.1825 15.5444 72.8057 15.9519C72.0457 17.0394 71.6787 18.3532 71.7651 19.6771C71.6785 21.0067 72.0454 22.3263 72.8057 23.4203C73.179 23.8363 73.6362 24.1684 74.1472 24.3947C74.6582 24.621 75.2114 24.7365 75.7703 24.7333C76.3291 24.7302 76.881 24.6087 77.3895 24.3767C77.8979 24.1447 78.3514 23.8075 78.72 23.3874V23.3859Z" fill="#38485C"/>
<path d="M99.0346 23.7048C99.2722 24.0294 99.3904 24.4261 99.3692 24.8278C99.3461 25.1876 99.2231 25.5338 99.0142 25.8276C98.8053 26.1215 98.5186 26.3513 98.1864 26.4913C97.4062 26.9164 96.5764 27.2433 95.7159 27.4645C94.8622 27.7005 93.9813 27.8241 93.0956 27.8321C92.0039 27.8897 90.9118 27.7272 89.8842 27.3543C88.8566 26.9813 87.9145 26.4055 87.114 25.661C86.3591 24.874 85.7745 23.9399 85.3967 22.9169C85.0189 21.8939 84.856 20.8041 84.9182 19.7153C84.8899 18.2401 85.2195 16.7801 85.8787 15.46C86.4833 14.2629 87.4186 13.2644 88.5738 12.583C89.7736 11.8901 91.1391 11.5361 92.5244 11.5588C93.8119 11.5286 95.0833 11.8492 96.2025 12.4864C97.2477 13.1077 98.0913 14.0175 98.6318 15.1067C99.2326 16.3517 99.5289 17.7217 99.4965 19.1037C99.4965 20.0185 99.0912 20.4759 98.2807 20.4759H88.8478C88.8677 21.6719 89.31 22.8223 90.0965 23.7235C90.5117 24.0946 90.9977 24.3778 91.5252 24.5562C92.0527 24.7345 92.6108 24.8042 93.166 24.7612C93.7778 24.7716 94.3875 24.6854 94.9725 24.5059C95.576 24.3033 96.1681 24.0678 96.746 23.8007C97.1744 23.5307 97.6555 23.3556 98.1572 23.2871C98.3257 23.2847 98.4925 23.3211 98.6447 23.3936C98.7968 23.466 98.9302 23.5725 99.0346 23.7048ZM90.0112 15.3949C89.3021 16.2156 88.8901 17.2513 88.8418 18.3348H96.07C96.108 17.2673 95.7687 16.2206 95.1117 15.3784C94.7957 15.037 94.4082 14.7696 93.9768 14.5954C93.5455 14.4212 93.081 14.3445 92.6165 14.3708C92.135 14.3489 91.6542 14.4286 91.2055 14.6047C90.7568 14.7807 90.3502 15.0492 90.012 15.3926L90.0112 15.3949Z" fill="#38485C"/>
<path d="M102.032 27.2707C101.842 27.088 101.695 26.8659 101.6 26.6202C101.505 26.3745 101.465 26.1111 101.483 25.8483V6.7579C101.464 6.4976 101.504 6.23639 101.599 5.99329C101.694 5.7502 101.842 5.53135 102.032 5.3527C102.431 5.0231 102.937 4.852 103.454 4.87207C103.976 4.85348 104.487 5.02419 104.892 5.3527C105.089 5.52761 105.243 5.74511 105.343 5.98863C105.443 6.23214 105.486 6.49525 105.469 6.7579V25.8483C105.485 26.1134 105.442 26.3787 105.342 26.6249C105.242 26.871 105.089 27.0917 104.892 27.2707C104.491 27.609 103.979 27.7861 103.454 27.7678C102.934 27.7875 102.426 27.6099 102.032 27.2707Z" fill="#38485C"/>
<path d="M108.573 8.18629C108.361 7.98929 108.194 7.7486 108.084 7.48082C107.973 7.21303 107.922 6.9245 107.934 6.6351C107.921 6.34804 107.972 6.06171 108.083 5.79647C108.193 5.53122 108.361 5.29357 108.573 5.10038C109.068 4.72624 109.672 4.5238 110.292 4.5238C110.912 4.5238 111.516 4.72624 112.01 5.10038C112.227 5.29156 112.398 5.52845 112.511 5.79388C112.625 6.05932 112.678 6.34666 112.666 6.6351C112.677 6.92441 112.626 7.21273 112.516 7.48041C112.405 7.7481 112.239 7.98886 112.027 8.18629C111.533 8.5705 110.926 8.77912 110.3 8.77912C109.675 8.77912 109.067 8.5705 108.573 8.18629ZM108.873 27.2767C108.683 27.0939 108.536 26.8719 108.441 26.6262C108.346 26.3805 108.306 26.117 108.324 25.8543V13.5009C108.305 13.2402 108.345 12.9785 108.44 12.7349C108.534 12.4913 108.682 12.2719 108.873 12.0927C109.271 11.7697 109.774 11.602 110.286 11.6203C110.808 11.6031 111.319 11.7724 111.727 12.0979C111.924 12.2737 112.077 12.4919 112.177 12.7359C112.276 12.9799 112.318 13.2433 112.301 13.5061V25.8588C112.317 26.1236 112.275 26.3888 112.175 26.6349C112.076 26.8811 111.923 27.1019 111.727 27.2812C111.323 27.6149 110.81 27.7879 110.286 27.767C109.77 27.7839 109.265 27.6066 108.873 27.2699V27.2767Z" fill="#38485C"/>
<path d="M115.19 26.4533C114.877 26.2893 114.615 26.0414 114.435 25.7373C114.255 25.4332 114.163 25.0849 114.169 24.7314C114.152 24.3529 114.277 23.9818 114.52 23.6908C114.624 23.5627 114.755 23.4596 114.905 23.3893C115.054 23.3189 115.217 23.283 115.382 23.2843C115.913 23.341 116.425 23.5174 116.879 23.8001C117.484 24.0916 118.11 24.3384 118.751 24.5383C119.454 24.726 120.181 24.8119 120.908 24.7936C121.634 24.8324 122.358 24.6773 123.004 24.3444C123.232 24.2254 123.423 24.0458 123.555 23.8255C123.687 23.6051 123.755 23.3526 123.753 23.0957C123.774 22.7817 123.67 22.4722 123.465 22.234C123.149 21.9535 122.773 21.7487 122.367 21.6351C121.584 21.3847 120.789 21.1767 119.984 21.0122C118.513 20.8065 117.114 20.2469 115.907 19.3816C115.496 19.0222 115.172 18.574 114.959 18.0709C114.747 17.5678 114.651 17.023 114.68 16.4776C114.674 15.5679 114.963 14.6807 115.504 13.9495C116.092 13.1666 116.882 12.559 117.79 12.1924C118.839 11.7599 119.966 11.5469 121.101 11.5665C121.975 11.5637 122.845 11.6772 123.689 11.9042C124.484 12.1035 125.242 12.4277 125.935 12.8647C126.244 13.0275 126.502 13.2711 126.682 13.5694C126.863 13.8678 126.958 14.2095 126.96 14.5581C126.974 14.9455 126.85 15.3252 126.608 15.6287C126.509 15.7631 126.379 15.8724 126.229 15.9476C126.079 16.0229 125.914 16.0621 125.747 16.0622C125.51 16.0613 125.275 16.0119 125.058 15.9169C124.769 15.7877 124.487 15.6438 124.213 15.4857C123.696 15.2128 123.161 14.9744 122.612 14.7722C122.074 14.5997 121.511 14.5189 120.946 14.5334C120.288 14.4963 119.635 14.6611 119.074 15.0058C118.857 15.1478 118.68 15.3429 118.56 15.5726C118.44 15.8023 118.38 16.059 118.388 16.3182C118.379 16.566 118.441 16.8112 118.565 17.0257C118.689 17.2403 118.871 17.4156 119.091 17.5317C119.953 17.9331 120.868 18.2103 121.808 18.3552C122.962 18.5686 124.088 18.9122 125.165 19.3794C125.874 19.6787 126.479 20.1786 126.908 20.8175C127.28 21.4876 127.462 22.2472 127.432 23.0133C127.445 23.6989 127.287 24.3769 126.971 24.9857C126.656 25.5946 126.193 26.115 125.625 26.4997C124.201 27.4361 122.516 27.8947 120.813 27.8091C118.847 27.9106 116.894 27.4397 115.19 26.4533Z" fill="#38485C"/>
<path d="M132.22 26.8523C131.047 26.2074 130.091 25.2281 129.475 24.0389C128.835 22.7026 128.506 21.2384 128.514 19.7566C128.522 18.2748 128.867 16.8142 129.522 15.4849C130.168 14.2605 131.156 13.2505 132.366 12.5779C133.649 11.8776 135.092 11.5246 136.553 11.5538C137.402 11.5566 138.247 11.6747 139.065 11.9049C139.848 12.1146 140.596 12.4382 141.285 12.8654C141.59 13.0325 141.845 13.277 142.025 13.5744C142.205 13.8718 142.303 14.2114 142.309 14.5589C142.328 14.9645 142.211 15.3648 141.975 15.6953C141.873 15.8318 141.74 15.9421 141.588 16.0171C141.435 16.0921 141.266 16.1296 141.096 16.1265C140.842 16.1231 140.591 16.0689 140.358 15.9671C140.095 15.8556 139.839 15.7273 139.592 15.583C139.165 15.3258 138.716 15.1063 138.25 14.9272C137.778 14.7605 137.28 14.6796 136.779 14.6884C136.205 14.6546 135.63 14.7536 135.1 14.9779C134.57 15.2021 134.099 15.5455 133.724 15.9813C132.941 17.0604 132.563 18.3798 132.653 19.7095C132.564 21.028 132.943 22.3356 133.724 23.4018C134.099 23.8386 134.57 24.1828 135.1 24.4076C135.63 24.6324 136.204 24.7317 136.779 24.6977C137.264 24.7065 137.746 24.6244 138.201 24.4559C138.679 24.268 139.144 24.0489 139.593 23.8001C139.857 23.6368 140.132 23.4927 140.417 23.3689C140.64 23.2766 140.878 23.228 141.12 23.2259C141.289 23.2266 141.456 23.2677 141.606 23.3458C141.757 23.424 141.886 23.5368 141.984 23.6751C142.226 23.9983 142.35 24.3946 142.335 24.798C142.342 25.1278 142.26 25.4532 142.097 25.7398C141.899 26.0418 141.629 26.2892 141.311 26.4593C140.599 26.9094 139.822 27.2491 139.008 27.467C138.135 27.7118 137.231 27.8354 136.324 27.8345C134.895 27.8682 133.483 27.5316 132.223 26.8576L132.22 26.8523Z" fill="#38485C"/>
<path d="M146.643 26.8539C145.448 26.2039 144.474 25.2138 143.843 24.009C143.158 22.6756 142.818 21.1923 142.852 19.6939C142.817 18.1996 143.157 16.7205 143.843 15.3921C144.478 14.1943 145.452 13.21 146.643 12.5623C147.948 11.9105 149.387 11.5713 150.847 11.5713C152.306 11.5713 153.745 11.9105 155.051 12.5623C156.236 13.2056 157.205 14.1856 157.834 15.3787C158.507 16.7108 158.841 18.1883 158.807 19.6804C158.84 21.1767 158.506 22.6582 157.834 23.9956C157.214 25.2063 156.244 26.2029 155.051 26.8561C153.745 27.5078 152.306 27.8471 150.847 27.8471C149.387 27.8471 147.948 27.5078 146.643 26.8561V26.8539ZM153.78 23.4633C154.538 22.3579 154.899 21.0284 154.804 19.6916C154.906 18.3553 154.547 17.0245 153.788 15.9199C153.414 15.5115 152.959 15.1854 152.452 14.9623C151.945 14.7392 151.397 14.624 150.843 14.624C150.289 14.624 149.741 14.7392 149.234 14.9623C148.727 15.1854 148.272 15.5115 147.897 15.9199C147.14 17.0209 146.775 18.3445 146.86 19.6781C146.768 21.0147 147.129 22.3432 147.884 23.4498C148.262 23.8541 148.719 24.1763 149.227 24.3967C149.735 24.617 150.283 24.7307 150.836 24.7307C151.39 24.7307 151.937 24.617 152.445 24.3967C152.953 24.1763 153.41 23.8541 153.788 23.4498L153.78 23.4633Z" fill="#38485C"/>
</svg>
