<svg width="169" height="34" viewBox="0 0 169 34" fill="none" xmlns="http://www.w3.org/2000/svg">
<mask id="mask0_2462_4934" style="mask-type:luminance" maskUnits="userSpaceOnUse" x="0" y="0" width="34" height="34">
<path d="M34 27.1831V6.81686C34 3.05201 30.948 0 27.1831 0L6.81686 0C3.05201 0 0 3.05201 0 6.81686V27.1831C0 30.948 3.05201 34 6.81686 34H27.1831C30.948 34 34 30.948 34 27.1831Z" fill="white"/>
</mask>
<g mask="url(#mask0_2462_4934)">
<path d="M16.9984 17.1035L0 0.105103V0.184646L16.9984 17.1831L17.1034 17.2881L33.8163 34.0001H34V0.105103L16.9984 17.1035Z" fill="#B8C1CC"/>
<path d="M0.393555 34H33.8161L17.1032 17.2871L0.393555 34Z" fill="#8A97A8"/>
<path d="M16.9984 17.1824L0 0.18396V34.0002H0.397717L17.1018 17.2874L16.9984 17.1824Z" fill="#5C6A7A"/>
<path d="M34 0.104997V0H0V0.104997L17.1018 17.2864L34 0.104997Z" fill="#E6EBF0"/>
</g>
<path d="M155.293 28.0009C154.024 27.3104 152.989 26.2583 152.318 24.9783C151.591 23.5615 151.229 21.9855 151.265 20.3934C151.228 18.8057 151.59 17.2342 152.318 15.8228C152.993 14.5501 154.028 13.5044 155.293 12.8161C156.681 12.1236 158.21 11.7632 159.76 11.7632C161.311 11.7632 162.84 12.1236 164.227 12.8161C165.487 13.4997 166.516 14.5409 167.184 15.8085C167.899 17.2239 168.255 18.7937 168.218 20.3791C168.253 21.9689 167.898 23.5431 167.184 24.964C166.525 26.2504 165.495 27.3093 164.227 28.0033C162.84 28.6958 161.311 29.0562 159.76 29.0562C158.21 29.0562 156.681 28.6958 155.293 28.0033V28.0009ZM162.877 24.3984C163.682 23.224 164.066 21.8114 163.965 20.391C164.073 18.9712 163.692 17.5572 162.886 16.3836C162.488 15.9497 162.004 15.6032 161.466 15.3662C160.927 15.1291 160.345 15.0067 159.756 15.0067C159.168 15.0067 158.585 15.1291 158.047 15.3662C157.508 15.6032 157.024 15.9497 156.626 16.3836C155.822 17.5534 155.433 18.9597 155.524 20.3767C155.427 21.7968 155.81 23.2083 156.612 24.3841C157.014 24.8136 157.5 25.1561 158.039 25.3902C158.579 25.6243 159.161 25.7451 159.749 25.7451C160.337 25.7451 160.919 25.6243 161.459 25.3902C161.998 25.1561 162.484 24.8136 162.886 24.3841L162.877 24.3984Z" fill="white"/>
<path d="M51.4298 27.5777C49.7155 26.5763 48.3386 25.0867 47.4749 23.299C46.5083 21.2633 46.0318 19.0295 46.0837 16.7765C46.0301 14.5311 46.5004 12.3042 47.4574 10.2722C48.318 8.48515 49.6974 6.99904 51.4155 6.00791C53.2893 5.02514 55.3736 4.51172 57.4894 4.51172C59.6053 4.51172 61.6896 5.02514 63.5634 6.00791C65.2736 7.00352 66.6462 8.48887 67.5039 10.2722C68.4607 12.3043 68.932 14.531 68.8808 16.7765C68.9341 19.03 68.4565 21.2643 67.4864 23.299C66.6197 25.0866 65.2408 26.576 63.5252 27.5777C61.6863 28.6083 59.604 29.1251 57.4966 29.0739C55.3774 29.1218 53.2837 28.6054 51.4298 27.5777ZM62.6454 23.299C63.8783 21.7803 64.4956 19.6061 64.4972 16.7765C64.4988 13.9469 63.8802 11.7775 62.6414 10.2683C62.0187 9.51738 61.2294 8.92209 60.3363 8.52966C59.4432 8.13724 58.4709 7.95849 57.4966 8.00763C56.5173 7.96276 55.5407 8.14323 54.6422 8.53516C53.7436 8.92708 52.9469 9.52 52.3135 10.2683C51.0769 11.7743 50.4586 13.9429 50.4586 16.7741C50.4586 19.6053 51.0759 21.7795 52.3104 23.2967C52.9372 24.0536 53.7323 24.6535 54.6322 25.0485C55.5321 25.4435 56.5119 25.6226 57.4934 25.5716C58.4701 25.625 59.4456 25.4468 60.3402 25.0515C61.2349 24.6561 62.0234 24.0548 62.6414 23.2967L62.6454 23.299Z" fill="#38485C"/>
<path d="M84.9455 12.7985C86.0788 13.527 86.9804 14.5641 87.5441 15.7877C88.1941 17.2045 88.5131 18.7506 88.4772 20.309C88.5091 21.8818 88.1903 23.442 87.5441 24.8763C86.9816 26.1313 86.0705 27.1984 84.9192 27.9507C83.7797 28.6822 82.4495 29.0608 81.0956 29.0389C79.9767 29.059 78.8716 28.7897 77.8876 28.2569C76.9709 27.7596 76.2205 27.004 75.7296 26.0838V26.9325C75.7413 27.203 75.6954 27.4729 75.5949 27.7243C75.4944 27.9757 75.3415 28.2028 75.1465 28.3906C74.7276 28.7641 74.1792 28.9588 73.6185 28.9331C73.3432 28.9473 73.0678 28.9067 72.8084 28.8135C72.5489 28.7204 72.3106 28.5766 72.1072 28.3906C71.9174 28.1998 71.7694 27.9717 71.6725 27.7207C71.5755 27.4697 71.5318 27.2013 71.544 26.9325V6.61161C71.5321 6.34585 71.5781 6.08068 71.6788 5.83444C71.7795 5.58819 71.9324 5.36675 72.1271 5.1854C72.5637 4.83962 73.103 4.64884 73.66 4.64308C74.217 4.63732 74.76 4.8169 75.2038 5.15358C75.3986 5.32731 75.552 5.54242 75.6529 5.78314C75.7538 6.02386 75.7996 6.2841 75.7868 6.54479V14.5659C76.2756 13.6716 77.0212 12.9443 77.9273 12.4779C78.9046 11.9794 79.9891 11.7281 81.086 11.7461C82.4469 11.7173 83.7871 12.0831 84.9447 12.7993L84.9455 12.7985ZM83.1255 24.3164C83.9385 23.1442 84.334 21.7329 84.2487 20.309C84.3502 18.914 83.9521 17.5285 83.1255 16.4002C82.7227 15.9695 82.2356 15.6265 81.6943 15.3925C81.1531 15.1585 80.5694 15.0386 79.9797 15.0402C79.3901 15.0419 78.8071 15.165 78.2671 15.402C77.7272 15.639 77.2419 15.9848 76.8416 16.4177C76.0341 17.5732 75.6441 18.9691 75.7359 20.3758C75.644 21.7884 76.0337 23.1905 76.8416 24.353C77.2382 24.7949 77.724 25.1478 78.2669 25.3882C78.8099 25.6287 79.3976 25.7513 79.9914 25.748C80.5852 25.7447 81.1716 25.6155 81.7118 25.369C82.252 25.1225 82.7338 24.7643 83.1255 24.318V24.3164Z" fill="#38485C"/>
<path d="M104.71 24.6551C104.962 25 105.088 25.4215 105.065 25.8483C105.041 26.2305 104.91 26.5984 104.688 26.9106C104.466 27.2228 104.161 27.467 103.808 27.6157C102.979 28.0674 102.098 28.4148 101.184 28.6498C100.276 28.9005 99.3405 29.0318 98.3995 29.0403C97.2396 29.1016 96.0792 28.9289 94.9874 28.5327C93.8956 28.1364 92.8946 27.5246 92.044 26.7336C91.2419 25.8974 90.6208 24.9049 90.2194 23.818C89.818 22.731 89.6449 21.573 89.711 20.4163C89.681 18.8489 90.0312 17.2975 90.7315 15.895C91.3739 14.6231 92.3677 13.5621 93.5951 12.8382C94.8699 12.1019 96.3207 11.7258 97.7926 11.75C99.1605 11.7178 100.511 12.0585 101.701 12.7356C102.811 13.3956 103.707 14.3624 104.282 15.5196C104.92 16.8424 105.235 18.298 105.2 19.7664C105.2 20.7384 104.77 21.2244 103.909 21.2244H93.8862C93.9073 22.4952 94.3773 23.7175 95.213 24.675C95.6541 25.0693 96.1705 25.3702 96.7309 25.5596C97.2914 25.7491 97.8844 25.8232 98.4743 25.7775C99.1243 25.7885 99.7721 25.697 100.394 25.5062C101.035 25.291 101.664 25.0408 102.278 24.7569C102.733 24.4701 103.244 24.2841 103.777 24.2113C103.956 24.2087 104.134 24.2474 104.295 24.3244C104.457 24.4014 104.599 24.5145 104.71 24.6551ZM95.1223 15.8258C94.3688 16.6978 93.9311 17.7982 93.8798 18.9495H101.56C101.6 17.8153 101.24 16.7031 100.542 15.8083C100.206 15.4455 99.7941 15.1614 99.3358 14.9764C98.8775 14.7913 98.3839 14.7098 97.8904 14.7377C97.3788 14.7145 96.868 14.7992 96.3913 14.9862C95.9145 15.1733 95.4825 15.4585 95.1231 15.8234L95.1223 15.8258Z" fill="#38485C"/>
<path d="M107.894 28.4441C107.693 28.2499 107.536 28.014 107.435 27.7529C107.335 27.4918 107.292 27.2119 107.311 26.9327V6.64918C107.291 6.37261 107.333 6.09507 107.434 5.83678C107.535 5.57849 107.692 5.34596 107.894 5.15615C108.318 4.80596 108.856 4.62417 109.405 4.64548C109.96 4.62573 110.502 4.80711 110.933 5.15615C111.142 5.34199 111.306 5.57309 111.412 5.83182C111.518 6.09056 111.564 6.37011 111.546 6.64918V26.9327C111.563 27.2144 111.517 27.4963 111.411 27.7578C111.305 28.0194 111.142 28.2538 110.933 28.4441C110.507 28.8035 109.963 28.9917 109.405 28.9722C108.853 28.9931 108.313 28.8045 107.894 28.4441Z" fill="#38485C"/>
<path d="M114.844 8.16678C114.619 7.95747 114.441 7.70174 114.324 7.41722C114.207 7.13269 114.153 6.82613 114.165 6.51864C114.152 6.21364 114.206 5.90942 114.323 5.6276C114.44 5.34578 114.618 5.09326 114.844 4.888C115.37 4.49048 116.011 4.27539 116.67 4.27539C117.329 4.27539 117.971 4.49048 118.496 4.888C118.726 5.09113 118.908 5.34282 119.028 5.62485C119.149 5.90688 119.205 6.21218 119.193 6.51864C119.205 6.82604 119.15 7.13238 119.033 7.41679C118.916 7.7012 118.739 7.95701 118.514 8.16678C117.989 8.57501 117.344 8.79667 116.679 8.79667C116.014 8.79667 115.369 8.57501 114.844 8.16678ZM115.163 28.4503C114.961 28.2561 114.805 28.0203 114.704 27.7592C114.603 27.4981 114.561 27.2182 114.58 26.939V13.8136C114.559 13.5365 114.601 13.2585 114.702 12.9997C114.803 12.7408 114.96 12.5078 115.163 12.3173C115.586 11.9742 116.12 11.7959 116.664 11.8154C117.219 11.7971 117.762 11.9771 118.196 12.3229C118.404 12.5097 118.567 12.7415 118.673 13.0007C118.778 13.26 118.824 13.5398 118.805 13.8191V26.9438C118.822 27.2252 118.777 27.507 118.671 27.7685C118.566 28.03 118.403 28.2646 118.196 28.4551C117.766 28.8097 117.221 28.9935 116.664 28.9713C116.115 28.9893 115.58 28.8008 115.163 28.4432V28.4503Z" fill="#38485C"/>
<path d="M121.875 27.5752C121.542 27.401 121.264 27.1376 121.072 26.8145C120.881 26.4914 120.783 26.1213 120.79 25.7457C120.772 25.3436 120.905 24.9493 121.163 24.6401C121.273 24.504 121.413 24.3944 121.571 24.3197C121.73 24.2449 121.903 24.2068 122.078 24.2082C122.643 24.2684 123.187 24.4558 123.669 24.7562C124.312 25.0659 124.977 25.3281 125.658 25.5405C126.405 25.7399 127.177 25.8312 127.95 25.8117C128.722 25.853 129.49 25.6882 130.177 25.3345C130.419 25.2081 130.622 25.0172 130.762 24.7831C130.902 24.549 130.975 24.2807 130.973 24.0077C130.995 23.6741 130.885 23.3453 130.667 23.0922C130.331 22.7942 129.932 22.5765 129.5 22.4558C128.668 22.1898 127.823 21.9688 126.968 21.794C125.405 21.5754 123.919 20.9809 122.637 20.0616C122.2 19.6797 121.855 19.2035 121.63 18.6689C121.404 18.1344 121.302 17.5555 121.333 16.9761C121.326 16.0095 121.633 15.0668 122.208 14.2899C122.833 13.4581 123.673 12.8126 124.637 12.423C125.752 11.9635 126.949 11.7372 128.155 11.758C129.083 11.755 130.008 11.8756 130.905 12.1168C131.75 12.3286 132.555 12.673 133.291 13.1373C133.619 13.3103 133.893 13.5692 134.085 13.8861C134.277 14.2031 134.379 14.5662 134.38 14.9366C134.395 15.3481 134.263 15.7516 134.007 16.0741C133.9 16.2169 133.762 16.333 133.603 16.4129C133.444 16.4929 133.269 16.5346 133.091 16.5346C132.839 16.5337 132.59 16.4812 132.359 16.3803C132.052 16.243 131.753 16.0901 131.461 15.9221C130.912 15.6321 130.344 15.3789 129.761 15.1641C129.189 14.9807 128.59 14.8949 127.99 14.9103C127.291 14.8709 126.597 15.046 126.001 15.4123C125.771 15.5631 125.583 15.7704 125.455 16.0145C125.327 16.2586 125.264 16.5313 125.272 16.8066C125.263 17.07 125.329 17.3304 125.461 17.5584C125.593 17.7864 125.786 17.9727 126.019 18.096C126.935 18.5224 127.907 18.817 128.906 18.971C130.132 19.1977 131.329 19.5628 132.473 20.0592C133.226 20.3772 133.87 20.9083 134.325 21.5872C134.721 22.2992 134.913 23.1062 134.882 23.9202C134.895 24.6487 134.727 25.369 134.392 26.0159C134.057 26.6628 133.565 27.2157 132.962 27.6245C131.449 28.6195 129.658 29.1067 127.849 29.0158C125.76 29.1236 123.685 28.6232 121.875 27.5752Z" fill="#38485C"/>
<path d="M139.97 27.9993C138.723 27.314 137.707 26.2735 137.053 25.01C136.372 23.5902 136.023 22.0344 136.032 20.46C136.04 18.8856 136.406 17.3337 137.102 15.9214C137.789 14.6205 138.839 13.5473 140.125 12.8327C141.487 12.0886 143.021 11.7135 144.573 11.7446C145.475 11.7476 146.373 11.8731 147.242 12.1176C148.074 12.3404 148.869 12.6842 149.601 13.1382C149.925 13.3157 150.196 13.5755 150.387 13.8915C150.578 14.2074 150.682 14.5683 150.689 14.9374C150.709 15.3684 150.584 15.7938 150.333 16.1449C150.225 16.2899 150.085 16.4071 149.922 16.4868C149.76 16.5665 149.581 16.6064 149.4 16.6031C149.13 16.5995 148.864 16.5419 148.616 16.4337C148.336 16.3153 148.065 16.179 147.802 16.0256C147.348 15.7523 146.871 15.5191 146.376 15.3288C145.874 15.1517 145.345 15.0657 144.813 15.0751C144.203 15.0392 143.592 15.1444 143.03 15.3827C142.467 15.6209 141.966 15.9857 141.567 16.4488C140.736 17.5953 140.333 18.9972 140.429 20.41C140.335 21.8109 140.737 23.2003 141.567 24.3331C141.965 24.7972 142.466 25.1629 143.029 25.4017C143.592 25.6406 144.203 25.7461 144.813 25.71C145.328 25.7193 145.841 25.6321 146.324 25.4531C146.832 25.2534 147.326 25.0206 147.803 24.7563C148.083 24.5827 148.376 24.4296 148.678 24.2981C148.915 24.2 149.169 24.1484 149.425 24.1462C149.605 24.1469 149.782 24.1906 149.942 24.2736C150.102 24.3566 150.24 24.4766 150.344 24.6234C150.601 24.9669 150.732 25.3879 150.717 25.8166C150.724 26.1669 150.636 26.5127 150.463 26.8172C150.254 27.1381 149.967 27.401 149.629 27.5817C148.872 28.0599 148.047 28.4208 147.182 28.6523C146.253 28.9124 145.294 29.0438 144.329 29.0429C142.812 29.0786 141.311 28.721 139.972 28.0048L139.97 27.9993Z" fill="#38485C"/>
<path d="M155.293 28.0009C154.024 27.3104 152.989 26.2583 152.318 24.9783C151.591 23.5615 151.229 21.9855 151.265 20.3934C151.228 18.8057 151.59 17.2342 152.318 15.8228C152.993 14.5501 154.028 13.5044 155.293 12.8161C156.681 12.1236 158.21 11.7632 159.76 11.7632C161.311 11.7632 162.84 12.1236 164.227 12.8161C165.487 13.4997 166.516 14.5409 167.184 15.8085C167.899 17.2239 168.255 18.7937 168.218 20.3791C168.253 21.9689 167.898 23.5431 167.184 24.964C166.525 26.2504 165.495 27.3093 164.227 28.0033C162.84 28.6958 161.311 29.0562 159.76 29.0562C158.21 29.0562 156.681 28.6958 155.293 28.0033V28.0009ZM162.877 24.3984C163.682 23.224 164.066 21.8114 163.965 20.391C164.073 18.9712 163.692 17.5572 162.886 16.3836C162.488 15.9497 162.004 15.6032 161.466 15.3662C160.927 15.1291 160.345 15.0067 159.756 15.0067C159.168 15.0067 158.585 15.1291 158.047 15.3662C157.508 15.6032 157.024 15.9497 156.626 16.3836C155.822 17.5534 155.433 18.9597 155.524 20.3767C155.427 21.7968 155.81 23.2083 156.612 24.3841C157.014 24.8136 157.5 25.1561 158.039 25.3902C158.579 25.6243 159.161 25.7451 159.749 25.7451C160.337 25.7451 160.919 25.6243 161.459 25.3902C161.998 25.1561 162.484 24.8136 162.886 24.3841L162.877 24.3984Z" fill="#38485C"/>
</svg>
