<svg width="58" height="31" viewBox="0 0 58 31" fill="none" xmlns="http://www.w3.org/2000/svg">
<g clip-path="url(#clip0_3311_2511)">
<path d="M56.9461 24.5334L46.0135 3.40871C45.0705 1.53348 43.1385 0.25 40.8958 0.25H40.8904C38.6504 0.25 36.7157 1.53348 35.7727 3.40871L28.0772 18.2782C27.218 16.7488 25.848 15.5491 24.1944 14.9006C26.0399 13.5658 27.2423 11.3906 27.2423 8.93713C27.2423 6.09186 25.6265 3.63028 23.2649 2.40895C21.1843 1.31461 18.8092 0.69584 16.2909 0.69584H4.78007C2.41306 0.69584 0.5 2.6089 0.5 4.9705V26.3924C0.5 28.754 2.41306 30.6671 4.78007 30.6671H17.2285C19.6279 30.6671 21.9111 30.1699 23.9836 29.2837L24.7726 28.9027C24.8159 28.881 24.8591 28.8594 24.9023 28.8378C25.6508 30.0781 27.0045 30.913 28.5636 30.913C30.2956 30.913 31.7872 29.8862 32.46 28.4028C32.795 27.6192 33.5516 27.0653 34.4433 27.022H47.3402C48.2346 27.0653 48.9885 27.6192 49.3236 28.4028C49.9937 29.8862 51.4879 30.913 53.2199 30.913C55.5842 30.913 57.4973 28.9945 57.4973 26.641C57.4973 25.8737 57.3 25.1549 56.9434 24.5361" fill="#101E37"/>
</g>
<defs>
<clipPath id="clip0_3311_2511">
<rect width="57" height="30.6603" fill="white" transform="translate(0.5 0.25)"/>
</clipPath>
</defs>
</svg>
