<svg width="526" height="486" viewBox="0 0 526 486" fill="none" xmlns="http://www.w3.org/2000/svg">
<path d="M424.947 118.208L429.111 111.499L427.032 110.226C426.739 110.04 426.502 109.777 426.349 109.465C426.195 109.153 426.131 108.805 426.163 108.459C426.199 108.067 426.211 107.672 426.198 107.278C426.19 106.932 426.278 106.589 426.451 106.289C426.624 105.989 426.877 105.741 427.181 105.575L429.302 104.436L425.618 97.4729L423.497 98.6394C423.191 98.8005 422.846 98.8739 422.5 98.8514C422.155 98.829 421.822 98.7116 421.539 98.5121C421.214 98.2859 420.875 98.0809 420.535 97.89C420.228 97.7266 419.972 97.4805 419.797 97.1794C419.622 96.8783 419.535 96.5343 419.546 96.1862L419.623 93.7684L411.727 93.5281L411.656 95.9529C411.64 96.3003 411.529 96.6366 411.335 96.9248C411.14 97.213 410.869 97.4418 410.553 97.586C410.383 97.6638 410.207 97.7557 410.037 97.8476C409.867 97.9395 409.698 98.0314 409.528 98.1374C409.233 98.3158 408.894 98.4101 408.549 98.4101C408.204 98.4101 407.865 98.3158 407.57 98.1374L405.498 96.8508L401.313 103.588L403.37 104.868C403.665 105.053 403.902 105.316 404.055 105.628C404.209 105.94 404.273 106.289 404.24 106.635C404.205 107.025 404.19 107.417 404.198 107.809C404.208 108.155 404.122 108.497 403.95 108.798C403.778 109.099 403.526 109.346 403.222 109.512L401.101 110.658L404.834 117.614L406.955 116.476C407.26 116.312 407.605 116.237 407.951 116.258C408.297 116.279 408.63 116.396 408.913 116.596C409.237 116.821 409.572 117.028 409.917 117.218C410.223 117.383 410.478 117.629 410.653 117.93C410.827 118.231 410.915 118.574 410.907 118.922L410.829 121.34L418.718 121.587L418.796 119.162C418.812 118.817 418.922 118.482 419.115 118.195C419.309 117.908 419.577 117.68 419.892 117.536C420.069 117.451 420.245 117.367 420.415 117.268L420.924 116.985C421.221 116.803 421.562 116.707 421.91 116.707C422.258 116.707 422.6 116.803 422.897 116.985L424.947 118.208ZM418.266 113.224C417.139 113.826 415.859 114.08 414.588 113.955C413.316 113.829 412.111 113.33 411.123 112.519C410.135 111.709 409.41 110.624 409.039 109.401C408.668 108.179 408.667 106.874 409.038 105.651C409.408 104.428 410.133 103.343 411.12 102.532C412.107 101.721 413.312 101.22 414.584 101.094C415.855 100.968 417.135 101.222 418.262 101.823C419.39 102.424 420.314 103.346 420.917 104.472C421.318 105.22 421.568 106.041 421.652 106.886C421.736 107.731 421.652 108.585 421.406 109.397C421.16 110.21 420.756 110.967 420.217 111.623C419.678 112.28 419.015 112.824 418.266 113.224Z" fill="#D1D8E0"/>
<path d="M87.6925 304.215L84.9141 299.415L83.4507 300.264C83.2351 300.392 82.9872 300.455 82.7365 300.446C82.4858 300.438 82.2429 300.357 82.0368 300.214C81.8091 300.064 81.5731 299.927 81.3298 299.804C81.1155 299.692 80.9362 299.524 80.8115 299.317C80.6867 299.11 80.6215 298.872 80.6229 298.63V296.941H75.0874V298.63C75.0888 298.872 75.0236 299.11 74.8988 299.317C74.7741 299.524 74.5948 299.692 74.3805 299.804C74.1372 299.927 73.9012 300.064 73.6735 300.214C73.4674 300.357 73.2245 300.438 72.9738 300.446C72.7231 300.455 72.4752 300.392 72.2596 300.264L70.7962 299.415L68.032 304.208L69.5024 305.057C69.7121 305.18 69.8833 305.358 69.9969 305.573C70.1105 305.788 70.1621 306.03 70.1458 306.273C70.1458 306.407 70.1458 306.548 70.1458 306.683C70.1458 306.817 70.1458 306.951 70.1458 307.086C70.1629 307.328 70.1117 307.571 69.998 307.786C69.8843 308.001 69.7126 308.179 69.5024 308.302L68.032 309.157L70.7962 313.95L72.2667 313.102C72.4823 312.974 72.7302 312.91 72.9809 312.919C73.2316 312.928 73.4745 313.008 73.6806 313.151C73.9068 313.3 74.1472 313.434 74.3875 313.561C74.6013 313.672 74.7804 313.839 74.9051 314.045C75.0298 314.251 75.0954 314.487 75.0945 314.728V316.425H80.6229V314.728C80.622 314.487 80.6875 314.251 80.8123 314.045C80.937 313.839 81.1161 313.672 81.3298 313.561C81.5702 313.434 81.8106 313.3 82.0368 313.151C82.2391 313.015 82.4754 312.939 82.719 312.93C82.9626 312.921 83.2038 312.981 83.4154 313.102L84.8858 313.95L87.65 309.157L86.1796 308.309C85.9718 308.184 85.8025 308.005 85.6902 307.79C85.5779 307.576 85.5271 307.334 85.5433 307.093C85.5433 306.958 85.5433 306.817 85.5433 306.683C85.5433 306.548 85.5433 306.407 85.5433 306.273C85.527 306.03 85.5786 305.788 85.6922 305.573C85.8058 305.358 85.977 305.18 86.1866 305.057L87.6925 304.215ZM82.4044 306.69C82.4044 307.586 82.1385 308.463 81.6402 309.208C81.142 309.953 80.4338 310.534 79.6053 310.877C78.7769 311.22 77.8654 311.309 76.9861 311.134C76.1069 310.958 75.2995 310.526 74.666 309.892C74.0325 309.257 73.6015 308.449 73.4274 307.569C73.2534 306.69 73.3441 305.779 73.6882 304.951C74.0323 304.123 74.6142 303.415 75.3603 302.918C76.1065 302.421 76.9833 302.157 77.8799 302.158C78.4737 302.159 79.0616 302.277 79.6097 302.505C80.1579 302.734 80.6557 303.068 81.0746 303.489C81.4936 303.91 81.8254 304.409 82.0511 304.958C82.2769 305.508 82.3921 306.096 82.3903 306.69H82.4044Z" fill="#D1D8E0"/>
<path d="M65.1968 233.732C60.9363 233.732 56.7716 234.995 53.2292 237.362C49.6868 239.729 46.9259 243.093 45.2955 247.029C43.6651 250.966 43.2385 255.297 44.0697 259.475C44.9008 263.654 46.9524 267.492 49.965 270.505C52.9775 273.517 56.8158 275.569 60.9943 276.4C65.1729 277.231 69.504 276.804 73.4401 275.174C77.3762 273.544 80.7405 270.783 83.1074 267.24C85.4744 263.698 86.7377 259.533 86.7377 255.273C86.7387 252.444 86.1821 249.642 85.0999 247.028C84.0177 244.414 82.431 242.039 80.4306 240.039C78.4301 238.038 76.0551 236.452 73.4412 235.37C70.8273 234.287 68.0258 233.731 65.1968 233.732ZM65.1968 265.326C63.2068 265.326 61.2615 264.736 59.607 263.63C57.9525 262.524 56.6631 260.953 55.9019 259.114C55.1406 257.275 54.9418 255.252 55.3306 253.301C55.7193 251.349 56.6781 249.556 58.0858 248.15C59.4934 246.743 61.2866 245.786 63.2385 245.398C65.1904 245.011 67.2133 245.211 69.0514 245.974C70.8895 246.736 72.4602 248.027 73.5648 249.682C74.6693 251.337 75.2581 253.283 75.2568 255.273C75.2568 256.594 74.9965 257.901 74.4908 259.122C73.9852 260.342 73.2441 261.45 72.3098 262.384C71.3756 263.317 70.2665 264.058 69.046 264.563C67.8255 265.067 66.5175 265.327 65.1968 265.326Z" fill="#D1D8E0"/>
<path d="M69.3397 234.623H61.0542L61.5137 228.762H68.8802L69.3397 234.623Z" fill="#D1D8E0"/>
<path d="M53.5681 237.415L47.7145 243.269L43.8899 238.801L49.1002 233.59L53.5681 237.415Z" fill="#D1D8E0"/>
<path d="M44.3985 250.536V258.822L38.5308 258.362V250.996L44.3985 250.536Z" fill="#D1D8E0"/>
<path d="M47.184 266.301L53.0447 272.162L48.5767 275.987L43.3665 270.776L47.184 266.301Z" fill="#D1D8E0"/>
<path d="M60.3118 275.478H68.5902L68.1378 281.345H60.7713L60.3118 275.478Z" fill="#D1D8E0"/>
<path d="M76.0776 272.685L81.9383 266.832L85.7559 271.3L80.5456 276.51L76.0776 272.685Z" fill="#D1D8E0"/>
<path d="M85.2537 259.564V251.278L91.1143 251.738V259.112L85.2537 259.564Z" fill="#D1D8E0"/>
<path d="M82.4608 243.799L76.6072 237.938L81.0751 234.121L86.2854 239.324L82.4608 243.799Z" fill="#D1D8E0"/>
<path d="M461.582 127.504C457.32 127.504 453.154 128.768 449.61 131.136C446.067 133.504 443.305 136.869 441.674 140.806C440.043 144.744 439.616 149.076 440.447 153.256C441.279 157.436 443.331 161.276 446.345 164.289C449.358 167.303 453.198 169.355 457.378 170.186C461.558 171.018 465.89 170.591 469.828 168.96C473.765 167.329 477.13 164.567 479.498 161.024C481.866 157.48 483.13 153.314 483.13 149.052C483.13 146.222 482.574 143.42 481.491 140.805C480.409 138.191 478.821 135.815 476.82 133.814C474.819 131.812 472.443 130.225 469.829 129.143C467.214 128.06 464.412 127.503 461.582 127.504ZM461.582 159.105C459.592 159.104 457.647 158.513 455.994 157.406C454.34 156.299 453.052 154.727 452.292 152.889C451.532 151.05 451.334 149.027 451.723 147.076C452.113 145.125 453.072 143.333 454.48 141.927C455.888 140.521 457.681 139.564 459.633 139.177C461.585 138.791 463.607 138.991 465.445 139.754C467.283 140.517 468.853 141.807 469.957 143.462C471.061 145.117 471.65 147.063 471.649 149.052C471.649 150.374 471.388 151.682 470.882 152.903C470.376 154.123 469.634 155.232 468.699 156.166C467.764 157.1 466.654 157.84 465.433 158.344C464.212 158.849 462.903 159.107 461.582 159.105Z" fill="#D1D8E0"/>
<path d="M465.724 128.402H457.439L457.898 122.535H465.272L465.724 128.402Z" fill="#D1D8E0"/>
<path d="M449.959 131.195L444.098 137.048L440.281 132.58L445.491 127.37L449.959 131.195Z" fill="#D1D8E0"/>
<path d="M440.782 144.316V152.601L434.922 152.142V144.775L440.782 144.316Z" fill="#D1D8E0"/>
<path d="M443.575 160.081L449.428 165.942L444.961 169.759L439.75 164.556L443.575 160.081Z" fill="#D1D8E0"/>
<path d="M456.696 169.257H464.981L464.522 175.125H457.155L456.696 169.257Z" fill="#D1D8E0"/>
<path d="M472.461 166.465L478.322 160.611L482.147 165.079L476.936 170.289L472.461 166.465Z" fill="#D1D8E0"/>
<path d="M481.636 153.344V145.058L487.504 145.518V152.884L481.636 153.344Z" fill="#D1D8E0"/>
<path d="M478.853 137.579L472.992 131.718L477.46 127.893L482.67 133.103L478.853 137.579Z" fill="#D1D8E0"/>
<path d="M404.855 275.506L404.155 279.776L403.413 284.364L396.583 326.209H385.428L392.25 284.364L392.999 279.776L393.692 275.506H404.855Z" fill="#D1D8E0"/>
<path d="M403.235 275.506C402.648 279.748 402.012 283.989 401.375 288.231L399.41 300.914L397.339 313.554L396.278 319.917L395.175 326.237L396.08 319.874L397.035 313.512L399 300.829L401.064 288.16C401.764 283.94 402.478 279.719 403.235 275.506Z" fill="#E5E5E5"/>
<path d="M404.155 279.776L403.413 284.364H392.25L392.999 279.776H404.155Z" fill="#E5E5E5"/>
<path d="M459.947 275.506L460.64 279.776L461.389 284.364L468.211 326.209H479.374L472.552 284.364L471.802 279.776L471.11 275.506H459.947Z" fill="#D1D8E0"/>
<path d="M461.603 275.506C462.189 279.748 462.819 283.989 463.462 288.231L465.427 300.914L467.491 313.554L468.552 319.882L469.662 326.202L468.757 319.839L467.803 313.477L465.837 300.829L463.794 288.153C463.087 283.94 462.38 279.719 461.603 275.506Z" fill="#E5E5E5"/>
<path d="M460.64 279.776H471.803L472.552 284.364H461.39L460.64 279.776Z" fill="#E5E5E5"/>
<path d="M404.444 263.735H395.593L396.696 255.485H403.349L404.444 263.735Z" fill="#E5E5E5"/>
<path d="M408.27 249.589C408.271 251.221 407.789 252.817 406.883 254.174C405.977 255.532 404.689 256.591 403.182 257.216C401.674 257.842 400.015 258.006 398.415 257.688C396.814 257.371 395.343 256.586 394.188 255.432C393.034 254.279 392.247 252.809 391.929 251.208C391.61 249.607 391.773 247.948 392.397 246.44C393.021 244.932 394.079 243.643 395.435 242.737C396.792 241.83 398.388 241.346 400.02 241.346C401.103 241.345 402.175 241.557 403.176 241.971C404.177 242.385 405.087 242.992 405.853 243.758C406.619 244.523 407.227 245.432 407.642 246.433C408.056 247.433 408.27 248.506 408.27 249.589Z" fill="#F2F2F2"/>
<path d="M406.29 249.589C406.292 250.829 405.925 252.042 405.237 253.075C404.549 254.107 403.57 254.912 402.424 255.387C401.278 255.863 400.017 255.988 398.8 255.747C397.584 255.506 396.466 254.909 395.588 254.032C394.71 253.156 394.112 252.038 393.87 250.822C393.627 249.605 393.751 248.344 394.225 247.198C394.7 246.052 395.504 245.072 396.535 244.382C397.566 243.693 398.779 243.325 400.019 243.325C401.681 243.325 403.275 243.985 404.451 245.159C405.627 246.334 406.288 247.927 406.29 249.589Z" fill="white"/>
<path d="M405.266 249.221C405.208 248.473 404.997 247.745 404.644 247.083C404.291 246.421 403.804 245.84 403.215 245.375C402.621 244.912 401.938 244.575 401.208 244.386C400.479 244.196 399.718 244.157 398.974 244.273C398.237 244.387 397.534 244.656 396.909 245.062C396.284 245.468 395.751 246.001 395.347 246.627C394.921 247.29 394.642 248.037 394.527 248.817C394.412 249.597 394.465 250.393 394.682 251.151C395.063 252.465 395.944 253.577 397.136 254.248C398.297 254.907 399.661 255.116 400.967 254.834C402.235 254.568 403.373 253.874 404.191 252.869C404.996 251.877 405.459 250.653 405.513 249.377C405.513 249.313 405.513 249.264 405.463 249.264C405.414 249.264 405.407 249.306 405.407 249.37C405.379 249.885 405.279 250.395 405.11 250.883C404.935 251.364 404.697 251.82 404.403 252.24C404.109 252.658 403.765 253.038 403.378 253.371C402.978 253.701 402.542 253.983 402.077 254.212C401.416 254.523 400.697 254.693 399.967 254.71C399.236 254.727 398.51 254.591 397.835 254.311C397.15 254.022 396.535 253.589 396.034 253.039C395.532 252.49 395.155 251.839 394.93 251.13C394.7 250.402 394.631 249.632 394.726 248.875C394.821 248.117 395.079 247.389 395.481 246.74C395.868 246.121 396.384 245.593 396.995 245.193C397.605 244.793 398.294 244.529 399.016 244.421C400.239 244.198 401.502 244.416 402.58 245.036C403.659 245.656 404.482 246.638 404.905 247.807C405.073 248.278 405.184 248.767 405.237 249.264L405.266 249.221Z" fill="#D1D8E0"/>
<path d="M404.529 249.221C404.472 248.581 404.285 247.958 403.979 247.393C403.672 246.828 403.253 246.331 402.748 245.934C402.241 245.544 401.662 245.259 401.044 245.095C400.426 244.931 399.782 244.892 399.149 244.979C398.515 245.074 397.907 245.301 397.367 245.645C396.826 245.99 396.364 246.445 396.01 246.98C395.637 247.552 395.389 248.198 395.285 248.873C395.18 249.548 395.22 250.238 395.402 250.897C395.558 251.466 395.826 251.999 396.19 252.464C396.554 252.929 397.008 253.316 397.523 253.604C398.537 254.18 399.729 254.359 400.867 254.106C401.964 253.864 402.947 253.256 403.652 252.381C404.35 251.519 404.754 250.456 404.805 249.348C404.805 249.299 404.805 249.257 404.748 249.257C404.692 249.257 404.692 249.292 404.692 249.348C404.633 250.233 404.34 251.086 403.843 251.82C403.346 252.554 402.663 253.143 401.864 253.527C401.289 253.806 400.662 253.959 400.023 253.978C399.384 253.996 398.749 253.878 398.159 253.633C397.565 253.384 397.032 253.008 396.599 252.53C396.167 252.052 395.845 251.485 395.657 250.868C395.461 250.239 395.405 249.575 395.492 248.922C395.578 248.269 395.806 247.643 396.159 247.086C396.494 246.56 396.94 246.112 397.464 245.774C397.989 245.436 398.581 245.216 399.199 245.128C400.241 244.946 401.313 245.133 402.232 245.657C403.151 246.181 403.858 247.009 404.232 247.998C404.378 248.4 404.478 248.818 404.529 249.242C404.531 249.235 404.531 249.228 404.529 249.221Z" fill="#D1D8E0"/>
<path d="M403.794 249.221C403.739 248.69 403.577 248.174 403.318 247.707C403.059 247.239 402.709 246.828 402.288 246.499C401.436 245.848 400.361 245.559 399.297 245.693C398.766 245.765 398.255 245.948 397.8 246.23C397.344 246.513 396.953 246.889 396.653 247.334C396.329 247.813 396.112 248.357 396.016 248.927C395.919 249.498 395.946 250.083 396.095 250.642C396.223 251.13 396.449 251.587 396.759 251.986C397.069 252.384 397.456 252.716 397.898 252.961C398.757 253.443 399.764 253.591 400.725 253.378C401.656 253.165 402.486 252.642 403.08 251.893C403.661 251.159 403.999 250.262 404.048 249.327C404.048 249.285 404.048 249.249 403.999 249.249C403.949 249.249 403.942 249.249 403.935 249.327C403.883 250.077 403.632 250.8 403.208 251.421C402.784 252.042 402.203 252.539 401.524 252.862C401.042 253.103 400.513 253.238 399.974 253.258C399.435 253.277 398.898 253.181 398.4 252.975C397.895 252.766 397.443 252.448 397.077 252.043C396.71 251.638 396.437 251.158 396.279 250.635C396.121 250.103 396.079 249.544 396.157 248.995C396.236 248.446 396.431 247.92 396.731 247.454C397.017 247.02 397.393 246.654 397.833 246.379C398.274 246.104 398.768 245.928 399.283 245.863C399.967 245.781 400.66 245.863 401.305 246.103C401.97 246.341 402.555 246.76 402.995 247.312C403.204 247.594 403.377 247.9 403.511 248.224C403.635 248.558 403.723 248.904 403.772 249.257C403.779 249.253 403.784 249.248 403.788 249.242C403.791 249.235 403.793 249.228 403.794 249.221Z" fill="#D1D8E0"/>
<path d="M403.058 249.221C402.948 248.367 402.503 247.592 401.821 247.065C401.142 246.556 400.297 246.322 399.453 246.408C399.022 246.459 398.607 246.599 398.235 246.821C397.862 247.043 397.54 247.34 397.29 247.694C397.018 248.084 396.833 248.527 396.746 248.994C396.66 249.461 396.674 249.941 396.788 250.402C396.888 250.808 397.07 251.189 397.325 251.521C397.579 251.853 397.899 252.129 398.265 252.332C398.986 252.733 399.832 252.846 400.634 252.65C401.396 252.466 402.073 252.03 402.556 251.413C403.029 250.803 403.302 250.062 403.341 249.292C403.342 249.284 403.342 249.277 403.34 249.27C403.338 249.262 403.334 249.256 403.33 249.25C403.325 249.244 403.319 249.239 403.313 249.235C403.306 249.231 403.299 249.229 403.292 249.228C403.275 249.23 403.26 249.237 403.248 249.249C403.237 249.26 403.23 249.276 403.228 249.292C403.169 249.891 402.959 250.465 402.616 250.96C402.273 251.455 401.81 251.854 401.27 252.12C400.879 252.322 400.45 252.438 400.01 252.459C399.571 252.479 399.133 252.405 398.725 252.24C398.311 252.07 397.942 251.809 397.644 251.476C397.347 251.143 397.129 250.747 397.007 250.317C396.884 249.886 396.857 249.433 396.926 248.99C396.996 248.546 397.161 248.124 397.41 247.751C397.644 247.407 397.95 247.119 398.306 246.905C398.662 246.692 399.061 246.558 399.474 246.514C400.013 246.466 400.556 246.536 401.065 246.719C401.578 246.908 402.032 247.23 402.38 247.652C402.546 247.87 402.686 248.107 402.797 248.359C402.905 248.622 402.983 248.898 403.03 249.179C403.03 249.179 403.065 249.257 403.058 249.221Z" fill="#D1D8E0"/>
<path d="M469.011 263.735H460.16L461.263 255.485H467.915L469.011 263.735Z" fill="#E5E5E5"/>
<path d="M472.836 249.589C472.838 251.221 472.355 252.817 471.449 254.174C470.544 255.532 469.256 256.591 467.748 257.216C466.241 257.842 464.582 258.006 462.981 257.688C461.38 257.371 459.909 256.586 458.755 255.432C457.6 254.279 456.814 252.809 456.495 251.208C456.176 249.607 456.339 247.948 456.963 246.44C457.588 244.932 458.645 243.643 460.002 242.737C461.359 241.83 462.954 241.346 464.586 241.346C466.773 241.346 468.87 242.214 470.417 243.76C471.964 245.305 472.834 247.402 472.836 249.589Z" fill="#F2F2F2"/>
<path d="M470.863 249.589C470.864 250.829 470.498 252.042 469.809 253.075C469.121 254.107 468.142 254.912 466.997 255.387C465.851 255.863 464.59 255.988 463.373 255.747C462.156 255.506 461.038 254.909 460.16 254.032C459.283 253.156 458.685 252.038 458.442 250.822C458.2 249.605 458.324 248.344 458.798 247.198C459.272 246.052 460.076 245.072 461.107 244.382C462.139 243.693 463.351 243.325 464.592 243.325C466.254 243.325 467.848 243.985 469.024 245.159C470.199 246.334 470.861 247.927 470.863 249.589Z" fill="white"/>
<path d="M469.825 249.221C469.771 248.473 469.561 247.745 469.209 247.083C468.857 246.42 468.371 245.839 467.782 245.375C467.187 244.912 466.504 244.575 465.775 244.386C465.045 244.196 464.285 244.157 463.54 244.273C462.804 244.387 462.1 244.656 461.475 245.062C460.85 245.468 460.318 246.001 459.913 246.627C459.487 247.29 459.208 248.037 459.093 248.817C458.979 249.597 459.032 250.393 459.249 251.151C459.629 252.465 460.51 253.577 461.702 254.248C462.864 254.907 464.228 255.116 465.534 254.834C466.802 254.568 467.94 253.874 468.757 252.869C469.562 251.877 470.026 250.653 470.079 249.377C470.079 249.313 470.079 249.264 470.03 249.264C469.98 249.264 469.973 249.306 469.973 249.37C469.946 249.885 469.846 250.395 469.676 250.883C469.498 251.363 469.261 251.819 468.969 252.24C468.676 252.658 468.331 253.038 467.944 253.371C467.545 253.701 467.108 253.983 466.644 254.212C465.978 254.528 465.252 254.701 464.516 254.718C463.779 254.735 463.046 254.596 462.366 254.311C461.681 254.022 461.066 253.589 460.565 253.039C460.063 252.49 459.687 251.839 459.461 251.13C459.231 250.402 459.162 249.632 459.257 248.875C459.352 248.117 459.61 247.389 460.012 246.74C460.398 246.12 460.915 245.592 461.525 245.192C462.135 244.792 462.825 244.529 463.547 244.421C464.773 244.194 466.039 244.411 467.12 245.031C468.201 245.651 469.027 246.635 469.45 247.807C469.618 248.278 469.73 248.767 469.782 249.264C469.794 249.264 469.804 249.259 469.812 249.251C469.82 249.243 469.825 249.232 469.825 249.221Z" fill="#D1D8E0"/>
<path d="M469.095 249.221C469.039 248.581 468.851 247.958 468.545 247.393C468.239 246.828 467.82 246.331 467.314 245.934C466.807 245.544 466.228 245.259 465.611 245.095C464.993 244.931 464.349 244.892 463.716 244.979C463.081 245.074 462.474 245.301 461.933 245.645C461.392 245.99 460.93 246.445 460.577 246.98C460.203 247.552 459.956 248.198 459.851 248.873C459.746 249.548 459.786 250.238 459.969 250.897C460.125 251.466 460.393 251.999 460.757 252.464C461.121 252.929 461.574 253.316 462.09 253.604C463.104 254.18 464.295 254.359 465.433 254.106C466.531 253.864 467.513 253.256 468.219 252.381C468.917 251.52 469.319 250.456 469.364 249.348C469.364 249.299 469.364 249.257 469.315 249.257C469.265 249.257 469.258 249.292 469.258 249.348C469.199 250.233 468.906 251.086 468.409 251.82C467.912 252.554 467.229 253.143 466.43 253.527C465.855 253.806 465.228 253.959 464.589 253.978C463.951 253.996 463.316 253.878 462.726 253.633C462.131 253.384 461.598 253.008 461.166 252.53C460.733 252.052 460.411 251.485 460.223 250.868C460.028 250.24 459.971 249.576 460.057 248.923C460.142 248.27 460.368 247.644 460.718 247.086C461.055 246.561 461.501 246.114 462.025 245.777C462.55 245.439 463.141 245.218 463.758 245.128C464.801 244.944 465.875 245.131 466.796 245.655C467.716 246.179 468.424 247.007 468.799 247.998C468.945 248.4 469.044 248.818 469.095 249.242C469.097 249.235 469.097 249.228 469.095 249.221Z" fill="#D1D8E0"/>
<path d="M468.36 249.221C468.305 248.69 468.143 248.175 467.885 247.707C467.626 247.239 467.275 246.829 466.854 246.499C466.003 245.846 464.929 245.554 463.864 245.686C463.332 245.758 462.822 245.941 462.366 246.223C461.91 246.506 461.52 246.882 461.22 247.327C460.896 247.806 460.678 248.35 460.582 248.92C460.486 249.491 460.513 250.076 460.661 250.635C460.79 251.123 461.016 251.58 461.326 251.979C461.635 252.377 462.023 252.709 462.464 252.954C463.323 253.436 464.33 253.584 465.292 253.371C466.223 253.158 467.053 252.635 467.646 251.886C468.227 251.152 468.566 250.255 468.615 249.32C468.615 249.278 468.615 249.242 468.565 249.242C468.516 249.242 468.509 249.242 468.501 249.32C468.445 250.069 468.192 250.79 467.769 251.41C467.346 252.03 466.767 252.529 466.091 252.855C465.608 253.096 465.08 253.231 464.541 253.251C464.002 253.27 463.465 253.174 462.966 252.968C462.461 252.76 462.009 252.442 461.642 252.037C461.275 251.632 461.003 251.151 460.845 250.628C460.687 250.096 460.646 249.537 460.724 248.988C460.802 248.439 460.998 247.913 461.298 247.447C461.583 247.013 461.959 246.647 462.4 246.372C462.84 246.098 463.335 245.922 463.85 245.856C464.533 245.774 465.226 245.856 465.872 246.096C466.52 246.342 467.09 246.76 467.519 247.305C467.728 247.587 467.901 247.893 468.035 248.217C468.159 248.551 468.247 248.897 468.296 249.25C468.302 249.253 468.309 249.255 468.316 249.256C468.323 249.256 468.329 249.255 468.336 249.252C468.342 249.249 468.347 249.245 468.352 249.24C468.356 249.234 468.359 249.228 468.36 249.221Z" fill="#D1D8E0"/>
<path d="M467.625 249.221C467.514 248.367 467.069 247.592 466.388 247.065C465.709 246.556 464.863 246.322 464.019 246.408C463.589 246.459 463.174 246.599 462.801 246.821C462.428 247.043 462.106 247.34 461.856 247.694C461.585 248.084 461.399 248.527 461.313 248.994C461.226 249.461 461.24 249.941 461.354 250.402C461.454 250.808 461.637 251.189 461.891 251.521C462.145 251.853 462.466 252.129 462.832 252.332C463.553 252.733 464.399 252.847 465.2 252.65C465.962 252.466 466.64 252.03 467.123 251.413C467.592 250.801 467.866 250.062 467.908 249.292C467.909 249.284 467.908 249.277 467.906 249.27C467.904 249.262 467.901 249.256 467.896 249.25C467.892 249.244 467.886 249.239 467.879 249.235C467.873 249.231 467.866 249.229 467.858 249.228C467.842 249.23 467.826 249.237 467.815 249.249C467.803 249.26 467.796 249.276 467.794 249.292C467.736 249.891 467.525 250.465 467.183 250.96C466.84 251.455 466.376 251.854 465.836 252.12C465.446 252.322 465.016 252.438 464.577 252.459C464.138 252.479 463.699 252.405 463.291 252.24C462.878 252.07 462.508 251.809 462.211 251.476C461.913 251.143 461.695 250.747 461.573 250.317C461.451 249.886 461.423 249.433 461.493 248.99C461.562 248.546 461.727 248.124 461.976 247.751C462.21 247.407 462.516 247.119 462.872 246.905C463.229 246.692 463.627 246.558 464.041 246.514C464.579 246.466 465.122 246.536 465.631 246.719C466.143 246.906 466.595 247.229 466.939 247.652C467.11 247.868 467.253 248.106 467.363 248.359C467.472 248.622 467.55 248.898 467.597 249.179C467.597 249.179 467.625 249.257 467.625 249.221Z" fill="#D1D8E0"/>
<path d="M488.008 259.529H376.803V280.801H488.008V259.529Z" fill="#F2F2F2"/>
<path d="M399.651 259.529L391.585 280.801H377.219L385.293 259.529H399.651Z" fill="#D1D8E0"/>
<path d="M429.089 259.529L421.023 280.801H406.657L414.724 259.529H429.089Z" fill="#D1D8E0"/>
<path d="M458.527 259.529L450.453 280.801H436.095L444.168 259.529H458.527Z" fill="#D1D8E0"/>
<path d="M487.964 259.529L479.89 280.801H465.525L473.598 259.529H487.964Z" fill="#D1D8E0"/>
<path d="M485.751 300.461H379.05V313.922H485.751V300.461Z" fill="#F2F2F2"/>
<path d="M400.981 300.461L393.24 313.922H379.462L387.203 300.461H400.981Z" fill="#D1D8E0"/>
<path d="M429.223 300.461L421.482 313.922H407.696L415.444 300.461H429.223Z" fill="#D1D8E0"/>
<path d="M457.466 300.461L449.725 313.922H435.946L443.687 300.461H457.466Z" fill="#D1D8E0"/>
<path d="M485.717 300.461L477.968 313.922H464.183L471.931 300.461H485.717Z" fill="#D1D8E0"/>
<path d="M346.168 392.472C417.291 392.472 474.948 388.579 474.948 383.776C474.948 378.974 417.291 375.081 346.168 375.081C275.046 375.081 217.389 378.974 217.389 383.776C217.389 388.579 275.046 392.472 346.168 392.472Z" fill="#D1D8E0"/>
<path d="M38.0344 326.195L94.2799 326.025L150.525 325.961L263.016 325.848L375.507 325.961L431.753 326.025L487.998 326.195L431.753 326.371L375.507 326.435L263.016 326.548L150.525 326.435L94.2799 326.371L38.0344 326.195Z" fill="#38485C"/>
<path d="M398.773 146.642H127.259V328.266H398.773V146.642Z" fill="#F2F2F2"/>
<path d="M396.801 148.862H129.232V326.053H396.801V148.862Z" fill="#38485C"/>
<path d="M434.135 341.882H91.8975V354.346H434.135V341.882Z" fill="#E5E5E5"/>
<path d="M91.8975 341.882L127.259 328.266H398.773L434.135 341.882H91.8975Z" fill="#F2F2F2"/>
<path d="M130.42 337.053L153.24 328.266H372.793L395.614 337.053H130.42Z" fill="#38485C"/>
<path d="M381.884 162.258H144.155V312.649H381.884V162.258Z" fill="white"/>
<path d="M381.884 162.258H144.155V168.048H381.884V162.258Z" fill="#69788A"/>
<path d="M148.751 165.15C148.751 165.43 148.668 165.703 148.513 165.935C148.358 166.168 148.137 166.349 147.879 166.456C147.62 166.563 147.336 166.591 147.062 166.537C146.787 166.482 146.535 166.347 146.338 166.15C146.14 165.952 146.005 165.7 145.951 165.426C145.896 165.151 145.924 164.867 146.031 164.609C146.138 164.35 146.319 164.13 146.552 163.974C146.784 163.819 147.058 163.736 147.337 163.736C147.712 163.736 148.072 163.885 148.337 164.15C148.602 164.415 148.751 164.775 148.751 165.15Z" fill="#FFD633"/>
<path d="M154.612 165.15C154.612 165.43 154.529 165.703 154.373 165.935C154.218 166.168 153.997 166.349 153.739 166.456C153.481 166.563 153.196 166.591 152.922 166.537C152.648 166.482 152.396 166.347 152.198 166.15C152 165.952 151.866 165.7 151.811 165.426C151.757 165.151 151.785 164.867 151.892 164.609C151.999 164.35 152.18 164.13 152.412 163.974C152.645 163.819 152.918 163.736 153.198 163.736C153.573 163.736 153.932 163.885 154.198 164.15C154.463 164.415 154.612 164.775 154.612 165.15Z" fill="#D1D8E0"/>
<path d="M160.508 165.15C160.508 165.43 160.425 165.703 160.269 165.935C160.114 166.168 159.893 166.349 159.635 166.456C159.376 166.563 159.092 166.591 158.818 166.537C158.543 166.482 158.292 166.347 158.094 166.15C157.896 165.952 157.761 165.7 157.707 165.426C157.652 165.151 157.68 164.867 157.787 164.609C157.894 164.35 158.076 164.13 158.308 163.974C158.541 163.819 158.814 163.736 159.094 163.736C159.469 163.736 159.828 163.885 160.093 164.15C160.359 164.415 160.508 164.775 160.508 165.15Z" fill="white"/>
<path d="M257.834 266.146H301.15V232.912H257.834V266.146Z" fill="#D1D8E0"/>
<path d="M262.14 240.186C261.974 241.015 262.08 241.875 262.441 242.639C262.801 243.404 263.398 244.031 264.144 244.43C264.889 244.829 265.742 244.977 266.578 244.854C267.414 244.73 268.188 244.34 268.786 243.743C269.383 243.145 269.773 242.371 269.897 241.535C270.021 240.699 269.872 239.845 269.473 239.1C269.075 238.355 268.447 237.758 267.683 237.397C266.918 237.037 266.058 236.931 265.23 237.097C264.467 237.249 263.767 237.624 263.217 238.174C262.667 238.724 262.293 239.424 262.14 240.186Z" fill="white"/>
<path d="M272.122 258.991H301.142L286.629 241.105L272.122 258.991Z" fill="#E5E5E5"/>
<path d="M257.828 259.006H283.568L270.702 247.355L257.828 259.006Z" fill="#F2F2F2"/>
<path d="M301.143 258.991H257.828V266.153H301.143V258.991Z" fill="#F2F2F2"/>
<path d="M188.426 232.919H155.891V235.655H188.426V232.919Z" fill="#F2F2F2"/>
<path d="M250.044 239.267H155.891V242.003H250.044V239.267Z" fill="#F2F2F2"/>
<path d="M250.044 245.291H155.891V248.026H250.044V245.291Z" fill="#F2F2F2"/>
<path d="M250.044 251.314H155.891V254.05H250.044V251.314Z" fill="#F2F2F2"/>
<path d="M250.044 257.337H155.891V260.073H250.044V257.337Z" fill="#F2F2F2"/>
<path d="M250.044 263.353H155.891V266.089H250.044V263.353Z" fill="#F2F2F2"/>
<path d="M266.834 179.183H234.3V186.507H266.834V179.183Z" fill="#F2F2F2"/>
<path d="M301.142 191.555H234.3V194.291H301.142V191.555Z" fill="#F2F2F2"/>
<path d="M301.142 197.578H234.3V200.314H301.142V197.578Z" fill="#F2F2F2"/>
<path d="M301.142 203.601H234.3V206.337H301.142V203.601Z" fill="#F2F2F2"/>
<path d="M301.142 209.625H234.3V212.36H301.142V209.625Z" fill="#F2F2F2"/>
<path d="M301.142 217.634H234.3V220.37H301.142V217.634Z" fill="#F2F2F2"/>
<path d="M301.142 223.658H234.3V226.394H301.142V223.658Z" fill="#F2F2F2"/>
<path d="M370.135 179.183H310.637V186.634H370.135V179.183Z" fill="#FFD633"/>
<path d="M369.979 186.698H310.8V303.579H369.979V186.698Z" fill="white"/>
<path d="M370.142 303.77H310.637V186.507H370.142V303.77ZM310.962 303.388H369.81V186.889H310.962V303.388Z" fill="#F2F2F2"/>
<path d="M310.955 303.65L310.644 303.508L369.824 186.627L370.128 186.769L310.955 303.65Z" fill="#F2F2F2"/>
<path d="M369.824 303.65L310.644 186.769L310.955 186.627L370.128 303.508L369.824 303.65Z" fill="#F2F2F2"/>
<path d="M226.927 179.31H156.019V226.259H226.927V179.31Z" fill="white"/>
<path d="M155.905 226.394V226.273V179.204H156.025H227.046V226.394H226.962H155.905ZM156.131 179.438V226.153H226.827V179.445L156.131 179.438Z" fill="#F2F2F2"/>
<path d="M156.131 179.438C162.091 183.22 168.022 187.058 173.94 190.904L191.649 202.513L209.287 214.248L218.075 220.158L226.82 226.132L217.891 220.434L209.012 214.672L191.295 203.064L173.664 191.321C167.803 187.391 161.921 183.474 156.131 179.438Z" fill="#F2F2F2"/>
<path d="M226.813 179.438C220.995 183.446 215.141 187.391 209.28 191.321L191.649 203.064L173.94 214.672L165.053 220.434L156.131 226.132L164.876 220.158L173.657 214.248L191.288 202.513L209.005 190.904C214.943 187.058 220.846 183.22 226.813 179.438Z" fill="#F2F2F2"/>
<path d="M156.131 270.663V303.678H300.81V270.663H156.131Z" fill="white"/>
<path d="M301.051 270.571V303.798H155.891V270.571H301.051ZM300.57 303.586V270.755H156.351V303.586H300.57Z" fill="#F2F2F2"/>
<path d="M300.903 303.593L300.726 303.763L156.04 270.748L156.217 270.578L300.903 303.593Z" fill="#F2F2F2"/>
<path d="M300.903 270.748L156.217 303.763L156.04 303.593L300.726 270.578L300.903 270.748Z" fill="#F2F2F2"/>
<path d="M97.8983 150.527L82.7947 166.544L84.3531 168.013L99.4567 151.997L97.8983 150.527Z" fill="#38485C"/>
<path d="M99.0446 166.882H83.5764V169.024H99.0446V166.882Z" fill="#69788A"/>
<path d="M99.0446 150.191H83.5764V152.333H99.0446V150.191Z" fill="#69788A"/>
<path d="M84.3543 150.522L82.7957 151.991L97.8965 168.01L99.4552 166.541L84.3543 150.522Z" fill="#69788A"/>
<path d="M97.8964 167.218L82.7927 183.234L84.3512 184.704L99.4548 168.687L97.8964 167.218Z" fill="#38485C"/>
<path d="M99.0446 183.573H83.5764V185.715H99.0446V183.573Z" fill="#69788A"/>
<path d="M99.0446 166.882H83.5764V169.024H99.0446V166.882Z" fill="#69788A"/>
<path d="M84.3504 167.213L82.7917 168.682L97.8926 184.701L99.4513 183.232L84.3504 167.213Z" fill="#69788A"/>
<path d="M97.8944 183.907L82.7908 199.924L84.3492 201.393L99.4528 185.377L97.8944 183.907Z" fill="#38485C"/>
<path d="M99.0446 200.264H83.5764V202.406H99.0446V200.264Z" fill="#69788A"/>
<path d="M99.0446 183.573H83.5764V185.715H99.0446V183.573Z" fill="#69788A"/>
<path d="M84.3543 183.904L82.7957 185.373L97.8965 201.392L99.4552 199.923L84.3543 183.904Z" fill="#69788A"/>
<path d="M97.8993 200.597L82.7957 216.614L84.3541 218.083L99.4577 202.067L97.8993 200.597Z" fill="#38485C"/>
<path d="M99.0446 216.956H83.5764V219.098H99.0446V216.956Z" fill="#69788A"/>
<path d="M99.0446 200.264H83.5764V202.406H99.0446V200.264Z" fill="#69788A"/>
<path d="M84.3585 200.595L82.7998 202.065L97.9006 218.084L99.4593 216.614L84.3585 200.595Z" fill="#69788A"/>
<path d="M97.8973 217.294L82.7937 233.311L84.3521 234.78L99.4558 218.764L97.8973 217.294Z" fill="#38485C"/>
<path d="M99.0446 233.647H83.5764V235.789H99.0446V233.647Z" fill="#69788A"/>
<path d="M99.0446 216.956H83.5764V219.098H99.0446V216.956Z" fill="#69788A"/>
<path d="M84.3565 217.281L82.7979 218.75L97.8987 234.77L99.4574 233.3L84.3565 217.281Z" fill="#69788A"/>
<path d="M97.9025 233.984L82.7988 250.001L84.3573 251.47L99.4609 235.454L97.9025 233.984Z" fill="#38485C"/>
<path d="M99.0446 250.331H83.5764V252.473H99.0446V250.331Z" fill="#69788A"/>
<path d="M99.0446 233.647H83.5764V235.789H99.0446V233.647Z" fill="#69788A"/>
<path d="M84.3534 233.972L82.7947 235.442L97.8955 251.461L99.4542 249.991L84.3534 233.972Z" fill="#69788A"/>
<path d="M97.8954 250.669L82.7917 266.686L84.3502 268.155L99.4538 252.139L97.8954 250.669Z" fill="#38485C"/>
<path d="M99.0446 267.022H83.5764V269.165H99.0446V267.022Z" fill="#69788A"/>
<path d="M99.0446 250.331H83.5764V252.473H99.0446V250.331Z" fill="#69788A"/>
<path d="M84.3575 250.657L82.7988 252.126L97.8997 268.145L99.4583 266.676L84.3575 250.657Z" fill="#69788A"/>
<path d="M97.9005 267.352L82.7969 283.369L84.3553 284.838L99.4589 268.822L97.9005 267.352Z" fill="#38485C"/>
<path d="M99.0446 283.714H83.5764V285.856H99.0446V283.714Z" fill="#69788A"/>
<path d="M99.0446 267.022H83.5764V269.165H99.0446V267.022Z" fill="#69788A"/>
<path d="M84.3604 267.348L82.8018 268.817L97.9026 284.836L99.4613 283.367L84.3604 267.348Z" fill="#69788A"/>
<path d="M97.9054 284.035L82.8018 300.052L84.3602 301.521L99.4638 285.505L97.9054 284.035Z" fill="#38485C"/>
<path d="M99.0446 300.405H83.5764V302.547H99.0446V300.405Z" fill="#69788A"/>
<path d="M99.0446 283.714H83.5764V285.856H99.0446V283.714Z" fill="#69788A"/>
<path d="M84.3575 284.039L82.7988 285.508L97.8997 301.527L99.4583 300.058L84.3575 284.039Z" fill="#69788A"/>
<path d="M97.8988 300.738L82.8008 316.76L84.3597 318.229L99.4578 302.207L97.8988 300.738Z" fill="#38485C"/>
<path d="M99.0446 317.096H83.5764V319.238H99.0446V317.096Z" fill="#69788A"/>
<path d="M99.0446 300.405H83.5764V302.547H99.0446V300.405Z" fill="#69788A"/>
<path d="M84.3614 300.737L82.8027 302.206L97.9036 318.225L99.4623 316.756L84.3614 300.737Z" fill="#69788A"/>
<path d="M97.8927 317.424L82.7947 333.446L84.3536 334.915L99.4517 318.893L97.8927 317.424Z" fill="#38485C"/>
<path d="M99.0446 333.787H83.5764V335.929H99.0446V333.787Z" fill="#69788A"/>
<path d="M99.0446 317.096H83.5764V319.238H99.0446V317.096Z" fill="#69788A"/>
<path d="M84.3595 317.416L82.8008 318.885L97.9016 334.904L99.4603 333.435L84.3595 317.416Z" fill="#69788A"/>
<path d="M102.141 343.282V333.561H79.8298V343.282H102.141Z" fill="#69788A"/>
<path d="M85.415 334.169L85.415 151.067H79.823L79.823 334.169H85.415Z" fill="#69788A"/>
<path d="M102.141 334.169L102.141 151.067H96.5493L96.5493 334.169H102.141Z" fill="#69788A"/>
<path d="M249.11 149.759L232.398 133.287L91.3316 107.003L48.4617 133.415L47.3376 131.584L90.9145 104.74L233.43 131.301L250.616 148.225L249.11 149.759Z" fill="#69788A"/>
<path d="M108.341 135.599L91.162 111.718L74.7181 135.564L71.1833 133.125L91.0842 104.267L111.826 133.089L108.341 135.599Z" fill="#38485C"/>
<path d="M216.668 135.203L215.199 136.761L231.218 151.862L232.687 150.304L216.668 135.203Z" fill="#38485C"/>
<path d="M233.685 135.599H231.542V151.067H233.685V135.599Z" fill="#69788A"/>
<path d="M216.993 135.599H214.851V151.067H216.993V135.599Z" fill="#69788A"/>
<path d="M231.214 135.201L215.195 150.301L216.664 151.86L232.683 136.759L231.214 135.201Z" fill="#69788A"/>
<path d="M199.973 135.203L198.504 136.761L214.523 151.862L215.992 150.304L199.973 135.203Z" fill="#38485C"/>
<path d="M216.993 135.599H214.851V151.067H216.993V135.599Z" fill="#69788A"/>
<path d="M200.302 135.599H198.16V151.067H200.302V135.599Z" fill="#69788A"/>
<path d="M214.506 135.167L198.49 150.271L199.959 151.829L215.976 136.726L214.506 135.167Z" fill="#69788A"/>
<path d="M183.278 135.203L181.809 136.761L197.828 151.862L199.297 150.303L183.278 135.203Z" fill="#38485C"/>
<path d="M200.302 135.599H198.16V151.067H200.302V135.599Z" fill="#69788A"/>
<path d="M183.611 135.599H181.469V151.067H183.611V135.599Z" fill="#69788A"/>
<path d="M197.817 135.166L181.801 150.27L183.27 151.828L199.287 136.725L197.817 135.166Z" fill="#69788A"/>
<path d="M166.59 135.203L165.12 136.761L181.139 151.862L182.609 150.303L166.59 135.203Z" fill="#38485C"/>
<path d="M183.611 135.599H181.469V151.067H183.611V135.599Z" fill="#69788A"/>
<path d="M166.92 135.599H164.778V151.067H166.92V135.599Z" fill="#69788A"/>
<path d="M181.128 135.172L165.111 150.276L166.581 151.834L182.597 136.73L181.128 135.172Z" fill="#69788A"/>
<path d="M149.901 135.197L148.431 136.756L164.45 151.857L165.92 150.298L149.901 135.197Z" fill="#38485C"/>
<path d="M166.92 135.599H164.778V151.067H166.92V135.599Z" fill="#69788A"/>
<path d="M150.236 135.599H148.094V151.067H150.236V135.599Z" fill="#69788A"/>
<path d="M164.439 135.178L148.422 150.281L149.892 151.84L165.908 136.736L164.439 135.178Z" fill="#69788A"/>
<path d="M133.213 135.197L131.743 136.756L147.762 151.857L149.232 150.298L133.213 135.197Z" fill="#38485C"/>
<path d="M150.236 135.599H148.094V151.067H150.236V135.599Z" fill="#69788A"/>
<path d="M133.544 135.599H131.402V151.067H133.544V135.599Z" fill="#69788A"/>
<path d="M147.749 135.176L131.733 150.28L133.203 151.838L149.219 136.735L147.749 135.176Z" fill="#69788A"/>
<path d="M116.517 135.197L115.048 136.756L131.067 151.857L132.536 150.298L116.517 135.197Z" fill="#38485C"/>
<path d="M133.544 135.599H131.402V151.067H133.544V135.599Z" fill="#69788A"/>
<path d="M116.853 135.599H114.711V151.067H116.853V135.599Z" fill="#69788A"/>
<path d="M131.065 135.177L115.049 150.281L116.518 151.839L132.535 136.736L131.065 135.177Z" fill="#69788A"/>
<path d="M99.829 135.197L98.3596 136.756L114.379 151.857L115.848 150.298L99.829 135.197Z" fill="#38485C"/>
<path d="M116.853 135.599H114.711V151.067H116.853V135.599Z" fill="#69788A"/>
<path d="M100.161 135.599H98.019V151.067H100.161V135.599Z" fill="#69788A"/>
<path d="M114.376 135.176L98.3596 150.28L99.8292 151.838L115.846 136.734L114.376 135.176Z" fill="#69788A"/>
<path d="M83.1349 135.197L81.6655 136.756L97.6845 151.856L99.1539 150.298L83.1349 135.197Z" fill="#38485C"/>
<path d="M100.161 135.599H98.019V151.067H100.161V135.599Z" fill="#69788A"/>
<path d="M83.47 135.599H81.3279V151.067H83.47V135.599Z" fill="#69788A"/>
<path d="M97.68 135.175L81.6636 150.278L83.1332 151.837L99.1496 136.733L97.68 135.175Z" fill="#69788A"/>
<path d="M66.4466 135.197L64.9773 136.756L80.9963 151.856L82.4657 150.298L66.4466 135.197Z" fill="#38485C"/>
<path d="M83.47 135.599H81.3279V151.067H83.47V135.599Z" fill="#69788A"/>
<path d="M66.7788 135.599H64.6367V151.067H66.7788V135.599Z" fill="#69788A"/>
<path d="M80.9907 135.173L64.9744 150.277L66.444 151.836L82.4604 136.732L80.9907 135.173Z" fill="#69788A"/>
<path d="M50.145 135.313L48.667 136.877L64.7377 152.067L66.2157 150.503L50.145 135.313Z" fill="#38485C"/>
<path d="M66.7788 135.599H64.6367V151.067H66.7788V135.599Z" fill="#69788A"/>
<path d="M50.0876 135.599H47.9456V151.067H50.0876V135.599Z" fill="#69788A"/>
<path d="M64.3015 135.179L48.2852 150.283L49.7548 151.841L65.7712 136.738L64.3015 135.179Z" fill="#69788A"/>
<path d="M47.3166 131.548H37.6101V153.86H47.3166V131.548Z" fill="#38485C"/>
<path d="M57.0373 131.548H47.3167V153.86H57.0373V131.548Z" fill="#69788A"/>
<path d="M69.8683 153.86H51.2329V164.987H69.8683V153.86Z" fill="#69788A"/>
<path d="M250.616 148.268H47.3167V153.86H250.616V148.268Z" fill="#69788A"/>
<path d="M239.015 137.14H47.3167V131.548H233.55L239.015 137.14Z" fill="#69788A"/>
<path d="M237.34 135.599H235.198V151.067H237.34V135.599Z" fill="#69788A"/>
<path d="M159.037 214.672L172.469 212.523L185.901 210.445L212.794 206.394L212.865 206.387L212.935 206.401L257.686 218.009L280.054 223.87L302.394 229.808L279.962 224.216L257.551 218.539L212.759 207.08L212.9 207.087L185.979 210.968L172.519 212.855L159.037 214.672Z" fill="#38485C"/>
<path d="M204.628 156.143H202.486V187.815H204.628V156.143Z" fill="#38485C"/>
<path d="M222.777 156.85H220.635V188.522H222.777V156.85Z" fill="#38485C"/>
<path d="M226.926 153.86H198.64V158.42H226.926V153.86Z" fill="#69788A"/>
<path d="M213.854 193.138L213.614 197.896L212.907 197.076C213.672 197.273 214.402 197.588 215.07 198.009C215.76 198.424 216.341 198.995 216.767 199.678C217.177 200.366 217.384 201.156 217.364 201.956C217.344 202.757 217.098 203.536 216.654 204.202C216.239 204.831 215.669 205.344 214.999 205.69C214.33 206.037 213.583 206.206 212.829 206.182C212.117 206.124 211.427 205.902 210.814 205.534C210.201 205.166 209.681 204.662 209.294 204.061C209.714 204.595 210.252 205.026 210.864 205.32C211.477 205.615 212.149 205.764 212.829 205.757C213.475 205.717 214.101 205.513 214.646 205.165C215.192 204.816 215.639 204.334 215.947 203.764C216.233 203.234 216.366 202.634 216.328 202.033C216.291 201.432 216.085 200.853 215.735 200.363C214.933 199.45 213.823 198.864 212.617 198.716L211.967 198.603L211.931 197.896L211.698 193.138H213.854Z" fill="#38485C"/>
<path d="M226.926 183.382V191.145L212.78 194.503L198.64 191.145V183.382H226.926Z" fill="#69788A"/>
<path d="M205.131 187.935C205.132 188.261 205.037 188.58 204.857 188.852C204.677 189.124 204.42 189.336 204.119 189.462C203.818 189.588 203.487 189.621 203.167 189.559C202.847 189.496 202.552 189.339 202.321 189.109C202.09 188.879 201.933 188.586 201.869 188.266C201.804 187.946 201.837 187.615 201.961 187.313C202.086 187.012 202.297 186.754 202.568 186.573C202.839 186.392 203.158 186.295 203.484 186.295C203.7 186.294 203.914 186.336 204.113 186.418C204.313 186.5 204.495 186.62 204.648 186.773C204.801 186.925 204.922 187.106 205.005 187.306C205.088 187.505 205.131 187.719 205.131 187.935Z" fill="#38485C"/>
<path d="M223.717 187.935C223.717 188.26 223.621 188.577 223.44 188.846C223.26 189.116 223.004 189.326 222.704 189.45C222.405 189.575 222.075 189.607 221.757 189.544C221.439 189.481 221.146 189.324 220.917 189.095C220.688 188.866 220.531 188.573 220.468 188.255C220.405 187.937 220.437 187.607 220.561 187.308C220.686 187.008 220.896 186.752 221.165 186.571C221.435 186.391 221.752 186.295 222.077 186.295C222.512 186.295 222.929 186.468 223.236 186.775C223.544 187.083 223.717 187.5 223.717 187.935Z" fill="#38485C"/>
<path d="M154.639 247.007L298.889 262.525L302.409 229.805L158.159 214.287L154.639 247.007Z" fill="#FFD633"/>
<path d="M233.494 248.366L299.637 255.485L268.474 234.135L233.494 248.366Z" fill="#FFD633"/>
<path d="M200.924 244.881L259.58 251.194L231.5 236.454L200.924 244.881Z" fill="#FFD633"/>
<path d="M299.626 255.495L155.377 239.977L154.618 247.028L298.868 262.545L299.626 255.495Z" fill="#FFD633"/>
<path d="M94.7602 105.872C94.7602 106.587 94.548 107.287 94.1502 107.883C93.7525 108.478 93.1872 108.942 92.5258 109.216C91.8644 109.49 91.1366 109.561 90.4345 109.422C89.7323 109.282 89.0874 108.937 88.5812 108.431C88.0749 107.925 87.7302 107.28 87.5905 106.578C87.4509 105.876 87.5226 105.148 87.7965 104.486C88.0705 103.825 88.5344 103.26 89.1297 102.862C89.7249 102.464 90.4247 102.252 91.1406 102.252C92.1006 102.252 93.0213 102.633 93.7001 103.312C94.3789 103.991 94.7602 104.912 94.7602 105.872Z" fill="#999999"/>
<path d="M92.8162 105.872C92.8176 106.208 92.7191 106.537 92.5332 106.817C92.3473 107.097 92.0824 107.315 91.7721 107.445C91.4618 107.574 91.1201 107.608 90.7903 107.543C90.4605 107.478 90.1575 107.316 89.9198 107.078C89.6821 106.841 89.5204 106.538 89.4551 106.208C89.3899 105.878 89.4241 105.536 89.5534 105.226C89.6827 104.916 89.9012 104.651 90.1813 104.465C90.4614 104.279 90.7904 104.181 91.1266 104.182C91.5747 104.182 92.0045 104.36 92.3214 104.677C92.6382 104.994 92.8162 105.423 92.8162 105.872Z" fill="#69788A"/>
<path d="M106.602 343.282H75.3689V350.662H106.602V343.282Z" fill="#38485C"/>
<path d="M113.375 350.662H68.5962V365.141H113.375V350.662Z" fill="#69788A"/>
<path d="M109.148 166.769H75.7227V129.745H97.5888C99.4366 129.745 101.222 130.416 102.612 131.633C104.002 132.85 104.903 134.531 105.146 136.363L109.148 166.769Z" fill="#FFD633"/>
<path d="M100.049 155.528H84.3824C84.2118 155.532 84.042 155.505 83.8805 155.45C83.5171 155.341 83.1986 155.118 82.972 154.814C82.7454 154.509 82.6227 154.14 82.6221 153.761V133.987H93.7637C94.1387 133.983 94.5132 134.019 94.8807 134.093C95.7177 134.236 96.515 134.554 97.2207 135.027C97.7106 135.353 98.149 135.751 98.5215 136.207C99.2861 137.109 99.7767 138.21 99.9355 139.381L101.816 153.521C101.848 153.772 101.826 154.027 101.752 154.269C101.678 154.51 101.553 154.734 101.386 154.924C101.219 155.114 101.013 155.266 100.782 155.37C100.552 155.474 100.302 155.528 100.049 155.528Z" fill="#38485C"/>
<g opacity="0.4">
<path d="M98.3652 145.214C98.3661 145.444 98.3209 145.672 98.2322 145.885C98.1436 146.097 98.0133 146.29 97.8491 146.451L88.7788 155.528H84.3816C84.211 155.532 84.0411 155.505 83.8796 155.45L95.3677 143.97C95.6142 143.726 95.9272 143.561 96.2673 143.494C96.6075 143.428 96.9597 143.463 97.2797 143.596C97.5998 143.729 97.8736 143.953 98.0667 144.241C98.2598 144.529 98.3636 144.867 98.3652 145.214Z" fill="white"/>
<path d="M98.5213 136.214L82.6218 152.107V149.632L97.2205 135.034C97.7103 135.36 98.1488 135.758 98.5213 136.214Z" fill="white"/>
<path d="M94.8804 134.1L85.8526 143.128C85.6677 143.312 85.4325 143.438 85.1764 143.489C84.9204 143.539 84.6551 143.513 84.4139 143.413C84.1728 143.314 83.9665 143.145 83.8212 142.928C83.6759 142.711 83.598 142.456 83.5974 142.195C83.5985 142.024 83.6335 141.854 83.7002 141.697C83.7669 141.539 83.8641 141.396 83.9862 141.276L91.2679 133.987H93.7635C94.1387 133.985 94.5132 134.023 94.8804 134.1Z" fill="white"/>
</g>
<path d="M73.3606 320.857L72.689 325.664L71.9608 330.832L65.3154 377.923H54.4565L61.1019 330.832L61.8301 325.664L62.5017 320.857H73.3606Z" fill="#FFD633"/>
<path opacity="0.1" d="M71.7913 320.857C71.2187 325.629 70.6036 330.394 69.9815 335.152L68.0656 349.432L66.0579 363.685L65.0257 370.818L63.9441 377.93L64.8278 370.782L65.7751 363.628L67.691 349.355L69.6987 335.095C70.3633 330.344 71.0561 325.572 71.7913 320.857Z" fill="#38485C"/>
<path opacity="0.1" d="M72.6888 325.664L71.9607 330.832H61.1018L61.83 325.664H72.6888Z" fill="#38485C"/>
<path d="M126.969 320.857L127.641 325.664L128.369 330.832L135.007 377.923H145.866L139.228 330.832L138.5 325.664L137.828 320.857H126.969Z" fill="#FFD633"/>
<path opacity="0.1" d="M128.574 320.857C129.146 325.629 129.761 330.394 130.384 335.152L132.299 349.432L134.307 363.685L135.339 370.818L136.421 377.93L135.537 370.782L134.611 363.635L132.695 349.362L130.688 335.102C130.002 330.344 129.309 325.572 128.574 320.857Z" fill="#38485C"/>
<path opacity="0.1" d="M127.641 325.664H138.5L139.228 330.832H128.37L127.641 325.664Z" fill="#38485C"/>
<path d="M72.9647 310.981H64.354L65.4286 302.957H71.8972L72.9647 310.981Z" fill="#FFD633"/>
<path opacity="0.1" d="M72.9647 310.981H64.354L65.4286 302.957H71.8972L72.9647 310.981Z" fill="#38485C"/>
<path d="M76.6834 297.216C76.6834 298.803 76.2128 300.355 75.3311 301.674C74.4495 302.994 73.1963 304.022 71.7301 304.63C70.2639 305.237 68.6506 305.396 67.0941 305.086C65.5376 304.777 64.1078 304.012 62.9857 302.89C61.8635 301.768 61.0993 300.338 60.7897 298.782C60.4801 297.225 60.639 295.612 61.2463 294.146C61.8536 292.68 62.8821 291.426 64.2016 290.545C65.5211 289.663 67.0725 289.193 68.6595 289.193C69.7132 289.193 70.7566 289.4 71.7301 289.803C72.7036 290.207 73.5882 290.798 74.3333 291.543C75.0784 292.288 75.6694 293.172 76.0726 294.146C76.4759 295.119 76.6834 296.163 76.6834 297.216Z" fill="#FFD633"/>
<path d="M74.7607 297.216C74.7621 298.423 74.4054 299.604 73.7359 300.608C73.0664 301.612 72.114 302.395 70.9993 302.858C69.8846 303.321 68.6577 303.443 67.4737 303.208C66.2898 302.974 65.202 302.393 64.3481 301.54C63.4941 300.687 62.9123 299.6 62.6763 298.416C62.4404 297.233 62.5608 296.006 63.0223 294.89C63.4839 293.775 64.2659 292.822 65.2693 292.151C66.2728 291.48 67.4527 291.122 68.6596 291.122C70.2765 291.122 71.8273 291.764 72.9712 292.907C74.1152 294.05 74.7588 295.6 74.7607 297.216Z" fill="white"/>
<path d="M73.7565 296.863C73.7014 296.136 73.4964 295.429 73.1545 294.785C72.8126 294.142 72.3412 293.576 71.77 293.123C71.193 292.677 70.5318 292.351 69.826 292.167C69.1201 291.982 68.3843 291.942 67.6626 292.049C66.945 292.159 66.259 292.42 65.6497 292.815C65.0405 293.21 64.5218 293.729 64.1278 294.339C63.7126 294.984 63.4404 295.71 63.3295 296.468C63.2185 297.227 63.2713 298 63.4844 298.736C63.8471 300.019 64.704 301.104 65.8669 301.755C66.998 302.4 68.3273 302.603 69.5996 302.328C70.8328 302.068 71.9389 301.392 72.7314 300.412C73.5126 299.445 73.9635 298.253 74.0181 297.011C74.0181 296.955 74.0181 296.905 73.9686 296.905C73.9191 296.905 73.9121 296.948 73.9121 297.011C73.8822 297.512 73.7871 298.006 73.6293 298.482C73.2938 299.421 72.7158 300.256 71.9538 300.9C71.566 301.222 71.1412 301.498 70.6883 301.72C70.0405 302.029 69.3346 302.198 68.6169 302.215C67.8993 302.232 67.1862 302.097 66.5244 301.819C65.8568 301.538 65.2583 301.116 64.77 300.581C64.2817 300.047 63.9155 299.412 63.6965 298.722C63.4778 298.018 63.4126 297.275 63.5052 296.543C63.5979 295.811 63.8464 295.108 64.2338 294.481C64.6108 293.879 65.1127 293.366 65.7055 292.975C66.2983 292.585 66.9682 292.327 67.6696 292.218C68.6145 292.067 69.5829 292.174 70.4717 292.529C71.3605 292.883 72.1365 293.472 72.7173 294.233C73.0079 294.622 73.2456 295.047 73.4243 295.499C73.5829 295.956 73.6896 296.431 73.7424 296.912C73.7498 296.907 73.7553 296.899 73.7578 296.89C73.7604 296.881 73.7599 296.872 73.7565 296.863Z" fill="#FFD633"/>
<path d="M73.0428 296.87C72.9887 296.248 72.8077 295.643 72.511 295.094C72.2144 294.544 71.8083 294.061 71.3179 293.675C70.8207 293.291 70.2516 293.012 69.6444 292.853C69.0372 292.694 68.4043 292.658 67.7831 292.748C67.1667 292.839 66.5765 293.059 66.0513 293.394C65.5262 293.729 65.0779 294.172 64.7361 294.693C64.3704 295.248 64.1281 295.876 64.0257 296.533C63.9233 297.191 63.963 297.862 64.1423 298.503C64.2957 299.057 64.557 299.575 64.9113 300.028C65.2655 300.48 65.7057 300.858 66.2066 301.14C67.1974 301.694 68.3561 301.867 69.4656 301.628C70.535 301.396 71.4915 300.801 72.1733 299.945C72.8482 299.106 73.2393 298.073 73.2903 296.997C73.2903 296.948 73.2903 296.905 73.2408 296.905C73.1913 296.905 73.1842 296.941 73.1842 296.997C73.1233 297.861 72.8331 298.693 72.3435 299.408C71.8539 300.123 71.1826 300.694 70.3988 301.062C69.8408 301.334 69.2314 301.484 68.611 301.502C67.9906 301.521 67.3734 301.407 66.8004 301.168C66.2226 300.923 65.7051 300.556 65.2839 300.09C64.8627 299.625 64.5479 299.074 64.3614 298.475C64.1743 297.863 64.121 297.218 64.2052 296.584C64.2894 295.949 64.509 295.341 64.8492 294.799C65.1773 294.287 65.6116 293.851 66.1227 293.522C66.6338 293.193 67.2097 292.977 67.8114 292.89C68.6162 292.767 69.4392 292.861 70.1958 293.162C70.9524 293.463 71.6154 293.959 72.1167 294.601C72.3596 294.935 72.5591 295.298 72.7106 295.682C72.851 296.073 72.9482 296.479 73.0004 296.891L73.0428 296.87Z" fill="#FFD633"/>
<path d="M72.3287 296.877C72.2776 296.36 72.1214 295.859 71.8698 295.404C71.6181 294.95 71.2763 294.551 70.8653 294.233C70.0389 293.597 68.994 293.315 67.9597 293.448C67.4429 293.517 66.9464 293.694 66.5029 293.969C66.0594 294.243 65.6789 294.607 65.3864 295.039C65.0705 295.506 64.8584 296.036 64.7645 296.592C64.6706 297.148 64.6971 297.718 64.842 298.263C64.9668 298.738 65.1864 299.182 65.4878 299.57C65.7891 299.957 66.1659 300.28 66.5953 300.518C67.4385 300.995 68.4297 301.139 69.3736 300.921C70.2764 300.726 71.0849 300.227 71.6642 299.507C72.2288 298.793 72.5574 297.921 72.6044 297.011C72.6044 296.969 72.6044 296.934 72.5549 296.934C72.5055 296.934 72.4984 296.934 72.4984 297.011C72.4398 297.737 72.1923 298.435 71.7805 299.035C71.3687 299.635 70.8071 300.117 70.1513 300.433C69.6815 300.667 69.1672 300.797 68.6428 300.815C68.1185 300.834 67.5963 300.739 67.1114 300.539C66.6209 300.331 66.1831 300.016 65.8297 299.617C65.4762 299.219 65.2161 298.746 65.0683 298.235C64.9147 297.718 64.8749 297.174 64.9518 296.641C65.0287 296.108 65.2204 295.597 65.5137 295.145C65.7921 294.724 66.1577 294.367 66.5857 294.098C67.0138 293.83 67.4943 293.657 67.9951 293.59C68.6594 293.512 69.3329 293.591 69.9604 293.823C70.5906 294.06 71.1433 294.466 71.5581 294.997C71.7633 295.271 71.932 295.57 72.0601 295.887C72.1835 296.212 72.2713 296.548 72.3217 296.891C72.3217 296.891 72.3358 296.891 72.3287 296.877Z" fill="#FFD633"/>
<path d="M71.6146 296.884C71.5674 296.468 71.4366 296.066 71.2301 295.701C71.0236 295.337 70.7456 295.018 70.4128 294.763C69.753 294.266 68.9299 294.037 68.1081 294.12C67.6862 294.167 67.2789 294.302 66.9132 294.518C66.5476 294.734 66.232 295.024 65.9872 295.371C65.7207 295.75 65.5385 296.181 65.4531 296.636C65.3678 297.091 65.3811 297.559 65.4924 298.008C65.588 298.4 65.7627 298.769 66.0059 299.091C66.249 299.413 66.5554 299.682 66.9063 299.882C67.6051 300.273 68.4263 300.384 69.2039 300.193C69.9494 300.019 70.6115 299.591 71.0773 298.984C71.5325 298.398 71.7988 297.688 71.8408 296.948C71.8408 296.913 71.8408 296.884 71.7914 296.884C71.7757 296.886 71.7613 296.893 71.7509 296.905C71.7404 296.917 71.7347 296.932 71.7348 296.948C71.681 297.535 71.4772 298.098 71.1429 298.583C70.8086 299.068 70.3551 299.46 69.826 299.719C69.4472 299.918 69.0295 300.032 68.6021 300.052C68.1748 300.073 67.748 300 67.3517 299.839C66.9624 299.671 66.615 299.419 66.334 299.101C66.053 298.784 65.8453 298.408 65.7257 298.001C65.6059 297.58 65.5793 297.138 65.6476 296.706C65.716 296.274 65.8777 295.862 66.1216 295.499C66.3497 295.166 66.6475 294.887 66.9941 294.681C67.3408 294.474 67.7281 294.346 68.1293 294.304C68.6536 294.257 69.1819 294.325 69.6776 294.502C70.1768 294.684 70.6168 295 70.9501 295.414C71.1182 295.631 71.2583 295.869 71.3672 296.121C71.4658 296.382 71.5415 296.652 71.5934 296.927C71.5934 296.927 71.6217 296.891 71.6146 296.884Z" fill="#FFD633"/>
<path d="M135.785 310.981H127.174L128.249 302.957H134.718L135.785 310.981Z" fill="#FFD633"/>
<path opacity="0.1" d="M135.785 310.981H127.174L128.249 302.957H134.718L135.785 310.981Z" fill="#38485C"/>
<path d="M139.504 297.216C139.504 298.803 139.033 300.355 138.151 301.674C137.27 302.994 136.017 304.022 134.55 304.63C133.084 305.237 131.471 305.396 129.914 305.086C128.358 304.777 126.928 304.012 125.806 302.89C124.684 301.768 123.92 300.338 123.61 298.782C123.3 297.225 123.459 295.612 124.067 294.146C124.674 292.68 125.702 291.426 127.022 290.545C128.341 289.663 129.893 289.193 131.48 289.193C132.533 289.193 133.577 289.4 134.55 289.803C135.524 290.207 136.408 290.798 137.154 291.543C137.899 292.288 138.49 293.172 138.893 294.146C139.296 295.119 139.504 296.163 139.504 297.216Z" fill="#FFD633"/>
<path d="M137.581 297.216C137.582 298.423 137.226 299.604 136.556 300.608C135.887 301.612 134.934 302.395 133.82 302.858C132.705 303.321 131.478 303.443 130.294 303.208C129.11 302.974 128.022 302.393 127.168 301.54C126.314 300.687 125.733 299.6 125.497 298.416C125.261 297.233 125.381 296.006 125.843 294.89C126.304 293.775 127.086 292.822 128.09 292.151C129.093 291.48 130.273 291.122 131.48 291.122C133.097 291.122 134.648 291.764 135.792 292.907C136.935 294.05 137.579 295.6 137.581 297.216Z" fill="white"/>
<path d="M136.577 296.863C136.521 296.136 136.316 295.429 135.975 294.785C135.633 294.142 135.161 293.576 134.59 293.123C134.013 292.677 133.352 292.351 132.646 292.167C131.94 291.982 131.204 291.942 130.483 292.049C129.765 292.159 129.079 292.42 128.47 292.815C127.861 293.21 127.342 293.729 126.948 294.339C126.533 294.984 126.261 295.71 126.15 296.468C126.039 297.227 126.091 298 126.305 298.736C126.667 300.019 127.524 301.104 128.687 301.755C129.818 302.4 131.147 302.603 132.42 302.328C133.653 302.068 134.759 301.392 135.552 300.412C136.336 299.447 136.787 298.254 136.838 297.011C136.838 296.955 136.838 296.905 136.789 296.905C136.739 296.905 136.732 296.948 136.732 297.011C136.706 297.512 136.611 298.007 136.449 298.482C136.114 299.421 135.536 300.256 134.774 300.9C134.386 301.222 133.961 301.498 133.508 301.72C132.861 302.029 132.155 302.198 131.437 302.215C130.719 302.232 130.006 302.097 129.344 301.819C128.677 301.538 128.078 301.116 127.59 300.581C127.102 300.047 126.736 299.412 126.517 298.722C126.298 298.018 126.233 297.275 126.325 296.543C126.418 295.811 126.666 295.108 127.054 294.481C127.431 293.879 127.933 293.366 128.526 292.975C129.118 292.585 129.788 292.327 130.49 292.218C131.435 292.067 132.403 292.174 133.292 292.529C134.181 292.883 134.957 293.472 135.537 294.233C135.828 294.622 136.066 295.047 136.244 295.499C136.403 295.956 136.51 296.431 136.562 296.912C136.573 296.898 136.578 296.881 136.577 296.863Z" fill="#FFD633"/>
<path d="M135.863 296.87C135.809 296.248 135.628 295.643 135.331 295.094C135.034 294.544 134.628 294.061 134.138 293.675C133.641 293.291 133.072 293.012 132.465 292.853C131.857 292.694 131.224 292.658 130.603 292.748C129.987 292.839 129.397 293.059 128.871 293.394C128.346 293.729 127.898 294.172 127.556 294.693C127.19 295.248 126.948 295.876 126.846 296.533C126.743 297.191 126.783 297.862 126.962 298.503C127.116 299.057 127.377 299.575 127.731 300.028C128.086 300.48 128.526 300.858 129.027 301.14C130.018 301.694 131.176 301.867 132.286 301.628C133.355 301.396 134.312 300.801 134.993 299.945C135.668 299.106 136.059 298.073 136.11 296.997C136.11 296.948 136.11 296.905 136.061 296.905C136.011 296.905 136.004 296.941 136.004 296.997C135.943 297.861 135.653 298.693 135.164 299.408C134.674 300.123 134.003 300.694 133.219 301.062C132.661 301.334 132.051 301.484 131.431 301.502C130.811 301.521 130.193 301.407 129.62 301.168C129.041 300.924 128.522 300.557 128.1 300.092C127.678 299.626 127.362 299.075 127.174 298.475C126.987 297.863 126.934 297.218 127.018 296.584C127.102 295.949 127.322 295.341 127.662 294.799C127.99 294.287 128.425 293.851 128.936 293.522C129.447 293.193 130.023 292.977 130.624 292.89C131.429 292.767 132.252 292.861 133.009 293.162C133.765 293.463 134.428 293.959 134.93 294.601C135.173 294.935 135.372 295.298 135.524 295.682C135.664 296.073 135.761 296.479 135.813 296.891C135.813 296.891 135.87 296.884 135.863 296.87Z" fill="#FFD633"/>
<path d="M135.149 296.877C135.098 296.36 134.942 295.859 134.69 295.404C134.438 294.95 134.097 294.551 133.686 294.233C132.859 293.597 131.814 293.315 130.78 293.448C130.263 293.517 129.767 293.694 129.323 293.969C128.88 294.243 128.499 294.607 128.207 295.039C127.891 295.506 127.679 296.036 127.585 296.592C127.491 297.148 127.517 297.718 127.662 298.263C127.787 298.738 128.007 299.182 128.308 299.57C128.609 299.957 128.986 300.28 129.416 300.518C130.259 300.995 131.25 301.139 132.194 300.921C133.097 300.726 133.905 300.227 134.484 299.507C135.052 298.794 135.381 297.921 135.425 297.011C135.425 296.969 135.425 296.934 135.375 296.934C135.326 296.934 135.319 296.934 135.319 297.011C135.26 297.737 135.013 298.435 134.601 299.035C134.189 299.635 133.627 300.117 132.972 300.433C132.502 300.667 131.987 300.797 131.463 300.815C130.939 300.834 130.417 300.739 129.932 300.539C129.442 300.336 129.003 300.026 128.647 299.632C128.291 299.239 128.027 298.771 127.874 298.263C127.721 297.746 127.681 297.203 127.758 296.669C127.835 296.136 128.027 295.626 128.32 295.173C128.598 294.752 128.964 294.395 129.392 294.127C129.82 293.858 130.301 293.685 130.801 293.618C131.466 293.54 132.139 293.62 132.767 293.851C133.247 294.024 133.685 294.298 134.051 294.654C134.416 295.01 134.702 295.44 134.887 295.916C135.011 296.24 135.099 296.576 135.149 296.92C135.149 296.92 135.156 296.891 135.149 296.877Z" fill="#FFD633"/>
<path d="M134.434 296.884C134.387 296.468 134.256 296.066 134.05 295.701C133.843 295.337 133.565 295.018 133.232 294.763C132.573 294.266 131.75 294.036 130.928 294.12C130.506 294.167 130.098 294.302 129.733 294.518C129.367 294.734 129.052 295.024 128.807 295.371C128.542 295.75 128.36 296.182 128.275 296.636C128.189 297.091 128.202 297.559 128.312 298.008C128.408 298.4 128.582 298.769 128.825 299.091C129.069 299.413 129.375 299.682 129.726 299.882C130.425 300.273 131.246 300.384 132.023 300.193C132.769 300.019 133.431 299.591 133.897 298.984C134.352 298.398 134.618 297.688 134.66 296.948C134.66 296.913 134.66 296.884 134.611 296.884C134.595 296.886 134.581 296.893 134.57 296.905C134.56 296.917 134.554 296.932 134.554 296.948C134.501 297.535 134.297 298.098 133.962 298.583C133.628 299.068 133.175 299.46 132.646 299.719C132.267 299.918 131.849 300.032 131.422 300.052C130.994 300.073 130.568 300 130.171 299.839C129.769 299.673 129.409 299.419 129.119 299.094C128.829 298.77 128.616 298.384 128.496 297.966C128.376 297.545 128.349 297.103 128.418 296.671C128.486 296.239 128.648 295.827 128.892 295.463C129.12 295.131 129.418 294.851 129.764 294.645C130.111 294.439 130.498 294.31 130.899 294.268C131.424 294.222 131.952 294.289 132.448 294.466C132.947 294.649 133.387 294.964 133.72 295.378C133.888 295.596 134.028 295.833 134.137 296.085C134.236 296.347 134.312 296.617 134.364 296.891C134.364 296.891 134.441 296.891 134.434 296.884Z" fill="#FFD633"/>
<path d="M154.258 306.888H46.0652V327.58H154.258V306.888Z" fill="white"/>
<path d="M154.442 327.757H45.8884V306.711H154.442V327.757ZM46.2773 327.404H154.088V307.064H46.2419L46.2773 327.404Z" fill="#38485C"/>
<path d="M68.3059 306.888L60.4516 327.587H46.4822L54.3294 306.888H68.3059Z" fill="#FFD633"/>
<path d="M96.9451 306.888L89.0979 327.587H75.1143L82.9685 306.888H96.9451Z" fill="#FFD633"/>
<path d="M125.583 306.888L117.729 327.587H103.76L111.614 306.888H125.583Z" fill="#FFD633"/>
<path d="M154.23 306.888L146.375 327.587H132.399L140.246 306.888H154.23Z" fill="#FFD633"/>
<path d="M152.073 352.875H48.2566V365.975H152.073V352.875Z" fill="white"/>
<path d="M152.25 366.152H48.1008V352.72H152.25V366.152ZM48.4331 365.798H151.896V353.073H48.4331V365.798Z" fill="#38485C"/>
<path d="M69.5924 352.875L62.0562 365.975H48.6523L56.1885 352.875H69.5924Z" fill="#FFD633"/>
<path d="M97.0792 352.875L89.543 365.975H76.1321L83.6682 352.875H97.0792Z" fill="#FFD633"/>
<path d="M124.552 352.875L117.023 365.975H103.612L111.148 352.875H124.552Z" fill="#FFD633"/>
<path d="M152.038 352.875L144.502 365.975H131.091L138.627 352.875H152.038Z" fill="#FFD633"/>
<path d="M116.541 321.139C118.699 312.093 113.115 303.01 104.069 300.851C95.0226 298.693 85.9393 304.276 83.7808 313.323C81.6224 322.369 87.2061 331.452 96.2524 333.611C105.299 335.769 114.382 330.186 116.541 321.139Z" fill="white"/>
<path d="M100.161 334.247C96.7956 334.247 93.5054 333.249 90.7069 331.379C87.9084 329.509 85.7274 326.85 84.4397 323.741C83.1519 320.631 82.8154 317.209 83.4725 313.908C84.1297 310.607 85.751 307.575 88.1315 305.195C90.512 302.816 93.5447 301.196 96.8461 300.54C100.147 299.884 103.569 300.222 106.678 301.511C109.788 302.8 112.445 304.982 114.314 307.782C116.183 310.581 117.179 313.872 117.178 317.238C117.174 321.749 115.38 326.074 112.189 329.263C108.999 332.453 104.673 334.245 100.161 334.247ZM100.161 300.575C96.8659 300.575 93.6442 301.552 90.904 303.383C88.1638 305.214 86.0281 307.816 84.7669 310.861C83.5057 313.906 83.1757 317.256 83.8187 320.488C84.4616 323.721 86.0486 326.69 88.379 329.02C90.7093 331.35 93.6784 332.937 96.9107 333.58C100.143 334.223 103.493 333.893 106.538 332.632C109.583 331.371 112.185 329.235 114.016 326.495C115.847 323.755 116.824 320.533 116.824 317.238C116.821 312.819 115.064 308.583 111.94 305.459C108.816 302.335 104.58 300.578 100.161 300.575Z" fill="#38485C"/>
<path d="M114.053 320.545C115.88 312.877 111.144 305.179 103.476 303.353C95.8073 301.526 88.1098 306.261 86.2829 313.93C84.4561 321.598 89.1916 329.295 96.86 331.122C104.528 332.949 112.226 328.214 114.053 320.545Z" fill="#FFD633"/>
<path d="M109.112 315.576H91.2117V318.892H109.112V315.576Z" fill="white"/>
<path d="M335.747 379.655L339.325 355.038L340.364 355.505L342.018 356.254L349.201 359.506L355.627 362.405L359.869 364.321L366.309 367.233L369.844 368.824C370.454 369.156 370.949 369.667 371.26 370.288C371.572 370.909 371.685 371.611 371.586 372.298C371.487 372.986 371.179 373.627 370.704 374.134C370.23 374.642 369.611 374.992 368.932 375.137L367.44 375.342L365.093 375.66L358.101 376.608L353.492 377.237L346.493 378.191L343.566 378.594L335.747 379.655Z" fill="#FFD633"/>
<g style="mix-blend-mode:multiply" opacity="0.1">
<path d="M340.541 355.724C340.187 356.65 339.747 357.54 339.226 358.382C337.042 361.79 335.465 368.76 336.653 376.763C336.721 377.628 336.899 378.481 337.183 379.301L338.682 379.202C338.682 379.202 345.66 363.889 368.473 368.145L366.352 367.17L359.919 364.271L355.677 362.355L349.244 359.443L340.541 355.724Z" fill="#38485C"/>
</g>
<path d="M358.096 376.608L359.877 364.321L366.318 367.233L365.088 375.66L358.096 376.608Z" fill="#D1D8E0"/>
<path d="M346.488 378.191L349.202 359.499L355.643 362.412L353.486 377.237L346.488 378.191Z" fill="#D1D8E0"/>
<path d="M272.913 379.047H248.948L249.244 377.986L249.732 376.304L251.853 369.008L253.734 362.469L254.971 358.163L256.851 351.624L257.883 348.04C258.113 347.41 258.531 346.867 259.079 346.483C259.628 346.099 260.282 345.893 260.952 345.893C261.621 345.893 262.275 346.099 262.824 346.483C263.373 346.867 263.79 347.41 264.02 348.04L264.423 349.453L265.052 351.638L266.932 358.177L268.17 362.483L270.05 369.022L270.835 371.758L272.913 379.047Z" fill="#FFD633"/>
<path d="M273.797 385.261H242.302L247.322 372.825H278.817L273.797 385.261Z" fill="#FFD633"/>
<path d="M266.939 358.163H254.978L256.858 351.631H265.059L266.939 358.163Z" fill="#D1D8E0"/>
<path d="M270.057 369.008H251.86L253.741 362.469H268.177L270.057 369.008Z" fill="#D1D8E0"/>
<path d="M248.637 377.378C250.577 378.249 252.62 378.869 254.717 379.223C256.792 379.585 258.896 379.746 261.002 379.704C262.055 379.633 263.123 379.626 264.155 379.464C264.678 379.393 265.208 379.358 265.724 379.266C266.24 379.174 266.764 379.068 267.287 378.983C267.548 378.934 267.81 378.891 268.071 378.835L268.842 378.644L270.39 378.269C271.415 377.993 272.426 377.647 273.473 377.378C272.504 377.838 271.528 378.297 270.532 378.693L268.998 379.216L268.234 379.471C267.972 379.549 267.711 379.605 267.449 379.676L265.866 380.051C265.343 380.171 264.798 380.227 264.268 380.319C263.192 380.475 262.109 380.574 261.023 380.616C258.85 380.654 256.682 380.416 254.569 379.909C252.453 379.437 250.442 378.579 248.637 377.378Z" fill="#38485C"/>
<g style="mix-blend-mode:multiply" opacity="0.1">
<path d="M249.464 377.788C250.394 377.998 251.303 378.294 252.179 378.672C255.714 380.284 262.592 380.793 270.093 378.573C270.906 378.388 271.692 378.1 272.433 377.718L272.129 376.304C272.129 376.304 256.576 371.779 257.467 349.439L256.838 351.624L254.957 358.163L253.72 362.469L251.839 369.008L249.464 377.788Z" fill="#38485C"/>
</g>
<path d="M329.23 379.612L333.931 347.248L345.963 354.268L341.255 386.625L329.23 379.612Z" fill="#FFD633"/>
<path d="M341.213 367.658C340.541 373.638 338.385 378.304 336.377 378.078C334.37 377.852 333.302 372.825 333.974 366.845C334.645 360.864 336.801 356.205 338.816 356.431C340.831 356.657 341.884 361.684 341.213 367.658Z" fill="#38485C"/>
<path d="M395.138 385.219C396.552 385.657 436.488 384.801 437.987 383.805C438.559 383.43 438.771 377.598 438.835 370.556C438.835 369.036 438.835 367.467 438.835 365.869C438.835 363.975 438.835 362.066 438.8 360.213C438.694 351.871 438.439 344.526 438.439 344.526L412.437 345.007L412.741 360.694L412.847 366.35L413.073 371.03C413.073 371.03 397.923 378.206 396.396 379.471C394.869 380.736 393.731 384.787 395.138 385.219Z" fill="#E08585"/>
<path d="M395.138 385.219C396.552 385.657 436.488 384.801 437.987 383.805C438.559 383.43 438.771 377.598 438.835 370.556C438.835 369.036 438.835 367.467 438.835 365.869C438.835 363.975 438.835 362.066 438.8 360.214L412.741 360.694L412.847 366.35L413.073 371.03C413.073 371.03 397.923 378.206 396.396 379.471C394.869 380.736 393.731 384.787 395.138 385.219Z" fill="white"/>
<path d="M395.018 385.282C395.93 385.565 412.946 385.282 425.332 384.823C428.16 384.709 430.818 384.582 432.932 384.448C435.844 384.264 437.796 384.066 438.107 383.861C438.814 383.395 438.983 374.847 438.969 365.827L412.812 366.314L413.031 371.023C413.031 371.023 397.803 378.227 396.262 379.506C394.721 380.786 393.611 384.837 395.018 385.282Z" fill="#FFD633"/>
<path d="M395.555 383.663C402.286 383.352 429.489 382.737 436.135 382.956C436.191 382.956 436.191 382.956 436.135 382.956C429.468 383.409 402.3 383.805 395.563 383.748C395.421 383.769 395.414 383.67 395.555 383.663Z" fill="#38485C"/>
<path d="M412.077 369.545C414.721 368.994 417.965 369.333 420.03 371.178C420.115 371.249 420.03 371.362 419.924 371.334C417.374 370.573 414.751 370.085 412.098 369.878C412.059 369.872 412.023 369.854 411.996 369.825C411.969 369.796 411.953 369.759 411.951 369.72C411.948 369.681 411.959 369.642 411.982 369.61C412.005 369.578 412.039 369.555 412.077 369.545Z" fill="#38485C"/>
<path d="M410.19 370.74C412.834 370.189 416.079 370.528 418.143 372.373C418.228 372.444 418.143 372.557 418.037 372.529C415.488 371.765 412.864 371.276 410.211 371.072C410.172 371.067 410.136 371.049 410.109 371.02C410.082 370.991 410.066 370.954 410.064 370.915C410.061 370.876 410.073 370.837 410.095 370.805C410.118 370.773 410.152 370.75 410.19 370.74Z" fill="#38485C"/>
<path d="M408.303 371.935C410.94 371.383 414.192 371.723 416.256 373.561C416.334 373.639 416.256 373.745 416.15 373.723C413.601 372.96 410.977 372.472 408.324 372.267C408.285 372.262 408.249 372.243 408.222 372.215C408.195 372.186 408.179 372.149 408.177 372.11C408.174 372.07 408.186 372.032 408.209 372C408.232 371.968 408.265 371.945 408.303 371.935Z" fill="#38485C"/>
<path d="M406.414 373.13C409.051 372.578 412.303 372.91 414.367 374.756C414.445 374.826 414.367 374.939 414.261 374.918C411.712 374.155 409.088 373.666 406.435 373.462C406.396 373.457 406.36 373.438 406.333 373.409C406.307 373.381 406.29 373.344 406.288 373.304C406.285 373.265 406.297 373.226 406.32 373.194C406.343 373.162 406.376 373.14 406.414 373.13Z" fill="#38485C"/>
<path d="M408.322 367.283C410.224 368.697 412.677 369.248 414.883 370.012C415.109 370.09 415.286 369.87 415.293 369.673C415.335 369.673 415.371 369.63 415.35 369.574C414.49 367.24 413.026 365.176 411.108 363.593C409.984 362.688 408.025 362.08 407.022 363.536C406.018 364.992 407.234 366.442 408.322 367.283ZM407.615 365.162C407.085 362.264 410.238 363.748 411.044 364.455C411.551 364.915 412.023 365.412 412.458 365.94C413.398 367.021 414.169 368.216 414.996 369.383C413.936 368.937 412.875 368.591 411.772 368.188C410.493 367.679 407.891 366.753 407.601 365.162H407.615Z" fill="#38485C"/>
<path d="M424.109 365.332C423.402 363.692 421.402 363.868 420.108 364.512C417.907 365.659 416.046 367.366 414.714 369.46C414.708 369.47 414.704 369.481 414.703 369.492C414.702 369.503 414.704 369.514 414.708 369.524C414.712 369.535 414.719 369.544 414.727 369.551C414.736 369.558 414.746 369.564 414.756 369.566C414.714 369.764 414.841 370.019 415.082 369.991C417.4 369.715 419.91 369.708 422.073 368.732C423.339 368.153 424.753 366.88 424.109 365.332ZM418.51 368.867C417.372 369.029 416.234 369.135 415.103 369.34C416.124 368.343 417.195 367.4 418.312 366.512C418.861 366.09 419.437 365.705 420.037 365.36C420.97 364.851 424.364 364.095 423.226 366.816C422.604 368.308 419.861 368.655 418.546 368.845L418.51 368.867Z" fill="#38485C"/>
<path opacity="0.2" d="M415.457 385.141C418.822 385.049 422.222 384.943 425.354 384.823C428.182 384.71 430.84 384.582 432.954 384.448C435.859 384.264 437.818 384.066 438.129 383.854C438.737 383.451 438.956 376.848 438.984 369.156C433.039 373.115 421.374 381.083 415.457 385.141Z" fill="#38485C"/>
<path d="M410.514 370.719H440.206C440.206 370.719 438.58 303.919 438.899 302.363C439.662 298.645 456.572 239.755 456.572 239.755L433.137 240.158L425.134 240.292C425.134 240.292 425.841 250.105 425.544 251.144C421.628 265.432 413.985 289.829 412.423 298.871C409.673 314.572 410.514 370.719 410.514 370.719Z" fill="#38485C"/>
<path d="M411.475 365.756C416.099 365.636 432.5 365.148 438.672 365.615C438.714 365.615 438.714 365.692 438.672 365.7C436.551 366.046 416.106 365.947 411.475 365.883C411.458 365.883 411.442 365.877 411.43 365.865C411.418 365.853 411.412 365.837 411.412 365.82C411.412 365.803 411.418 365.787 411.43 365.775C411.442 365.763 411.458 365.756 411.475 365.756Z" fill="#666666"/>
<path d="M436.551 300.914C437.435 297.301 444.045 274.806 446.067 267.687C448.089 260.568 449.984 253.449 451.723 246.273C451.942 245.361 452.168 244.456 452.43 243.551C452.43 243.474 452.564 243.509 452.55 243.587C451.885 247.199 451.002 250.776 450.153 254.354C449.305 257.931 448.393 261.487 447.446 265.036C445.527 272.171 443.437 279.255 441.175 286.287C440.044 289.786 438.177 296.983 437.181 300.525C436.184 304.067 437.81 362.242 437.711 363.19C437.711 363.246 437.688 363.3 437.649 363.34C437.609 363.379 437.555 363.402 437.499 363.402C437.442 363.402 437.388 363.379 437.349 363.34C437.309 363.3 437.287 363.246 437.287 363.19C437.145 356.346 435.675 304.484 436.551 300.914Z" fill="#666666"/>
<path d="M433.081 240.179C433.081 240.179 438.815 302.688 438.878 302.391C439.585 298.8 455.485 243.417 456.482 239.953L456.524 239.79L433.081 240.179Z" fill="#666666"/>
<path d="M425.913 388.64C427.327 389.079 467.263 388.223 468.769 387.226C469.334 386.852 469.553 381.026 469.61 373.978C469.61 372.458 469.61 370.889 469.61 369.291C469.61 367.403 469.61 365.487 469.567 363.635C469.461 355.293 469.214 347.948 469.214 347.948L443.205 348.428L443.509 364.116L443.622 369.772L443.841 374.459C443.841 374.459 428.698 381.627 427.171 382.893C425.644 384.158 424.513 388.209 425.913 388.64Z" fill="#E08585"/>
<path d="M425.913 388.64C427.327 389.079 467.263 388.223 468.769 387.226C469.334 386.852 469.553 381.026 469.61 373.978C469.61 372.458 469.61 370.889 469.61 369.291C469.61 367.403 469.61 365.487 469.567 363.635L443.509 364.116L443.622 369.772L443.841 374.459C443.841 374.459 428.698 381.627 427.171 382.893C425.644 384.158 424.513 388.209 425.913 388.64Z" fill="white"/>
<path d="M425.792 388.704C426.712 388.987 443.728 388.704 456.107 388.244C458.977 388.131 461.593 388.004 463.707 387.877C466.619 387.686 468.57 387.488 468.889 387.283C469.596 386.816 469.758 378.269 469.751 369.248L443.594 369.736L443.82 374.444C443.82 374.444 428.592 381.655 427.051 382.928C425.51 384.2 424.386 388.258 425.792 388.704Z" fill="#FFD633"/>
<path d="M426.322 387.078C433.053 386.767 460.256 386.159 466.895 386.371C466.951 386.371 466.951 386.406 466.895 386.413C460.235 386.866 433.06 387.255 426.322 387.198C426.195 387.198 426.195 387.078 426.322 387.078Z" fill="#38485C"/>
<path d="M442.859 372.939C445.496 372.387 448.748 372.727 450.812 374.572C450.89 374.642 450.812 374.756 450.699 374.734C448.151 373.967 445.527 373.479 442.873 373.278C442.828 373.28 442.784 373.264 442.751 373.233C442.718 373.203 442.698 373.16 442.696 373.115C442.695 373.07 442.711 373.027 442.741 372.993C442.772 372.96 442.814 372.941 442.859 372.939Z" fill="#38485C"/>
<path d="M440.97 374.162C443.607 373.61 446.859 373.95 448.923 375.795C449.001 375.865 448.923 375.979 448.81 375.95C446.261 375.188 443.637 374.703 440.984 374.501C440.939 374.503 440.895 374.487 440.862 374.456C440.829 374.426 440.809 374.383 440.808 374.338C440.806 374.293 440.822 374.25 440.852 374.216C440.883 374.183 440.925 374.164 440.97 374.162Z" fill="#38485C"/>
<path d="M439.084 375.356C441.721 374.805 444.973 375.144 447.037 376.989C447.115 377.06 447.037 377.173 446.924 377.145C444.374 376.384 441.751 375.896 439.098 375.689C439.059 375.683 439.024 375.663 438.998 375.634C438.972 375.605 438.957 375.567 438.955 375.528C438.953 375.489 438.965 375.451 438.989 375.419C439.012 375.388 439.046 375.366 439.084 375.356Z" fill="#38485C"/>
<path d="M437.195 376.551C439.832 376 443.084 376.339 445.148 378.177C445.226 378.255 445.148 378.368 445.035 378.34C442.486 377.576 439.862 377.087 437.209 376.883C437.17 376.877 437.135 376.858 437.109 376.829C437.083 376.8 437.068 376.762 437.066 376.723C437.064 376.684 437.076 376.645 437.1 376.614C437.123 376.583 437.157 376.561 437.195 376.551Z" fill="#38485C"/>
<path d="M439.097 370.698C441.006 372.111 443.459 372.656 445.665 373.419C445.891 373.497 446.068 373.278 446.068 373.08C446.079 373.08 446.091 373.077 446.101 373.071C446.111 373.065 446.12 373.057 446.126 373.048C446.132 373.038 446.136 373.027 446.137 373.015C446.138 373.003 446.136 372.992 446.131 372.981C445.268 370.649 443.805 368.586 441.89 367C440.765 366.095 438.814 365.494 437.803 366.951C436.792 368.407 437.987 369.87 439.097 370.698ZM438.39 368.577C437.86 365.678 441.013 367.163 441.812 367.87C442.314 368.334 442.787 368.83 443.226 369.354C444.128 370.458 444.973 371.607 445.757 372.797C444.696 372.352 443.636 372.005 442.533 371.61C441.274 371.101 438.673 370.174 438.383 368.577H438.39Z" fill="#38485C"/>
<path d="M454.891 368.753C454.184 367.12 452.176 367.29 450.883 367.933C448.684 369.082 446.826 370.789 445.496 372.882C445.487 372.889 445.48 372.897 445.475 372.907C445.47 372.917 445.467 372.928 445.467 372.939C445.467 372.95 445.47 372.96 445.475 372.97C445.48 372.98 445.487 372.989 445.496 372.995C445.496 373.193 445.58 373.441 445.821 373.412C448.14 373.137 450.649 373.129 452.813 372.154C454.113 371.574 455.527 370.309 454.891 368.753ZM449.285 372.288C448.147 372.451 447.015 372.557 445.884 372.762C446.905 371.765 447.977 370.821 449.094 369.934C449.64 369.514 450.214 369.131 450.812 368.789C451.752 368.273 455.145 367.523 454.007 370.238C453.378 371.73 450.642 372.076 449.285 372.267V372.288Z" fill="#38485C"/>
<path d="M442.109 373.737L470.904 373.207C470.904 373.207 462.816 269.355 463.834 263.848C465.481 254.841 464.081 244.562 459.748 239.684L431.689 240.2C431.689 240.2 431.272 248.083 434.248 252.756C434.248 252.756 436.913 254.368 438.2 255.082L442.109 373.737Z" fill="#38485C"/>
<path d="M442.901 368.626C447.27 368.435 446.011 368.428 450.38 368.28C452.501 368.209 466.562 367.75 468.57 368.039C468.613 368.039 468.613 368.117 468.57 368.124C466.584 368.506 452.529 368.718 450.394 368.746C446.018 368.81 447.277 368.746 442.908 368.746C442.895 368.743 442.884 368.735 442.875 368.725C442.867 368.715 442.862 368.702 442.861 368.689C442.86 368.676 442.864 368.662 442.871 368.651C442.878 368.64 442.888 368.631 442.901 368.626Z" fill="#666666"/>
<path d="M432.474 251.505C435.255 252.784 437.923 254.298 440.448 256.029C440.47 256.041 440.486 256.062 440.492 256.086C440.499 256.109 440.496 256.135 440.484 256.156C440.471 256.178 440.451 256.194 440.427 256.2C440.403 256.207 440.378 256.204 440.356 256.192C437.663 254.778 434.906 253.364 432.29 251.816C432.258 251.788 432.236 251.749 432.23 251.707C432.223 251.664 432.231 251.621 432.253 251.584C432.275 251.547 432.309 251.519 432.349 251.504C432.389 251.49 432.434 251.49 432.474 251.505Z" fill="#666666"/>
<path d="M436.036 251.031C436.213 251.572 436.352 252.125 436.453 252.685C436.572 253.12 436.608 253.573 436.559 254.021C436.559 254.106 436.424 254.099 436.382 254.021C436.158 253.604 436.003 253.153 435.923 252.685C435.781 252.176 435.626 251.667 435.498 251.151C435.487 251.082 435.502 251.01 435.542 250.952C435.581 250.894 435.641 250.852 435.71 250.837C435.779 250.822 435.851 250.833 435.911 250.869C435.972 250.905 436.016 250.963 436.036 251.031Z" fill="#666666"/>
<path d="M436.219 248.323C436.134 247.857 436.049 247.39 435.957 246.909C435.865 246.429 435.731 245.941 435.675 245.453C435.675 245.382 435.54 245.404 435.554 245.453C435.639 245.92 435.653 246.408 435.703 246.867C435.752 247.327 435.802 247.814 435.858 248.281C435.964 249.165 436.127 250.048 436.318 250.918C435.853 250.849 435.411 250.675 435.024 250.409C434.654 250.049 434.407 249.581 434.317 249.073C434.169 248.535 434.049 247.998 433.893 247.468C433.689 246.887 433.54 246.288 433.448 245.679C433.448 245.602 433.313 245.63 433.327 245.679C433.462 246.956 433.725 248.216 434.112 249.44C434.282 249.928 434.395 250.416 434.819 250.678C435.308 250.932 435.845 251.081 436.396 251.116C436.459 251.151 436.551 251.116 436.544 251.038C436.502 250.204 436.403 249.221 436.219 248.323Z" fill="#666666"/>
<path d="M459.26 263.572C459.422 261.508 459.719 259.458 459.91 257.394C460.255 253.256 459.925 249.09 458.934 245.057C458.934 244.98 459.033 244.951 459.047 245.022C459.91 248.565 460.347 252.199 460.348 255.845C460.242 259.486 459.641 263.085 459.641 266.733C459.641 270.38 460.009 274.106 460.348 277.782C460.688 281.458 460.963 285.184 461.274 288.882C462.504 303.728 463.664 318.623 464.844 333.498C465.177 337.647 465.488 341.804 465.806 345.954C466.124 350.104 466.619 360.602 466.852 364.837C466.852 365.205 466.329 365.183 466.287 364.837C465.516 357.386 464.873 343.692 464.286 336.219C463.699 328.747 463.105 321.423 462.512 314.021C461.918 306.619 461.345 299.224 460.765 291.83C460.475 288.132 460.2 284.428 459.917 280.73C459.634 277.033 459.295 273.357 459.21 269.666C459.113 267.636 459.13 265.601 459.26 263.572Z" fill="#666666"/>
<path d="M448.98 244.979C448.984 244.969 448.992 244.959 449.001 244.953C449.01 244.946 449.022 244.943 449.033 244.943C449.045 244.943 449.056 244.946 449.066 244.953C449.075 244.959 449.082 244.969 449.086 244.979C449.266 245.462 449.366 245.971 449.383 246.485C449.476 247.035 449.614 247.576 449.793 248.104C450.123 249.18 450.721 250.153 451.532 250.932C453.328 252.551 455.703 253.117 457.994 253.633C458.079 253.633 458.051 253.767 457.994 253.774C456.644 253.855 455.292 253.67 454.014 253.23C452.872 252.904 451.814 252.338 450.91 251.568C450.049 250.775 449.451 249.736 449.199 248.592C449.071 247.997 448.995 247.391 448.973 246.782C448.973 246.492 448.973 246.195 448.973 245.906C448.91 245.6 448.912 245.284 448.98 244.979Z" fill="#666666"/>
<path d="M437.958 201.89C426.23 210.593 407.142 211.378 405.014 210.374C400.511 208.303 393.964 188.854 392.381 181.763C391.928 179.713 406.767 180.222 408.252 181.905C409.609 183.439 412.875 196.878 414.24 197.076C421.062 197.292 427.892 197.103 434.692 196.511C444.533 195.493 441.429 199.317 437.958 201.89Z" fill="#E08585"/>
<path d="M423.494 196.072L425.255 209.808C425.255 209.808 435.696 205.722 440.242 201.53C444.788 197.338 442.193 195.796 437.655 195.563C433.116 195.33 423.494 196.072 423.494 196.072Z" fill="#D1D8E0"/>
<path d="M425.749 196.503C425.749 196.411 425.798 196.376 425.812 196.468C426.544 200.275 427.04 204.123 427.297 207.991C427.297 207.991 427.255 207.991 427.248 207.991C426.767 206.139 425.904 197.493 425.749 196.503Z" fill="#38485C"/>
<path d="M465.374 248.74C465.275 248.854 423.734 249.737 423.353 249.32C422.808 248.726 429.51 207.065 436.078 197.974C437.718 195.705 443.614 194.142 446.067 196.44C453.193 203.092 454.692 208.705 456.558 213.279C458.371 218.227 459.894 223.276 461.118 228.401C463.635 238.186 465.706 248.345 465.374 248.74Z" fill="#D1D8E0"/>
<path d="M446.825 196.539C446.825 196.539 440.71 210.494 439.706 214.057C438.327 218.935 436.312 251.088 436.312 251.088L466.004 249.348C466.004 249.348 460.349 217.203 453.88 205.793C448.804 196.815 446.825 196.539 446.825 196.539Z" fill="#FFD633"/>
<path d="M437.16 197.21C437.16 197.21 433.71 209.936 433.031 211.858C432.353 213.781 426.322 251.109 426.322 251.109L422.66 249.744C422.66 249.744 426.782 223.898 430.437 210.734C434.092 197.571 437.16 197.21 437.16 197.21Z" fill="#FFD633"/>
<path d="M437.152 238.511L463.748 238.454C463.522 237.458 463.289 236.411 463.041 235.33L437.4 235.379C437.301 236.44 437.23 237.486 437.152 238.511Z" fill="#D1D8E0"/>
<path d="M424.583 238.532H428.387C428.55 237.514 428.726 236.468 428.903 235.407H425.149C424.951 236.496 424.76 237.528 424.583 238.532Z" fill="#D1D8E0"/>
<path d="M436.756 243.997L464.921 243.94C464.724 242.993 464.504 241.947 464.264 240.823L436.983 240.879C436.926 241.982 436.827 243.028 436.756 243.997Z" fill="#D1D8E0"/>
<path d="M423.621 244.025H427.488C427.643 243.042 427.813 241.996 427.99 240.9H424.158C423.967 242.024 423.783 243.071 423.621 244.025Z" fill="#D1D8E0"/>
<path d="M451.377 205.581C452.961 217.231 450.734 233.442 448.083 235.33C440.518 240.709 427.503 243.573 421.968 244.216C418.744 244.591 417.408 228.663 420.257 228.175C424.753 227.426 435.513 225.142 437.04 224.457C438.567 223.771 441.522 213.145 444.307 205.432C447.333 197.055 450.613 199.939 451.377 205.581Z" fill="#E08585"/>
<path d="M423.819 228.719C421.353 227.06 419.143 225.05 417.258 222.753C415.138 219.925 412.246 215.513 410.684 216.609C407.488 218.864 414.65 229.9 414.65 229.9C414.65 229.9 418.587 234.262 421.96 232.304C422.569 231.935 423.065 231.405 423.393 230.773C423.721 230.141 423.869 229.43 423.819 228.719Z" fill="#E08585"/>
<path d="M401.692 229.115C401.55 229.6 401.56 230.117 401.721 230.596C401.881 231.075 402.185 231.493 402.59 231.795C401.929 232.343 401.481 233.106 401.324 233.951C401.112 235.45 403.374 236.432 403.374 236.432C402.806 237.142 402.466 238.007 402.399 238.914C402.342 240.37 404.477 241.685 404.477 241.685C404.318 242.628 404.504 243.597 405.001 244.414C406.414 246.535 410.303 246.436 412.777 246.4C415.251 246.365 422.243 243.933 423.622 243.573L423.494 227.701C423.494 227.701 412.339 224.718 409.433 225.178C407.001 225.566 402.286 227.306 401.692 229.115Z" fill="#E08585"/>
<path d="M402.696 231.547C405.199 230.508 407.871 230.275 410.529 229.879C410.586 229.879 410.6 229.964 410.529 229.971C407.885 230.331 405.34 231.208 402.753 231.675C402.736 231.679 402.719 231.677 402.704 231.67C402.69 231.662 402.678 231.65 402.671 231.635C402.664 231.619 402.663 231.602 402.668 231.586C402.672 231.57 402.682 231.557 402.696 231.547Z" fill="#38485C"/>
<path d="M403.425 236.22C404.015 236.044 404.626 235.944 405.242 235.923C405.899 235.86 406.55 235.803 407.2 235.768C408.508 235.683 409.823 235.626 411.131 235.612C411.187 235.612 411.201 235.704 411.131 235.704C409.823 235.789 408.522 235.895 407.221 236.036C406.578 236.107 405.927 236.178 405.277 236.263C404.669 236.373 404.05 236.421 403.432 236.404C403.413 236.397 403.397 236.385 403.385 236.369C403.373 236.354 403.367 236.334 403.366 236.315C403.365 236.295 403.37 236.275 403.381 236.258C403.391 236.242 403.407 236.228 403.425 236.22Z" fill="#38485C"/>
<path d="M404.535 241.685C405.071 241.528 405.631 241.466 406.189 241.501L407.978 241.409C409.172 241.346 410.367 241.282 411.555 241.176C411.611 241.176 411.626 241.268 411.555 241.268C410.346 241.381 409.137 241.515 407.928 241.614L406.147 241.756C405.609 241.851 405.058 241.851 404.521 241.756C404.521 241.756 404.514 241.692 404.535 241.685Z" fill="#38485C"/>
<path d="M439.923 216.574L453.356 220.109C453.356 220.109 453.476 208.896 451.291 203.142C449.107 197.387 446.71 199.19 444.794 203.311C442.878 207.433 439.923 216.574 439.923 216.574Z" fill="#D1D8E0"/>
<path d="M441.169 214.651C441.077 214.651 441.063 214.566 441.169 214.58C444.973 215.329 448.727 216.311 452.41 217.521C452.41 217.521 452.41 217.578 452.41 217.571C450.48 217.323 442.138 214.884 441.169 214.651Z" fill="#38485C"/>
<path d="M467.169 174.453C470.174 174.559 473.09 175.502 475.588 177.176C478.086 178.85 480.068 181.188 481.309 183.927L468.088 183.474L465.261 190.579L467.558 197.861L480.785 198.334C479.412 200.865 477.387 202.983 474.921 204.469C472.455 205.954 469.636 206.754 466.757 206.786C463.878 206.817 461.043 206.079 458.545 204.647C456.047 203.215 453.977 201.142 452.549 198.642C451.121 196.142 450.386 193.306 450.422 190.427C450.457 187.548 451.261 184.73 452.75 182.266C454.24 179.802 456.36 177.78 458.893 176.411C461.425 175.041 464.278 174.372 467.155 174.475L467.169 174.453Z" fill="#69788A"/>
<path d="M373.202 203.425C370.197 203.319 367.281 202.376 364.783 200.702C362.285 199.028 360.303 196.69 359.062 193.951L372.283 194.425L375.11 187.355L372.813 180.067L359.586 179.593C360.959 177.062 362.984 174.944 365.451 173.459C367.917 171.973 370.736 171.173 373.615 171.142C376.495 171.111 379.33 171.85 381.828 173.282C384.326 174.715 386.396 176.788 387.824 179.289C389.252 181.79 389.985 184.626 389.949 187.506C389.913 190.385 389.108 193.202 387.618 195.666C386.128 198.13 384.006 200.151 381.473 201.52C378.939 202.889 376.086 203.556 373.209 203.453L373.202 203.425Z" fill="#69788A"/>
<path d="M382.987 180.397L382.472 194.781L461.014 197.593L461.529 183.208L382.987 180.397Z" fill="#69788A"/>
<path d="M405.999 185.469L405.785 191.397L438.129 192.56L438.342 186.633L405.999 185.469Z" fill="#666666"/>
<path d="M438.708 202.209C440.426 202.548 444.512 199.84 446.322 197.316C446.442 197.147 446.4 195.153 446.457 192.735C446.499 191.272 446.577 189.639 446.761 188.154L437.174 189.278C437.476 191.2 437.545 193.151 437.379 195.09C437.349 195.293 437.301 195.494 437.238 195.69C437.238 195.69 437.238 195.754 437.238 195.789C436.884 196.906 436.015 201.685 438.708 202.209Z" fill="#E08585"/>
<path d="M437.237 195.69C437.242 195.723 437.242 195.757 437.237 195.789C437.55 195.871 437.869 195.928 438.191 195.959C443.6 196.496 445.756 190.021 446.244 188.225L437.195 189.278C437.5 191.2 437.571 193.151 437.407 195.09C437.364 195.293 437.307 195.494 437.237 195.69Z" fill="#38485C"/>
<path d="M448.464 175.592C449.475 178.921 447.715 188.522 445.347 190.664C441.918 193.768 436.305 194.064 433.668 189.957C431.109 185.956 433.625 173.478 436.269 171.534C440.165 168.628 446.966 170.678 448.464 175.592Z" fill="#E08585"/>
<path d="M440.462 181.509C440.462 181.509 440.504 181.551 440.462 181.573C440.292 182.209 440.214 182.986 440.751 183.312C440.08 183.092 440.193 182.06 440.462 181.509Z" fill="#38485C"/>
<path d="M441.169 180.964C442.215 181.12 441.834 183.206 440.865 183.085C439.897 182.965 440.293 180.837 441.169 180.964Z" fill="#38485C"/>
<path d="M436.41 180.717C436.41 180.717 436.353 180.717 436.353 180.759C436.254 181.41 436.028 182.173 435.406 182.251C436.141 182.315 436.424 181.353 436.41 180.717Z" fill="#38485C"/>
<path d="M435.959 179.939C434.934 179.671 434.467 181.742 435.422 181.99C436.376 182.237 436.821 180.159 435.959 179.939Z" fill="#38485C"/>
<path d="M442.172 180.159C441.912 180.029 441.659 179.885 441.415 179.727C441.125 179.558 440.878 179.452 440.708 179.141C440.674 179.047 440.672 178.945 440.703 178.85C440.733 178.755 440.795 178.673 440.878 178.617C441.057 178.532 441.255 178.495 441.452 178.511C441.65 178.527 441.84 178.596 442.002 178.709C442.366 178.888 442.65 179.196 442.801 179.572C442.826 179.658 442.827 179.749 442.804 179.835C442.78 179.921 442.733 179.999 442.668 180.06C442.602 180.121 442.521 180.162 442.434 180.18C442.346 180.197 442.255 180.19 442.172 180.159Z" fill="#38485C"/>
<path d="M435.378 178.985C435.669 178.981 435.959 178.96 436.247 178.921C436.557 178.942 436.865 178.86 437.124 178.688C437.195 178.618 437.24 178.527 437.253 178.428C437.266 178.329 437.245 178.229 437.195 178.144C437.071 177.989 436.908 177.869 436.723 177.798C436.538 177.728 436.337 177.708 436.141 177.741C435.734 177.74 435.343 177.895 435.045 178.172C434.981 178.239 434.938 178.323 434.92 178.415C434.903 178.506 434.912 178.6 434.948 178.686C434.983 178.772 435.042 178.846 435.118 178.899C435.195 178.952 435.285 178.982 435.378 178.985Z" fill="#38485C"/>
<path d="M439.393 187.603C439.228 187.767 439.01 187.867 438.778 187.886C438.538 187.838 438.312 187.739 438.114 187.596C438.071 187.596 438.114 187.596 438.114 187.596C438.185 187.74 438.293 187.862 438.427 187.95C438.561 188.038 438.717 188.089 438.877 188.098C439.014 188.086 439.145 188.034 439.253 187.948C439.361 187.863 439.442 187.748 439.485 187.617C439.471 187.61 439.421 187.589 439.393 187.603Z" fill="#38485C"/>
<path d="M439.048 185.546C438.837 185.77 438.582 185.949 438.298 186.071C438.015 186.193 437.709 186.254 437.401 186.253C437.131 186.256 436.862 186.22 436.602 186.147L436.454 186.104L436.312 186.055C436.28 186.04 436.253 186.016 436.236 185.986C436.218 185.955 436.21 185.92 436.213 185.885C436.21 185.864 436.21 185.842 436.213 185.821V185.765C436.291 185.27 436.482 184.521 436.482 184.521C436.277 184.577 435.273 184.825 435.337 184.563C435.806 182.327 436.502 180.146 437.415 178.052C437.423 178.041 437.435 178.034 437.448 178.03C437.461 178.027 437.474 178.028 437.487 178.032C437.5 178.037 437.51 178.045 437.518 178.057C437.525 178.068 437.529 178.081 437.528 178.094C437.104 180.159 436.326 182.138 435.867 184.209C436.224 184.117 436.593 184.077 436.963 184.089C437.033 184.089 436.581 185.503 436.56 185.758C436.96 185.874 437.38 185.908 437.795 185.858C438.209 185.808 438.609 185.675 438.97 185.468C439.048 185.447 439.119 185.496 439.048 185.546Z" fill="#38485C"/>
<path d="M436.961 185.949C437.169 186.355 437.479 186.701 437.859 186.952C438.071 187.082 438.319 187.141 438.566 187.122C439.104 187.122 439.21 186.613 439.188 186.189C439.172 185.964 439.132 185.741 439.068 185.524C438.428 185.885 437.691 186.034 436.961 185.949Z" fill="#38485C"/>
<path d="M437.86 186.952C438.072 187.082 438.319 187.141 438.567 187.122C439.104 187.122 439.21 186.613 439.189 186.189C438.914 186.148 438.633 186.202 438.392 186.34C438.151 186.479 437.963 186.694 437.86 186.952Z" fill="#EBADAD"/>
<path d="M434.671 173.959C434.812 173.683 435.201 173.011 435.576 173.032C435.95 173.054 436.283 173.874 437.166 174.192C438.382 174.658 440.701 173.485 442.384 174.107C444.066 174.729 444.943 176.468 444.999 179.565C445.056 182.661 447.247 185.355 448.117 183.403C448.117 183.333 448.195 183.206 448.28 183.022C448.803 180.109 448.944 177.154 448.463 175.592C446.965 170.678 440.157 168.649 436.268 171.52C435.545 172.19 434.997 173.028 434.671 173.959Z" fill="#38485C"/>
<path d="M446.407 183.418C446.407 183.418 448.641 180.357 450.033 181.163C451.426 181.968 449.701 186.436 448.033 187.016C447.825 187.106 447.6 187.153 447.373 187.154C447.146 187.155 446.922 187.11 446.713 187.021C446.504 186.933 446.315 186.802 446.158 186.639C446.001 186.475 445.879 186.281 445.799 186.069L446.407 183.418Z" fill="#E08585"/>
<path d="M449.511 182.435C449.511 182.435 449.511 182.47 449.511 182.477C448.972 182.731 448.493 183.095 448.105 183.545C447.716 183.996 447.427 184.523 447.255 185.093C447.324 184.975 447.419 184.873 447.532 184.796C447.645 184.719 447.774 184.667 447.909 184.646C448.044 184.624 448.182 184.633 448.314 184.671C448.445 184.709 448.567 184.776 448.669 184.867C448.669 184.867 448.669 184.938 448.669 184.931C448.467 184.862 448.249 184.857 448.044 184.916C447.839 184.976 447.658 185.097 447.524 185.263C447.305 185.547 447.116 185.853 446.958 186.175C446.902 186.281 446.711 186.217 446.753 186.104C446.725 184.591 447.92 182.548 449.511 182.435Z" fill="#38485C"/>
<path d="M433.278 175.252C433.278 175.252 436.106 166.012 444.384 168.494C452.663 170.975 449.941 180.25 449.941 180.25L433.278 175.252Z" fill="#FFD633"/>
<path d="M450.742 179.799L432.838 174.428L432.444 175.741L450.348 181.113L450.742 179.799Z" fill="#FFD633"/>
<path d="M441.67 177.055L437.944 175.938L441.543 167.122L445.268 168.239L441.67 177.055Z" fill="#FFD633"/>
<path opacity="0.1" d="M441.67 177.055L437.944 175.938L441.543 167.122L445.268 168.239L441.67 177.055Z" fill="#38485C"/>
<path d="M391.738 190.607C393.541 191.823 393.943 188.996 393.943 188.996C393.943 188.996 394.346 193.237 396.701 193.739C399.055 194.241 399.33 190.812 399.359 190.572C399.359 190.791 399.854 194.651 402.271 194.948C404.689 195.245 404.555 191.739 404.541 191.512C404.633 191.717 405.842 194.383 407.729 194.192C410.967 193.852 408.153 185.942 409.256 183.545L414.049 182.449C412.822 182.142 411.71 181.487 410.847 180.562C409.56 179.261 408.726 178.391 407.63 178.031C407.147 177.854 406.62 177.837 406.127 177.984C405.635 178.13 405.202 178.432 404.894 178.844C404.894 178.844 404.279 176.61 402.385 176.32C401.409 176.171 400.306 177.599 400.306 177.599C400.141 177.105 399.842 176.665 399.443 176.329C399.044 175.994 398.56 175.775 398.044 175.698C396.686 175.57 395.789 177.027 395.789 177.027C395.789 177.027 394.46 175.613 393.031 175.903C390.147 176.518 387.864 187.992 391.738 190.607Z" fill="#E08585"/>
<path d="M410.316 183.121L413.95 182.456L414.332 182.286C418.573 180.222 419.931 174.326 416.587 174.863C414.042 175.273 412.289 179.282 409.623 179.324L410.316 183.121Z" fill="#E08585"/>
<path d="M395.613 177.211H395.556C393.816 180.926 393.242 185.082 393.909 189.13C393.909 189.257 394.149 189.278 394.149 189.13C394.06 185.107 394.553 181.092 395.613 177.211Z" fill="#38485C"/>
<path d="M400.3 177.536C400.3 177.493 400.236 177.472 400.215 177.536C398.331 181.664 397.981 186.329 399.225 190.692C399.274 190.848 399.472 190.933 399.43 190.756C398.751 187.716 399.246 181.17 400.3 177.536Z" fill="#38485C"/>
<path d="M404.746 191.788C403.566 187.546 403.87 183.305 404.81 178.992C404.81 178.936 404.746 178.921 404.718 178.992C403.686 180.972 403.375 183.771 403.304 185.97C403.21 188.011 403.651 190.041 404.584 191.859C404.633 191.901 404.775 191.88 404.746 191.788Z" fill="#38485C"/>
</svg>
