<svg width="80" height="44" viewBox="0 0 80 44" fill="none" xmlns="http://www.w3.org/2000/svg">
<g clip-path="url(#clip0_1381_11054)">
<path d="M79.2226 34.082L63.8786 4.43328C62.5551 1.80137 59.8436 0 56.6959 0H56.6883C53.5444 0 50.8291 1.80137 49.5056 4.43328L38.7049 25.3027C37.4989 23.1562 35.5762 21.4724 33.2553 20.5622C35.8455 18.6888 37.5331 15.6359 37.5331 12.1925C37.5331 8.1991 35.2652 4.74425 31.9507 3.0301C29.0306 1.49419 25.6971 0.625741 22.1626 0.625741H6.00711C2.685 0.625741 0 3.31074 0 6.62527V36.6912C0 40.0057 2.685 42.6907 6.00711 42.6907H23.4785C26.8462 42.6907 30.0507 41.9929 32.9595 40.749L34.0668 40.2143C34.1275 40.1839 34.1882 40.1536 34.2489 40.1232C35.2994 41.8639 37.1993 43.0358 39.3875 43.0358C41.8184 43.0358 43.9118 41.5947 44.8561 39.5127C45.3264 38.4129 46.3882 37.6355 47.6397 37.5748H65.7407C66.996 37.6355 68.054 38.4129 68.5243 39.5127C69.4648 41.5947 71.562 43.0358 73.9929 43.0358C77.3112 43.0358 79.9962 40.3432 79.9962 37.0401C79.9962 35.963 79.7194 34.9543 79.2188 34.0858" fill="white"/>
</g>
<defs>
<clipPath id="clip0_1381_11054">
<rect width="80" height="43.032" fill="white"/>
</clipPath>
</defs>
</svg>
