<svg width="526" height="297" viewBox="0 0 526 297" fill="none" xmlns="http://www.w3.org/2000/svg">
<g clip-path="url(#clip0_2388_26772)">
<rect width="526" height="297" rx="7.73529" fill="#ADC3EB"/>
<g clip-path="url(#clip1_2388_26772)" filter="url(#filter0_d_2388_26772)">
<path d="M261.453 339.383V276.467H42.3859V339.383H261.453Z" fill="white"/>
<path d="M254.546 331.549V284.3H224.237V331.549H254.546Z" fill="#336ACC"/>
<path opacity="0.8" d="M217.788 331.549V284.3H187.48V331.549H217.788Z" fill="#336ACC"/>
<path opacity="0.6" d="M181.065 331.585V284.336H150.756V331.585H181.065Z" fill="#336ACC"/>
<path opacity="0.4" d="M144.343 331.549V284.3H114.034V331.549H144.343Z" fill="#336ACC"/>
<path opacity="0.2" d="M107.62 331.549V284.3H77.3116V331.549H107.62Z" fill="#336ACC"/>
<g opacity="0.2">
<path d="M254.546 331.55V284.3H224.237V331.55H254.546Z" fill="#101E37"/>
<path opacity="0.8" d="M217.788 331.55V284.3H187.48V331.55H217.788Z" fill="#101E37"/>
<path opacity="0.6" d="M181.065 331.585V284.336H150.757V331.585H181.065Z" fill="#101E37"/>
<path opacity="0.4" d="M144.343 331.549V284.3H114.034V331.549H144.343Z" fill="#101E37"/>
<path opacity="0.2" d="M107.62 331.549V284.3H77.3116V331.549H107.62Z" fill="#101E37"/>
</g>
<path d="M223.691 184.266L179.657 139.777L24.7531 296.28L68.787 340.768L223.691 184.266Z" fill="white"/>
<path d="M213.271 183.699L180.202 150.288L158.77 171.941L191.839 205.351L213.271 183.699Z" fill="#336ACC"/>
<path opacity="0.8" d="M187.312 209.966L154.243 176.556L132.812 198.208L165.881 231.618L187.312 209.966Z" fill="#336ACC"/>
<path opacity="0.6" d="M161.329 236.207L128.26 202.797L106.828 224.449L139.897 257.86L161.329 236.207Z" fill="#336ACC"/>
<path opacity="0.4" d="M135.381 262.449L102.312 229.038L80.8807 250.691L113.95 284.101L135.381 262.449Z" fill="#336ACC"/>
<path opacity="0.2" d="M109.398 288.691L76.3286 255.281L54.8973 276.933L87.9663 310.343L109.398 288.691Z" fill="#336ACC"/>
<g opacity="0.1">
<path d="M213.27 183.699L180.201 150.288L158.77 171.941L191.839 205.351L213.27 183.699Z" fill="#101E37"/>
<path opacity="0.8" d="M187.312 209.965L154.243 176.555L132.812 198.208L165.881 231.618L187.312 209.965Z" fill="#101E37"/>
<path opacity="0.6" d="M161.329 236.207L128.26 202.796L106.829 224.449L139.898 257.859L161.329 236.207Z" fill="#101E37"/>
<path opacity="0.4" d="M135.381 262.449L102.312 229.038L80.8807 250.691L113.95 284.101L135.381 262.449Z" fill="#101E37"/>
<path opacity="0.2" d="M109.397 288.69L76.3281 255.28L54.8968 276.933L87.9658 310.343L109.397 288.69Z" fill="#101E37"/>
</g>
<path d="M88.413 101.605H26.1396V322.933H88.413V101.605Z" fill="white"/>
<path d="M80.6241 108.62H33.8574V139.241H80.6241V108.62Z" fill="#336ACC"/>
<path opacity="0.8" d="M80.6241 145.757H33.8574V176.378H80.6241V145.757Z" fill="#336ACC"/>
<path opacity="0.6" d="M80.6241 182.858H33.8574V213.479H80.6241V182.858Z" fill="#336ACC"/>
<path opacity="0.4" d="M80.6241 219.96H33.8574V250.581H80.6241V219.96Z" fill="#336ACC"/>
<path opacity="0.2" d="M80.6241 257.061H33.8574V287.683H80.6241V257.061Z" fill="#336ACC"/>
</g>
<g filter="url(#filter1_d_2388_26772)">
<path opacity="0.7" d="M422.347 71.9052H103.653V253.231H422.347V71.9052Z" fill="white"/>
<path d="M422.878 255.224H102.106V40.6421H422.878V255.224ZM103.746 253.567H421.238V42.2991H103.746V253.567Z" fill="#1C345F"/>
<path d="M422.059 41.4717H102.927V72.292H422.059V41.4717Z" fill="#8DE2D6"/>
<path d="M422.878 73.1194H102.106V40.6421H422.878V73.1194ZM103.746 71.4624H421.238V42.2991H103.746V71.4624Z" fill="#1C345F"/>
<path d="M131.56 57.0808C131.56 58.6146 131.11 60.1139 130.267 61.3892C129.423 62.6644 128.225 63.6584 126.822 64.2453C125.42 64.8323 123.877 64.9858 122.388 64.6866C120.899 64.3874 119.532 63.6488 118.458 62.5643C117.385 61.4798 116.654 60.098 116.358 58.5937C116.062 57.0894 116.214 55.5302 116.795 54.1132C117.376 52.6962 118.359 51.4851 119.621 50.633C120.884 49.7809 122.367 49.326 123.885 49.326C125.921 49.326 127.873 50.1431 129.312 51.5974C130.752 53.0517 131.56 55.0241 131.56 57.0808Z" fill="#FF9500"/>
<path d="M162.916 57.0808C162.916 58.6146 162.466 60.1139 161.622 61.3892C160.779 62.6644 159.58 63.6584 158.178 64.2453C156.776 64.8323 155.232 64.9858 153.744 64.6866C152.255 64.3874 150.887 63.6488 149.814 62.5643C148.741 61.4798 148.01 60.098 147.713 58.5937C147.417 57.0894 147.569 55.5302 148.15 54.1132C148.731 52.6962 149.715 51.4851 150.977 50.633C152.239 49.7809 153.723 49.326 155.241 49.326C157.276 49.326 159.229 50.1431 160.668 51.5974C162.107 53.0517 162.916 55.0241 162.916 57.0808Z" fill="#F3F6F9"/>
<path d="M194.237 57.0808C194.237 58.6146 193.786 60.1139 192.943 61.3892C192.1 62.6644 190.901 63.6584 189.499 64.2453C188.096 64.8323 186.553 64.9858 185.064 64.6866C183.576 64.3874 182.208 63.6488 181.135 62.5643C180.061 61.4798 179.33 60.098 179.034 58.5937C178.738 57.0894 178.89 55.5302 179.471 54.1132C180.052 52.6962 181.036 51.4851 182.298 50.633C183.56 49.7809 185.044 49.326 186.562 49.326C188.597 49.326 190.549 50.1431 191.989 51.5974C193.428 53.0517 194.237 55.0241 194.237 57.0808Z" fill="#336ACC"/>
<path d="M295.923 157.418C295.923 157.418 295.38 187.934 276.059 222.509H248.923C229.602 187.934 229.086 157.418 229.086 157.418C256.82 141.625 257.552 106.364 257.552 106.364H260.266V162.271C258.225 162.755 256.431 163.98 255.225 165.714C254.02 167.447 253.487 169.568 253.729 171.673C253.97 173.777 254.968 175.719 256.534 177.128C258.099 178.537 260.123 179.316 262.22 179.316C264.316 179.316 266.34 178.537 267.906 177.128C269.471 175.719 270.469 173.777 270.711 171.673C270.952 169.568 270.419 167.447 269.214 165.714C268.009 163.98 266.215 162.755 264.173 162.271V106.364H266.887C266.887 106.364 267.837 141.625 295.923 157.418Z" fill="#1C345F"/>
<path d="M282.464 219.164H242.221V236.273H282.464V219.164Z" fill="#2BAB98"/>
<path d="M355.623 197.805H352.909C352.909 173.503 343.355 150.196 326.347 133.011C309.34 115.827 286.273 106.173 262.22 106.173C238.168 106.173 215.101 115.827 198.094 133.011C181.086 150.196 171.531 173.503 171.531 197.805H168.818C168.818 185.412 171.234 173.14 175.928 161.69C180.622 150.24 187.502 139.836 196.175 131.072C204.848 122.309 215.145 115.357 226.477 110.615C237.809 105.872 249.955 103.431 262.22 103.431C274.486 103.431 286.632 105.872 297.964 110.615C309.296 115.357 319.593 122.309 328.266 131.072C336.939 139.836 343.819 150.24 348.513 161.69C353.207 173.14 355.623 185.412 355.623 197.805Z" fill="#1C345F"/>
<path d="M354.374 102.279H168.167V105.021H354.374V102.279Z" fill="#1C345F"/>
<path d="M179.862 188.126H160.704V207.484H179.862V188.126Z" fill="white"/>
<path d="M181.219 208.828H159.347V186.756H181.219V208.828ZM162.061 206.086H178.505V189.497H162.061V206.086Z" fill="#1C345F"/>
<path d="M179.862 93.9713H160.704V113.329H179.862V93.9713Z" fill="white"/>
<path d="M181.219 114.59H159.347V92.6552H181.219V114.59ZM162.061 111.848H178.505V95.397H162.061V111.848Z" fill="#1C345F"/>
<path d="M363.953 188.126H344.795V207.484H363.953V188.126Z" fill="white"/>
<path d="M365.31 208.828H343.438V186.756H365.31V208.828ZM346.152 206.086H362.597V189.497H346.152V206.086Z" fill="#1C345F"/>
<path d="M363.953 93.9713H344.795V113.329H363.953V93.9713Z" fill="white"/>
<path d="M365.31 114.59H343.438V92.6552H365.31V114.59ZM346.152 111.848H362.597V95.397H346.152V111.848Z" fill="#1C345F"/>
</g>
<g filter="url(#filter2_d_2388_26772)">
<rect width="40.2235" height="40.2235" rx="3.09412" transform="matrix(1 0 0 -1 306 272.282)" fill="#FFCC00"/>
<rect width="40.2235" height="40.2235" rx="3.09412" transform="matrix(1 0 0 -1 354.224 272.282)" fill="#336ACC"/>
<rect width="40.2235" height="40.2235" rx="3.09412" transform="matrix(1 0 0 -1 402.447 272.282)" fill="#8DE2D6"/>
<rect width="40.2235" height="40.2235" rx="3.09412" transform="matrix(1 0 0 -1 450.67 272.282)" fill="#F3F6F9"/>
</g>
<g filter="url(#filter3_d_2388_26772)">
<rect x="409" y="133.704" width="50" height="50" rx="7.73529" fill="white" shape-rendering="crispEdges"/>
<rect x="408.033" y="132.737" width="51.9338" height="51.9338" rx="8.70221" stroke="#E6EBF0" stroke-width="1.93382" shape-rendering="crispEdges"/>
<path d="M418.774 167.42C418.341 167.42 417.989 167.321 417.718 167.122C417.466 166.924 417.312 166.662 417.258 166.337C417.204 165.994 417.267 165.615 417.448 165.2L424.595 149.362C424.83 148.839 425.109 148.469 425.434 148.252C425.777 148.018 426.165 147.9 426.598 147.9C427.014 147.9 427.384 148.018 427.708 148.252C428.051 148.469 428.34 148.839 428.575 149.362L435.749 165.2C435.948 165.615 436.02 165.994 435.966 166.337C435.912 166.68 435.758 166.951 435.506 167.149C435.253 167.33 434.919 167.42 434.504 167.42C433.999 167.42 433.601 167.303 433.313 167.068C433.042 166.816 432.798 166.437 432.582 165.931L430.822 161.843L432.284 162.791H420.859L422.321 161.843L420.588 165.931C420.353 166.455 420.11 166.834 419.857 167.068C419.604 167.303 419.243 167.42 418.774 167.42ZM426.544 151.88L422.754 160.895L422.05 160.029H431.093L430.416 160.895L426.598 151.88H426.544ZM442.765 167.474C441.809 167.474 440.951 167.294 440.193 166.933C439.453 166.554 438.867 166.048 438.433 165.417C438.018 164.785 437.811 164.072 437.811 163.278C437.811 162.303 438.063 161.536 438.569 160.977C439.074 160.399 439.895 159.984 441.032 159.731C442.17 159.479 443.695 159.352 445.608 159.352H446.962V161.302H445.635C444.516 161.302 443.622 161.356 442.955 161.464C442.287 161.572 441.809 161.762 441.52 162.033C441.249 162.285 441.114 162.646 441.114 163.116C441.114 163.711 441.321 164.198 441.736 164.577C442.151 164.957 442.729 165.146 443.469 165.146C444.065 165.146 444.588 165.011 445.039 164.74C445.509 164.451 445.879 164.063 446.149 163.576C446.42 163.088 446.555 162.529 446.555 161.897V158.784C446.555 157.881 446.357 157.232 445.96 156.834C445.563 156.437 444.895 156.239 443.956 156.239C443.433 156.239 442.864 156.302 442.251 156.428C441.655 156.555 441.023 156.771 440.356 157.078C440.013 157.241 439.706 157.286 439.435 157.213C439.182 157.141 438.984 156.997 438.839 156.78C438.695 156.546 438.623 156.293 438.623 156.022C438.623 155.752 438.695 155.49 438.839 155.237C438.984 154.966 439.228 154.768 439.57 154.641C440.401 154.299 441.195 154.055 441.953 153.911C442.729 153.766 443.433 153.694 444.065 153.694C445.364 153.694 446.429 153.892 447.259 154.29C448.108 154.687 448.739 155.291 449.154 156.103C449.57 156.898 449.777 157.926 449.777 159.19V165.687C449.777 166.247 449.642 166.68 449.371 166.987C449.1 167.276 448.712 167.42 448.207 167.42C447.702 167.42 447.304 167.276 447.016 166.987C446.745 166.68 446.61 166.247 446.61 165.687V164.388H446.826C446.7 165.02 446.447 165.57 446.068 166.039C445.707 166.491 445.247 166.843 444.687 167.095C444.128 167.348 443.487 167.474 442.765 167.474Z" fill="#101E37"/>
</g>
<g filter="url(#filter4_d_2388_26772)">
<g filter="url(#filter5_d_2388_26772)">
<rect x="409" y="75.7036" width="50" height="50" rx="7.73529" fill="white"/>
<rect x="408.517" y="75.2202" width="50.9669" height="50.9669" rx="8.21875" stroke="#E6EBF0" stroke-width="0.966912"/>
</g>
<g clip-path="url(#clip2_2388_26772)">
<path d="M428.754 116.989C431.581 116.989 433.876 114.585 433.876 111.623V106.257H428.754C425.926 106.257 423.631 108.661 423.631 111.623C423.631 114.585 425.926 116.989 428.754 116.989Z" fill="#0ACF83"/>
<path d="M423.631 100.891C423.631 97.9284 425.926 95.5243 428.754 95.5243H433.876V106.257H428.754C425.926 106.257 423.631 103.853 423.631 100.891Z" fill="#A259FF"/>
<path d="M423.631 90.1581C423.631 87.1959 425.926 84.7919 428.754 84.7919H433.876V95.5243H428.754C425.926 95.5243 423.631 93.1203 423.631 90.1581Z" fill="#F24E1E"/>
<path d="M433.876 84.7919H438.999C441.826 84.7919 444.121 87.1959 444.121 90.1581C444.121 93.1203 441.826 95.5243 438.999 95.5243H433.876V84.7919Z" fill="#FF7262"/>
<path d="M444.121 100.891C444.121 103.853 441.826 106.257 438.999 106.257C436.171 106.257 433.876 103.853 433.876 100.891C433.876 97.9284 436.171 95.5243 438.999 95.5243C441.826 95.5243 444.121 97.9284 444.121 100.891Z" fill="#1ABCFE"/>
</g>
</g>
<g filter="url(#filter6_d_2388_26772)">
<g filter="url(#filter7_d_2388_26772)">
<rect x="409" y="17.7036" width="50" height="50" rx="7.73529" fill="white"/>
<rect x="408.517" y="17.2202" width="50.9669" height="50.9669" rx="8.21875" stroke="#E6EBF0" stroke-width="0.966912"/>
</g>
<path d="M431.762 51.4912V44.9866H436.966V51.4912C436.966 52.2067 437.551 52.7921 438.267 52.7921H442.169C442.885 52.7921 443.47 52.2067 443.47 51.4912V42.3848H445.682C446.046 42.3848 446.332 42.0856 446.319 41.7214C446.319 41.5392 446.241 41.3701 446.111 41.253L435.236 31.4572C434.741 31.0149 433.987 31.0149 433.492 31.4572L422.617 41.253C422.357 41.5002 422.331 41.9035 422.578 42.1767C422.695 42.3068 422.877 42.3848 423.046 42.3848H425.258V51.4912C425.258 52.2067 425.843 52.7921 426.559 52.7921H430.461C431.177 52.7921 431.762 52.2067 431.762 51.4912Z" fill="#336ACC"/>
</g>
</g>
<defs>
<filter id="filter0_d_2388_26772" x="12.3765" y="89.2288" width="261.453" height="263.916" filterUnits="userSpaceOnUse" color-interpolation-filters="sRGB">
<feFlood flood-opacity="0" result="BackgroundImageFix"/>
<feColorMatrix in="SourceAlpha" type="matrix" values="0 0 0 0 0 0 0 0 0 0 0 0 0 0 0 0 0 0 127 0" result="hardAlpha"/>
<feOffset/>
<feGaussianBlur stdDeviation="6.18824"/>
<feComposite in2="hardAlpha" operator="out"/>
<feColorMatrix type="matrix" values="0 0 0 0 0 0 0 0 0 0 0 0 0 0 0 0 0 0 0.08 0"/>
<feBlend mode="normal" in2="BackgroundImageFix" result="effect1_dropShadow_2388_26772"/>
<feBlend mode="normal" in="SourceGraphic" in2="effect1_dropShadow_2388_26772" result="shape"/>
</filter>
<filter id="filter1_d_2388_26772" x="89.7295" y="28.2656" width="345.525" height="239.335" filterUnits="userSpaceOnUse" color-interpolation-filters="sRGB">
<feFlood flood-opacity="0" result="BackgroundImageFix"/>
<feColorMatrix in="SourceAlpha" type="matrix" values="0 0 0 0 0 0 0 0 0 0 0 0 0 0 0 0 0 0 127 0" result="hardAlpha"/>
<feOffset/>
<feGaussianBlur stdDeviation="6.18824"/>
<feComposite in2="hardAlpha" operator="out"/>
<feColorMatrix type="matrix" values="0 0 0 0 0 0 0 0 0 0 0 0 0 0 0 0 0 0 0.08 0"/>
<feBlend mode="normal" in2="BackgroundImageFix" result="effect1_dropShadow_2388_26772"/>
<feBlend mode="normal" in="SourceGraphic" in2="effect1_dropShadow_2388_26772" result="shape"/>
</filter>
<filter id="filter2_d_2388_26772" x="293.624" y="219.682" width="209.647" height="64.9765" filterUnits="userSpaceOnUse" color-interpolation-filters="sRGB">
<feFlood flood-opacity="0" result="BackgroundImageFix"/>
<feColorMatrix in="SourceAlpha" type="matrix" values="0 0 0 0 0 0 0 0 0 0 0 0 0 0 0 0 0 0 127 0" result="hardAlpha"/>
<feOffset/>
<feGaussianBlur stdDeviation="6.18824"/>
<feComposite in2="hardAlpha" operator="out"/>
<feColorMatrix type="matrix" values="0 0 0 0 0 0 0 0 0 0 0 0 0 0 0 0 0 0 0.08 0"/>
<feBlend mode="normal" in2="BackgroundImageFix" result="effect1_dropShadow_2388_26772"/>
<feBlend mode="normal" in="SourceGraphic" in2="effect1_dropShadow_2388_26772" result="shape"/>
</filter>
<filter id="filter3_d_2388_26772" x="399.331" y="124.034" width="69.3378" height="69.3383" filterUnits="userSpaceOnUse" color-interpolation-filters="sRGB">
<feFlood flood-opacity="0" result="BackgroundImageFix"/>
<feColorMatrix in="SourceAlpha" type="matrix" values="0 0 0 0 0 0 0 0 0 0 0 0 0 0 0 0 0 0 127 0" result="hardAlpha"/>
<feOffset/>
<feGaussianBlur stdDeviation="3.86765"/>
<feComposite in2="hardAlpha" operator="out"/>
<feColorMatrix type="matrix" values="0 0 0 0 0 0 0 0 0 0 0 0 0 0 0 0 0 0 0.08 0"/>
<feBlend mode="normal" in2="BackgroundImageFix" result="effect1_dropShadow_2388_26772"/>
<feBlend mode="normal" in="SourceGraphic" in2="effect1_dropShadow_2388_26772" result="shape"/>
</filter>
<filter id="filter4_d_2388_26772" x="400.298" y="67.0014" width="67.4042" height="67.4044" filterUnits="userSpaceOnUse" color-interpolation-filters="sRGB">
<feFlood flood-opacity="0" result="BackgroundImageFix"/>
<feColorMatrix in="SourceAlpha" type="matrix" values="0 0 0 0 0 0 0 0 0 0 0 0 0 0 0 0 0 0 127 0" result="hardAlpha"/>
<feOffset/>
<feGaussianBlur stdDeviation="3.86765"/>
<feComposite in2="hardAlpha" operator="out"/>
<feColorMatrix type="matrix" values="0 0 0 0 0 0 0 0 0 0 0 0 0 0 0 0 0 0 0.08 0"/>
<feBlend mode="normal" in2="BackgroundImageFix" result="effect1_dropShadow_2388_26772"/>
<feBlend mode="normal" in="SourceGraphic" in2="effect1_dropShadow_2388_26772" result="shape"/>
</filter>
<filter id="filter5_d_2388_26772" x="400.298" y="67.0014" width="67.4042" height="67.4044" filterUnits="userSpaceOnUse" color-interpolation-filters="sRGB">
<feFlood flood-opacity="0" result="BackgroundImageFix"/>
<feColorMatrix in="SourceAlpha" type="matrix" values="0 0 0 0 0 0 0 0 0 0 0 0 0 0 0 0 0 0 127 0" result="hardAlpha"/>
<feOffset/>
<feGaussianBlur stdDeviation="3.86765"/>
<feComposite in2="hardAlpha" operator="out"/>
<feColorMatrix type="matrix" values="0 0 0 0 0 0 0 0 0 0 0 0 0 0 0 0 0 0 0.08 0"/>
<feBlend mode="normal" in2="BackgroundImageFix" result="effect1_dropShadow_2388_26772"/>
<feBlend mode="normal" in="SourceGraphic" in2="effect1_dropShadow_2388_26772" result="shape"/>
</filter>
<filter id="filter6_d_2388_26772" x="400.298" y="9.0014" width="67.4042" height="67.4044" filterUnits="userSpaceOnUse" color-interpolation-filters="sRGB">
<feFlood flood-opacity="0" result="BackgroundImageFix"/>
<feColorMatrix in="SourceAlpha" type="matrix" values="0 0 0 0 0 0 0 0 0 0 0 0 0 0 0 0 0 0 127 0" result="hardAlpha"/>
<feOffset/>
<feGaussianBlur stdDeviation="3.86765"/>
<feComposite in2="hardAlpha" operator="out"/>
<feColorMatrix type="matrix" values="0 0 0 0 0 0 0 0 0 0 0 0 0 0 0 0 0 0 0.08 0"/>
<feBlend mode="normal" in2="BackgroundImageFix" result="effect1_dropShadow_2388_26772"/>
<feBlend mode="normal" in="SourceGraphic" in2="effect1_dropShadow_2388_26772" result="shape"/>
</filter>
<filter id="filter7_d_2388_26772" x="400.298" y="9.0014" width="67.4042" height="67.4044" filterUnits="userSpaceOnUse" color-interpolation-filters="sRGB">
<feFlood flood-opacity="0" result="BackgroundImageFix"/>
<feColorMatrix in="SourceAlpha" type="matrix" values="0 0 0 0 0 0 0 0 0 0 0 0 0 0 0 0 0 0 127 0" result="hardAlpha"/>
<feOffset/>
<feGaussianBlur stdDeviation="3.86765"/>
<feComposite in2="hardAlpha" operator="out"/>
<feColorMatrix type="matrix" values="0 0 0 0 0 0 0 0 0 0 0 0 0 0 0 0 0 0 0.08 0"/>
<feBlend mode="normal" in2="BackgroundImageFix" result="effect1_dropShadow_2388_26772"/>
<feBlend mode="normal" in="SourceGraphic" in2="effect1_dropShadow_2388_26772" result="shape"/>
</filter>
<clipPath id="clip0_2388_26772">
<rect width="526" height="297" rx="7.73529" fill="white"/>
</clipPath>
<clipPath id="clip1_2388_26772">
<rect width="236.7" height="239.163" fill="white" transform="translate(24.7529 101.605)"/>
</clipPath>
<clipPath id="clip2_2388_26772">
<rect width="20.4893" height="32.1974" fill="white" transform="translate(423.631 84.7919)"/>
</clipPath>
</defs>
</svg>
