<svg width="250" height="250" viewBox="0 0 250 250" fill="none" xmlns="http://www.w3.org/2000/svg">
<rect width="250" height="250" rx="8" fill="#F3F6F9"/>
<mask id="mask0_13541_5366" style="mask-type:alpha" maskUnits="userSpaceOnUse" x="0" y="0" width="250" height="250">
<rect width="250" height="250" rx="8" fill="#D9D9D9"/>
</mask>
<g mask="url(#mask0_13541_5366)">
</g>
<path d="M125 56.6667C87.28 56.6667 56.6666 87.28 56.6666 125C56.6666 162.72 87.28 193.333 125 193.333C162.72 193.333 193.333 162.72 193.333 125C193.333 87.28 162.72 56.6667 125 56.6667ZM125 77.1667C136.343 77.1667 145.5 86.3234 145.5 97.6667C145.5 109.01 136.343 118.167 125 118.167C113.657 118.167 104.5 109.01 104.5 97.6667C104.5 86.3234 113.657 77.1667 125 77.1667ZM125 174.2C107.917 174.2 92.815 165.453 84 152.197C84.205 138.598 111.333 131.15 125 131.15C138.598 131.15 165.795 138.598 166 152.197C157.185 165.453 142.083 174.2 125 174.2Z" fill="#D1D8E0"/>
</svg>
