<svg width="250" height="250" viewBox="0 0 250 250" fill="none" xmlns="http://www.w3.org/2000/svg">
<rect width="250" height="250" rx="8" fill="#F3F6F9"/>
<mask id="mask0_13541_5366" style="mask-type:alpha" maskUnits="userSpaceOnUse" x="0" y="0" width="250" height="250">
<rect width="250" height="250" rx="8" fill="#D9D9D9"/>
</mask>
<g mask="url(#mask0_13541_5366)">
</g>
<path d="M125 56.6667C87.28 56.6667 56.6666 87.28 56.6666 125C56.6666 162.72 87.28 193.333 125 193.333C162.72 193.333 193.333 162.72 193.333 125C193.333 87.28 162.72 56.6667 125 56.6667ZM125 77.1667C136.343 77.1667 145.5 86.3234 145.5 97.6667C145.5 109.01 136.343 118.167 125 118.167C113.657 118.167 104.5 109.01 104.5 97.6667C104.5 86.3234 113.657 77.1667 125 77.1667ZM125 174.2C107.917 174.2 92.815 165.453 84 152.197C84.205 138.598 111.333 131.15 125 131.15C138.598 131.15 165.795 138.598 166 152.197C157.185 165.453 142.083 174.2 125 174.2Z" fill="#D1D8E0"/>
<path d="M101.239 222.5H94.6904V221.55L97.3633 218.836C97.86 218.335 98.277 217.888 98.6143 217.496C98.9561 217.104 99.2158 216.719 99.3936 216.341C99.5713 215.958 99.6602 215.539 99.6602 215.083C99.6602 214.518 99.4915 214.087 99.1543 213.791C98.8216 213.49 98.3818 213.34 97.835 213.34C97.3564 213.34 96.9326 213.422 96.5635 213.586C96.1943 213.75 95.8161 213.982 95.4287 214.283L94.8203 213.518C95.0846 213.294 95.3717 213.096 95.6816 212.923C95.9961 212.75 96.3311 212.613 96.6865 212.513C97.0465 212.412 97.4294 212.362 97.835 212.362C98.4502 212.362 98.9811 212.469 99.4277 212.684C99.8743 212.898 100.218 213.203 100.46 213.6C100.706 213.996 100.829 214.468 100.829 215.015C100.829 215.543 100.724 216.035 100.515 216.491C100.305 216.942 100.011 217.391 99.6328 217.838C99.2546 218.28 98.8125 218.749 98.3066 219.246L96.1328 221.413V221.461H101.239V222.5ZM105.86 216.389C106.539 216.389 107.13 216.505 107.631 216.737C108.132 216.965 108.52 217.298 108.793 217.735C109.071 218.173 109.21 218.704 109.21 219.328C109.21 220.012 109.062 220.602 108.766 221.099C108.469 221.591 108.043 221.971 107.487 222.24C106.931 222.505 106.266 222.637 105.491 222.637C104.972 222.637 104.489 222.591 104.042 222.5C103.595 222.409 103.219 222.272 102.914 222.09V221.01C103.247 221.21 103.65 221.37 104.124 221.488C104.598 221.607 105.058 221.666 105.505 221.666C106.011 221.666 106.453 221.586 106.831 221.427C107.214 221.263 107.51 221.017 107.72 220.688C107.934 220.356 108.041 219.939 108.041 219.438C108.041 218.772 107.836 218.259 107.426 217.899C107.02 217.535 106.378 217.353 105.498 217.353C105.215 217.353 104.906 217.375 104.568 217.421C104.231 217.466 103.953 217.517 103.734 217.571L103.16 217.195L103.543 212.506H108.513V213.545H104.514L104.261 216.56C104.434 216.523 104.657 216.487 104.931 216.45C105.204 216.409 105.514 216.389 105.86 216.389ZM117.317 217.489C117.317 218.3 117.256 219.025 117.133 219.663C117.01 220.301 116.816 220.841 116.552 221.283C116.287 221.725 115.946 222.062 115.526 222.295C115.107 222.523 114.604 222.637 114.016 222.637C113.273 222.637 112.658 222.434 112.17 222.028C111.687 221.623 111.325 221.037 111.083 220.271C110.846 219.501 110.728 218.574 110.728 217.489C110.728 216.423 110.835 215.507 111.049 214.741C111.268 213.971 111.618 213.381 112.102 212.971C112.585 212.556 113.223 212.349 114.016 212.349C114.768 212.349 115.387 212.554 115.875 212.964C116.363 213.369 116.725 213.957 116.962 214.728C117.199 215.493 117.317 216.414 117.317 217.489ZM111.869 217.489C111.869 218.419 111.94 219.194 112.081 219.813C112.222 220.433 112.45 220.898 112.765 221.208C113.084 221.513 113.501 221.666 114.016 221.666C114.531 221.666 114.945 221.513 115.26 221.208C115.579 220.903 115.809 220.44 115.95 219.82C116.096 219.201 116.169 218.424 116.169 217.489C116.169 216.573 116.098 215.808 115.957 215.192C115.816 214.573 115.588 214.108 115.273 213.798C114.959 213.483 114.54 213.326 114.016 213.326C113.492 213.326 113.072 213.483 112.758 213.798C112.443 214.108 112.215 214.573 112.074 215.192C111.938 215.808 111.869 216.573 111.869 217.489ZM124.652 218.665L122.062 215.008H123.36L125.336 217.893L127.305 215.008H128.59L125.999 218.665L128.733 222.5H127.435L125.336 219.444L123.224 222.5H121.938L124.652 218.665ZM139.876 222.5H133.327V221.55L136 218.836C136.497 218.335 136.914 217.888 137.251 217.496C137.593 217.104 137.853 216.719 138.03 216.341C138.208 215.958 138.297 215.539 138.297 215.083C138.297 214.518 138.128 214.087 137.791 213.791C137.458 213.49 137.019 213.34 136.472 213.34C135.993 213.34 135.569 213.422 135.2 213.586C134.831 213.75 134.453 213.982 134.065 214.283L133.457 213.518C133.721 213.294 134.008 213.096 134.318 212.923C134.633 212.75 134.968 212.613 135.323 212.513C135.683 212.412 136.066 212.362 136.472 212.362C137.087 212.362 137.618 212.469 138.064 212.684C138.511 212.898 138.855 213.203 139.097 213.6C139.343 213.996 139.466 214.468 139.466 215.015C139.466 215.543 139.361 216.035 139.151 216.491C138.942 216.942 138.648 217.391 138.27 217.838C137.891 218.28 137.449 218.749 136.943 219.246L134.77 221.413V221.461H139.876V222.5ZM144.497 216.389C145.176 216.389 145.766 216.505 146.268 216.737C146.769 216.965 147.156 217.298 147.43 217.735C147.708 218.173 147.847 218.704 147.847 219.328C147.847 220.012 147.699 220.602 147.402 221.099C147.106 221.591 146.68 221.971 146.124 222.24C145.568 222.505 144.903 222.637 144.128 222.637C143.608 222.637 143.125 222.591 142.679 222.5C142.232 222.409 141.856 222.272 141.551 222.09V221.01C141.883 221.21 142.287 221.37 142.761 221.488C143.235 221.607 143.695 221.666 144.142 221.666C144.647 221.666 145.09 221.586 145.468 221.427C145.851 221.263 146.147 221.017 146.356 220.688C146.571 220.356 146.678 219.939 146.678 219.438C146.678 218.772 146.473 218.259 146.062 217.899C145.657 217.535 145.014 217.353 144.135 217.353C143.852 217.353 143.542 217.375 143.205 217.421C142.868 217.466 142.59 217.517 142.371 217.571L141.797 217.195L142.18 212.506H147.149V213.545H143.15L142.897 216.56C143.071 216.523 143.294 216.487 143.567 216.45C143.841 216.409 144.151 216.389 144.497 216.389ZM155.954 217.489C155.954 218.3 155.893 219.025 155.77 219.663C155.646 220.301 155.453 220.841 155.188 221.283C154.924 221.725 154.582 222.062 154.163 222.295C153.744 222.523 153.24 222.637 152.652 222.637C151.91 222.637 151.294 222.434 150.807 222.028C150.324 221.623 149.961 221.037 149.72 220.271C149.483 219.501 149.364 218.574 149.364 217.489C149.364 216.423 149.471 215.507 149.686 214.741C149.904 213.971 150.255 213.381 150.738 212.971C151.221 212.556 151.859 212.349 152.652 212.349C153.404 212.349 154.024 212.554 154.512 212.964C154.999 213.369 155.362 213.957 155.599 214.728C155.836 215.493 155.954 216.414 155.954 217.489ZM150.506 217.489C150.506 218.419 150.576 219.194 150.718 219.813C150.859 220.433 151.087 220.898 151.401 221.208C151.72 221.513 152.137 221.666 152.652 221.666C153.167 221.666 153.582 221.513 153.896 221.208C154.215 220.903 154.446 220.44 154.587 219.82C154.733 219.201 154.806 218.424 154.806 217.489C154.806 216.573 154.735 215.808 154.594 215.192C154.452 214.573 154.225 214.108 153.91 213.798C153.596 213.483 153.176 213.326 152.652 213.326C152.128 213.326 151.709 213.483 151.395 213.798C151.08 214.108 150.852 214.573 150.711 215.192C150.574 215.808 150.506 216.573 150.506 217.489Z" fill="#38485C"/>
</svg>
