<svg width="728" height="42" viewBox="0 0 728 42" fill="none" xmlns="http://www.w3.org/2000/svg">
<rect x="0.5" y="0.5" width="727" height="41" rx="7.5" fill="#F3F6F9"/>
<rect x="0.5" y="0.5" width="727" height="41" rx="7.5" stroke="#E6EBF0"/>
<path d="M14.9277 15.82V26.18C14.9277 26.97 15.7977 27.45 16.4677 27.02L24.6077 21.84C25.2277 21.45 25.2277 20.55 24.6077 20.15L16.4677 14.98C15.7977 14.55 14.9277 15.03 14.9277 15.82Z" fill="#101E37"/>
<rect x="39" y="19" width="574" height="4" rx="2" fill="#D1D8E0"/>
<path d="M627.294 21.4893C627.294 22.3005 627.232 23.0251 627.109 23.6631C626.986 24.3011 626.793 24.8411 626.528 25.2832C626.264 25.7253 625.922 26.0625 625.503 26.2949C625.084 26.5228 624.58 26.6367 623.992 26.6367C623.249 26.6367 622.634 26.4339 622.146 26.0283C621.663 25.6227 621.301 25.0371 621.06 24.2715C620.823 23.5013 620.704 22.5739 620.704 21.4893C620.704 20.4229 620.811 19.5068 621.025 18.7412C621.244 17.971 621.595 17.3809 622.078 16.9707C622.561 16.556 623.199 16.3486 623.992 16.3486C624.744 16.3486 625.364 16.5537 625.852 16.9639C626.339 17.3695 626.701 17.9574 626.938 18.7275C627.175 19.4932 627.294 20.4137 627.294 21.4893ZM621.846 21.4893C621.846 22.4189 621.916 23.1937 622.058 23.8135C622.199 24.4333 622.427 24.8981 622.741 25.208C623.06 25.5133 623.477 25.666 623.992 25.666C624.507 25.666 624.922 25.5133 625.236 25.208C625.555 24.9027 625.785 24.4401 625.927 23.8203C626.073 23.2005 626.146 22.4235 626.146 21.4893C626.146 20.5732 626.075 19.8076 625.934 19.1924C625.792 18.5726 625.564 18.1077 625.25 17.7979C624.936 17.4834 624.516 17.3262 623.992 17.3262C623.468 17.3262 623.049 17.4834 622.734 17.7979C622.42 18.1077 622.192 18.5726 622.051 19.1924C621.914 19.8076 621.846 20.5732 621.846 21.4893ZM629.037 25.7891C629.037 25.4701 629.115 25.2445 629.27 25.1123C629.424 24.9756 629.614 24.9072 629.837 24.9072C630.069 24.9072 630.265 24.9756 630.425 25.1123C630.584 25.2445 630.664 25.4701 630.664 25.7891C630.664 26.1035 630.584 26.3337 630.425 26.4795C630.265 26.6208 630.069 26.6914 629.837 26.6914C629.614 26.6914 629.424 26.6208 629.27 26.4795C629.115 26.3337 629.037 26.1035 629.037 25.7891ZM629.037 19.7256C629.037 19.3975 629.115 19.1673 629.27 19.0352C629.424 18.8984 629.614 18.8301 629.837 18.8301C630.069 18.8301 630.265 18.8984 630.425 19.0352C630.584 19.1673 630.664 19.3975 630.664 19.7256C630.664 20.0355 630.584 20.2611 630.425 20.4023C630.265 20.5436 630.069 20.6143 629.837 20.6143C629.614 20.6143 629.424 20.5436 629.27 20.4023C629.115 20.2611 629.037 20.0355 629.037 19.7256ZM638.983 21.4893C638.983 22.3005 638.922 23.0251 638.799 23.6631C638.676 24.3011 638.482 24.8411 638.218 25.2832C637.953 25.7253 637.612 26.0625 637.192 26.2949C636.773 26.5228 636.27 26.6367 635.682 26.6367C634.939 26.6367 634.324 26.4339 633.836 26.0283C633.353 25.6227 632.991 25.0371 632.749 24.2715C632.512 23.5013 632.394 22.5739 632.394 21.4893C632.394 20.4229 632.501 19.5068 632.715 18.7412C632.934 17.971 633.285 17.3809 633.768 16.9707C634.251 16.556 634.889 16.3486 635.682 16.3486C636.434 16.3486 637.053 16.5537 637.541 16.9639C638.029 17.3695 638.391 17.9574 638.628 18.7275C638.865 19.4932 638.983 20.4137 638.983 21.4893ZM633.535 21.4893C633.535 22.4189 633.606 23.1937 633.747 23.8135C633.888 24.4333 634.116 24.8981 634.431 25.208C634.75 25.5133 635.167 25.666 635.682 25.666C636.197 25.666 636.611 25.5133 636.926 25.208C637.245 24.9027 637.475 24.4401 637.616 23.8203C637.762 23.2005 637.835 22.4235 637.835 21.4893C637.835 20.5732 637.764 19.8076 637.623 19.1924C637.482 18.5726 637.254 18.1077 636.939 17.7979C636.625 17.4834 636.206 17.3262 635.682 17.3262C635.158 17.3262 634.738 17.4834 634.424 17.7979C634.109 18.1077 633.882 18.5726 633.74 19.1924C633.604 19.8076 633.535 20.5732 633.535 21.4893ZM646.995 21.4893C646.995 22.3005 646.934 23.0251 646.811 23.6631C646.688 24.3011 646.494 24.8411 646.229 25.2832C645.965 25.7253 645.623 26.0625 645.204 26.2949C644.785 26.5228 644.281 26.6367 643.693 26.6367C642.951 26.6367 642.335 26.4339 641.848 26.0283C641.365 25.6227 641.002 25.0371 640.761 24.2715C640.524 23.5013 640.405 22.5739 640.405 21.4893C640.405 20.4229 640.512 19.5068 640.727 18.7412C640.945 17.971 641.296 17.3809 641.779 16.9707C642.262 16.556 642.9 16.3486 643.693 16.3486C644.445 16.3486 645.065 16.5537 645.553 16.9639C646.04 17.3695 646.403 17.9574 646.64 18.7275C646.877 19.4932 646.995 20.4137 646.995 21.4893ZM641.547 21.4893C641.547 22.4189 641.618 23.1937 641.759 23.8135C641.9 24.4333 642.128 24.8981 642.442 25.208C642.761 25.5133 643.178 25.666 643.693 25.666C644.208 25.666 644.623 25.5133 644.938 25.208C645.257 24.9027 645.487 24.4401 645.628 23.8203C645.774 23.2005 645.847 22.4235 645.847 21.4893C645.847 20.5732 645.776 19.8076 645.635 19.1924C645.493 18.5726 645.266 18.1077 644.951 17.7979C644.637 17.4834 644.217 17.3262 643.693 17.3262C643.169 17.3262 642.75 17.4834 642.436 17.7979C642.121 18.1077 641.893 18.5726 641.752 19.1924C641.615 19.8076 641.547 20.5732 641.547 21.4893ZM656.333 16.5059L652.614 26.5H651.493L655.219 16.5059H656.333ZM667.366 26.5H660.817V25.5498L663.49 22.8359C663.987 22.3346 664.404 21.888 664.741 21.4961C665.083 21.1042 665.343 20.7191 665.521 20.3408C665.698 19.958 665.787 19.5387 665.787 19.083C665.787 18.5179 665.618 18.0872 665.281 17.791C664.949 17.4902 664.509 17.3398 663.962 17.3398C663.483 17.3398 663.06 17.4219 662.69 17.5859C662.321 17.75 661.943 17.9824 661.556 18.2832L660.947 17.5176C661.212 17.2943 661.499 17.096 661.809 16.9229C662.123 16.7497 662.458 16.613 662.813 16.5127C663.174 16.4124 663.556 16.3623 663.962 16.3623C664.577 16.3623 665.108 16.4694 665.555 16.6836C666.001 16.8978 666.345 17.2031 666.587 17.5996C666.833 17.9961 666.956 18.4678 666.956 19.0146C666.956 19.5433 666.851 20.0355 666.642 20.4912C666.432 20.9424 666.138 21.3913 665.76 21.8379C665.382 22.2799 664.939 22.7493 664.434 23.2461L662.26 25.4131V25.4609H667.366V26.5ZM669.164 25.7891C669.164 25.4701 669.242 25.2445 669.396 25.1123C669.551 24.9756 669.741 24.9072 669.964 24.9072C670.196 24.9072 670.392 24.9756 670.552 25.1123C670.711 25.2445 670.791 25.4701 670.791 25.7891C670.791 26.1035 670.711 26.3337 670.552 26.4795C670.392 26.6208 670.196 26.6914 669.964 26.6914C669.741 26.6914 669.551 26.6208 669.396 26.4795C669.242 26.3337 669.164 26.1035 669.164 25.7891ZM669.164 19.7256C669.164 19.3975 669.242 19.1673 669.396 19.0352C669.551 18.8984 669.741 18.8301 669.964 18.8301C670.196 18.8301 670.392 18.8984 670.552 19.0352C670.711 19.1673 670.791 19.3975 670.791 19.7256C670.791 20.0355 670.711 20.2611 670.552 20.4023C670.392 20.5436 670.196 20.6143 669.964 20.6143C669.741 20.6143 669.551 20.5436 669.396 20.4023C669.242 20.2611 669.164 20.0355 669.164 19.7256ZM679.056 26.5H672.507V25.5498L675.18 22.8359C675.676 22.3346 676.093 21.888 676.431 21.4961C676.772 21.1042 677.032 20.7191 677.21 20.3408C677.388 19.958 677.477 19.5387 677.477 19.083C677.477 18.5179 677.308 18.0872 676.971 17.791C676.638 17.4902 676.198 17.3398 675.651 17.3398C675.173 17.3398 674.749 17.4219 674.38 17.5859C674.011 17.75 673.632 17.9824 673.245 18.2832L672.637 17.5176C672.901 17.2943 673.188 17.096 673.498 16.9229C673.812 16.7497 674.147 16.613 674.503 16.5127C674.863 16.4124 675.246 16.3623 675.651 16.3623C676.267 16.3623 676.798 16.4694 677.244 16.6836C677.691 16.8978 678.035 17.2031 678.276 17.5996C678.522 17.9961 678.646 18.4678 678.646 19.0146C678.646 19.5433 678.541 20.0355 678.331 20.4912C678.121 20.9424 677.827 21.3913 677.449 21.8379C677.071 22.2799 676.629 22.7493 676.123 23.2461L673.949 25.4131V25.4609H679.056V26.5ZM687.566 24.1826H686.069V26.5H684.962V24.1826H680.129V23.2256L684.887 16.4512H686.069V23.1572H687.566V24.1826ZM684.962 23.1572V19.8896C684.962 19.639 684.964 19.4134 684.969 19.2129C684.973 19.0078 684.98 18.8187 684.989 18.6455C684.998 18.4678 685.005 18.2992 685.01 18.1396C685.019 17.9801 685.026 17.8229 685.03 17.668H684.976C684.889 17.8503 684.789 18.0439 684.675 18.249C684.565 18.4495 684.454 18.6296 684.34 18.7891L681.257 23.1572H684.962Z" fill="#101E37"/>
<path d="M699 19.0018V23.0018C699 23.5518 699.45 24.0018 700 24.0018H703L706.29 27.2918C706.92 27.9218 708 27.4718 708 26.5818V15.4118C708 14.5218 706.92 14.0718 706.29 14.7018L703 18.0018H700C699.45 18.0018 699 18.4518 699 19.0018ZM712.5 21.0018C712.5 19.2318 711.48 17.7118 710 16.9718V25.0218C711.48 24.2918 712.5 22.7718 712.5 21.0018ZM710 13.4518V13.6518C710 14.0318 710.25 14.3618 710.6 14.5018C713.18 15.5318 715 18.0618 715 21.0018C715 23.9418 713.18 26.4718 710.6 27.5018C710.24 27.6418 710 27.9718 710 28.3518V28.5518C710 29.1818 710.63 29.6218 711.21 29.4018C714.6 28.1118 717 24.8418 717 21.0018C717 17.1618 714.6 13.8918 711.21 12.6018C710.63 12.3718 710 12.8218 710 13.4518Z" fill="#101E37"/>
</svg>
